<svg width="328" height="258" viewBox="0 0 328 258" fill="none" xmlns="http://www.w3.org/2000/svg">
<mask id="path-1-inside-1_38_70" fill="white">
<path fill-rule="evenodd" clip-rule="evenodd" d="M87.8564 222.293L105.281 168.523L93.119 223.722C93.0973 223.821 93.0705 223.917 93.039 224.01L91.5566 231.637C91.1933 233.506 89.3222 234.675 87.4833 234.183C85.6444 233.69 84.6086 231.742 85.2284 229.942L87.8195 222.417C87.8308 222.376 87.8431 222.334 87.8564 222.293Z"/>
</mask>
<path fill-rule="evenodd" clip-rule="evenodd" d="M87.8564 222.293L105.281 168.523L93.119 223.722C93.0973 223.821 93.0705 223.917 93.039 224.01L91.5566 231.637C91.1933 233.506 89.3222 234.675 87.4833 234.183C85.6444 233.69 84.6086 231.742 85.2284 229.942L87.8195 222.417C87.8308 222.376 87.8431 222.334 87.8564 222.293Z" fill="#00A3FF"/>
<path d="M105.281 168.523L104.806 168.369L105.77 168.631L105.281 168.523ZM87.8564 222.293L88.3321 222.447L88.3321 222.447L87.8564 222.293ZM93.119 223.722L92.6307 223.615L92.6307 223.615L93.119 223.722ZM93.039 224.01L92.5482 223.915L92.5546 223.882L92.5652 223.851L93.039 224.01ZM91.5566 231.637L91.0658 231.542L91.0658 231.542L91.5566 231.637ZM85.2284 229.942L84.7557 229.779L84.7557 229.779L85.2284 229.942ZM87.8195 222.417L88.3018 222.549L88.2975 222.564L88.2923 222.58L87.8195 222.417ZM105.757 168.678L88.3321 222.447L87.3808 222.139L104.806 168.369L105.757 168.678ZM92.6307 223.615L104.793 168.416L105.77 168.631L93.6073 223.83L92.6307 223.615ZM92.5652 223.851C92.591 223.774 92.6129 223.696 92.6307 223.615L93.6073 223.83C93.5817 223.946 93.5501 224.059 93.5128 224.17L92.5652 223.851ZM91.0658 231.542L92.5482 223.915L93.5298 224.106L92.0474 231.733L91.0658 231.542ZM87.6127 233.7C89.1716 234.117 90.7578 233.126 91.0658 231.542L92.0474 231.733C91.6288 233.886 89.4728 235.233 87.3539 234.666L87.6127 233.7ZM85.7012 230.104C85.1757 231.63 86.0539 233.282 87.6127 233.7L87.3539 234.666C85.235 234.098 84.0415 231.853 84.7557 229.779L85.7012 230.104ZM88.2923 222.58L85.7012 230.104L84.7557 229.779L87.3468 222.254L88.2923 222.58ZM88.3321 222.447C88.3211 222.481 88.311 222.515 88.3018 222.549L87.3372 222.285C87.3506 222.236 87.3651 222.188 87.3808 222.139L88.3321 222.447Z" fill="black" fill-opacity="0.68" mask="url(#path-1-inside-1_38_70)"/>
<mask id="path-3-inside-2_38_70" fill="white">
<path fill-rule="evenodd" clip-rule="evenodd" d="M134.945 211.427L152.37 157.657L140.208 212.856C140.186 212.954 140.159 213.051 140.128 213.144L138.645 220.771C138.282 222.639 136.411 223.809 134.572 223.316C132.733 222.823 131.697 220.875 132.317 219.075L134.909 211.549C134.92 211.508 134.932 211.467 134.945 211.427Z"/>
</mask>
<path fill-rule="evenodd" clip-rule="evenodd" d="M134.945 211.427L152.37 157.657L140.208 212.856C140.186 212.954 140.159 213.051 140.128 213.144L138.645 220.771C138.282 222.639 136.411 223.809 134.572 223.316C132.733 222.823 131.697 220.875 132.317 219.075L134.909 211.549C134.92 211.508 134.932 211.467 134.945 211.427Z" fill="#00A3FF"/>
<path d="M152.37 157.657L151.895 157.503L152.859 157.764L152.37 157.657ZM134.945 211.427L135.421 211.581L135.421 211.581L134.945 211.427ZM140.208 212.856L139.72 212.748L139.72 212.748L140.208 212.856ZM140.128 213.144L139.637 213.049L139.643 213.016L139.654 212.985L140.128 213.144ZM138.645 220.771L139.136 220.866L139.136 220.866L138.645 220.771ZM132.317 219.075L132.79 219.238L132.79 219.238L132.317 219.075ZM134.909 211.549L135.391 211.681L135.387 211.696L135.382 211.711L134.909 211.549ZM152.846 157.811L135.421 211.581L134.47 211.272L151.895 157.503L152.846 157.811ZM139.72 212.748L151.882 157.549L152.859 157.764L140.696 212.963L139.72 212.748ZM139.654 212.985C139.68 212.908 139.702 212.829 139.72 212.748L140.696 212.963C140.671 213.08 140.639 213.193 140.601 213.304L139.654 212.985ZM138.155 220.675L139.637 213.049L140.619 213.24L139.136 220.866L138.155 220.675ZM134.702 222.833C136.26 223.251 137.847 222.26 138.155 220.675L139.136 220.866C138.718 223.019 136.562 224.367 134.443 223.799L134.702 222.833ZM132.79 219.238C132.265 220.764 133.143 222.415 134.702 222.833L134.443 223.799C132.324 223.231 131.13 220.986 131.845 218.912L132.79 219.238ZM135.382 211.711L132.79 219.238L131.845 218.912L134.436 211.386L135.382 211.711ZM135.421 211.581C135.41 211.614 135.4 211.647 135.391 211.681L134.427 211.416C134.44 211.368 134.454 211.32 134.47 211.272L135.421 211.581Z" fill="black" fill-opacity="0.68" mask="url(#path-3-inside-2_38_70)"/>
<mask id="path-5-inside-3_38_70" fill="white">
<path fill-rule="evenodd" clip-rule="evenodd" d="M174.79 218.671L192.215 164.901L180.052 220.1C180.031 220.199 180.004 220.295 179.972 220.389L178.49 228.015C178.127 229.884 176.256 231.053 174.417 230.56C172.578 230.068 171.542 228.119 172.162 226.319L174.753 218.793C174.765 218.752 174.777 218.712 174.79 218.671Z"/>
</mask>
<path fill-rule="evenodd" clip-rule="evenodd" d="M174.79 218.671L192.215 164.901L180.052 220.1C180.031 220.199 180.004 220.295 179.972 220.389L178.49 228.015C178.127 229.884 176.256 231.053 174.417 230.56C172.578 230.068 171.542 228.119 172.162 226.319L174.753 218.793C174.765 218.752 174.777 218.712 174.79 218.671Z" fill="#00A3FF"/>
<path d="M192.215 164.901L191.739 164.747L192.703 165.009L192.215 164.901ZM174.79 218.671L174.314 218.517L174.314 218.517L174.79 218.671ZM180.052 220.1L179.564 219.992L179.564 219.992L180.052 220.1ZM179.972 220.389L179.481 220.294L179.488 220.261L179.498 220.229L179.972 220.389ZM178.49 228.015L178.981 228.111L178.981 228.111L178.49 228.015ZM172.162 226.319L171.689 226.157L171.689 226.157L172.162 226.319ZM174.753 218.793L175.236 218.925L175.231 218.941L175.226 218.956L174.753 218.793ZM192.691 165.055L175.266 218.825L174.314 218.517L191.739 164.747L192.691 165.055ZM179.564 219.992L191.727 164.794L192.703 165.009L180.541 220.208L179.564 219.992ZM179.498 220.229C179.524 220.153 179.546 220.074 179.564 219.992L180.541 220.208C180.515 220.324 180.483 220.438 180.446 220.549L179.498 220.229ZM177.999 227.92L179.481 220.294L180.463 220.484L178.981 228.111L177.999 227.92ZM174.546 230.077C176.105 230.495 177.691 229.504 177.999 227.92L178.981 228.111C178.562 230.264 176.406 231.611 174.287 231.043L174.546 230.077ZM172.635 226.482C172.109 228.008 172.987 229.66 174.546 230.077L174.287 231.043C172.168 230.476 170.975 228.231 171.689 226.157L172.635 226.482ZM175.226 218.956L172.635 226.482L171.689 226.157L174.281 218.63L175.226 218.956ZM175.266 218.825C175.255 218.858 175.245 218.892 175.236 218.925L174.271 218.661C174.284 218.613 174.299 218.565 174.314 218.517L175.266 218.825Z" fill="black" fill-opacity="0.68" mask="url(#path-5-inside-3_38_70)"/>
<mask id="path-7-inside-4_38_70" fill="white">
<path fill-rule="evenodd" clip-rule="evenodd" d="M221.879 211.427L239.304 157.657L227.141 212.855C227.12 212.954 227.093 213.05 227.061 213.144L225.579 220.771C225.216 222.639 223.344 223.809 221.506 223.316C219.667 222.823 218.631 220.875 219.251 219.075L221.842 211.55C221.853 211.509 221.865 211.468 221.879 211.427Z"/>
</mask>
<path fill-rule="evenodd" clip-rule="evenodd" d="M221.879 211.427L239.304 157.657L227.141 212.855C227.12 212.954 227.093 213.05 227.061 213.144L225.579 220.771C225.216 222.639 223.344 223.809 221.506 223.316C219.667 222.823 218.631 220.875 219.251 219.075L221.842 211.55C221.853 211.509 221.865 211.468 221.879 211.427Z" fill="#00A3FF"/>
<path d="M239.304 157.657L238.828 157.503L239.792 157.764L239.304 157.657ZM221.879 211.427L221.403 211.272L221.403 211.272L221.879 211.427ZM227.141 212.855L226.653 212.748L226.653 212.748L227.141 212.855ZM227.061 213.144L226.57 213.048L226.577 213.015L226.587 212.984L227.061 213.144ZM225.579 220.771L225.088 220.675L225.088 220.675L225.579 220.771ZM219.251 219.075L218.778 218.912L218.778 218.912L219.251 219.075ZM221.842 211.55L222.324 211.682L222.32 211.698L222.314 211.713L221.842 211.55ZM239.779 157.811L222.354 211.581L221.403 211.272L238.828 157.503L239.779 157.811ZM226.653 212.748L238.815 157.549L239.792 157.764L227.63 212.963L226.653 212.748ZM226.587 212.984C226.613 212.908 226.635 212.829 226.653 212.748L227.63 212.963C227.604 213.079 227.572 213.193 227.535 213.303L226.587 212.984ZM225.088 220.675L226.57 213.048L227.552 213.239L226.07 220.866L225.088 220.675ZM221.635 222.833C223.194 223.251 224.78 222.259 225.088 220.675L226.07 220.866C225.651 223.019 223.495 224.367 221.376 223.799L221.635 222.833ZM219.723 219.238C219.198 220.764 220.076 222.415 221.635 222.833L221.376 223.799C219.257 223.231 218.064 220.986 218.778 218.912L219.723 219.238ZM222.314 211.713L219.723 219.238L218.778 218.912L221.369 211.388L222.314 211.713ZM222.354 211.581C222.343 211.615 222.333 211.648 222.324 211.682L221.359 211.418C221.373 211.37 221.387 211.321 221.403 211.272L222.354 211.581Z" fill="black" fill-opacity="0.68" mask="url(#path-7-inside-4_38_70)"/>
<mask id="path-9-inside-5_38_70" fill="white">
<path fill-rule="evenodd" clip-rule="evenodd" d="M198.256 233.666C199.095 231.355 202.557 232.303 202.101 234.719L200.638 242.48C200.566 242.863 200.415 243.21 200.205 243.509C199.812 244.067 199.645 244.927 199.833 245.583C199.951 245.997 199.986 246.46 199.912 246.967C199.642 248.822 197.813 250.025 196.003 249.54C194.192 249.055 193.211 247.098 193.904 245.357C194.097 244.873 194.364 244.485 194.679 244.184C195.174 243.713 195.465 242.887 195.409 242.205C195.379 241.839 195.425 241.459 195.56 241.088L198.256 233.666Z"/>
</mask>
<path fill-rule="evenodd" clip-rule="evenodd" d="M198.256 233.666C199.095 231.355 202.557 232.303 202.101 234.719L200.638 242.48C200.566 242.863 200.415 243.21 200.205 243.509C199.812 244.067 199.645 244.927 199.833 245.583C199.951 245.997 199.986 246.46 199.912 246.967C199.642 248.822 197.813 250.025 196.003 249.54C194.192 249.055 193.211 247.098 193.904 245.357C194.097 244.873 194.364 244.485 194.679 244.184C195.174 243.713 195.465 242.887 195.409 242.205C195.379 241.839 195.425 241.459 195.56 241.088L198.256 233.666Z" fill="#00A3FF"/>
<path d="M202.101 234.719L202.592 234.812L202.101 234.719ZM198.256 233.666L197.786 233.495L197.786 233.495L198.256 233.666ZM200.638 242.48L200.147 242.387L200.147 242.387L200.638 242.48ZM199.912 246.967L199.417 246.895L199.417 246.895L199.912 246.967ZM193.904 245.357L193.439 245.172L193.439 245.172L193.904 245.357ZM195.56 241.088L196.03 241.259L196.03 241.259L195.56 241.088ZM194.679 244.184L194.335 243.822L194.679 244.184ZM195.409 242.205L195.907 242.164L195.409 242.205ZM199.833 245.583L199.352 245.721L199.833 245.583ZM201.61 234.626C201.951 232.814 199.356 232.103 198.726 233.836L197.786 233.495C198.835 230.606 203.162 231.791 202.592 234.812L201.61 234.626ZM200.147 242.387L201.61 234.626L202.592 234.812L201.129 242.572L200.147 242.387ZM199.796 243.221C199.965 242.98 200.088 242.699 200.147 242.387L201.129 242.572C201.044 243.027 200.864 243.441 200.614 243.796L199.796 243.221ZM199.417 246.895C199.481 246.454 199.45 246.063 199.352 245.721L200.313 245.446C200.452 245.931 200.49 246.466 200.407 247.039L199.417 246.895ZM196.132 249.057C197.654 249.465 199.19 248.453 199.417 246.895L200.407 247.039C200.093 249.19 197.973 250.585 195.873 250.023L196.132 249.057ZM194.369 245.542C193.786 247.005 194.611 248.649 196.132 249.057L195.873 250.023C193.774 249.46 192.635 247.192 193.439 245.172L194.369 245.542ZM195.024 244.546C194.764 244.794 194.536 245.122 194.369 245.542L193.439 245.172C193.657 244.625 193.964 244.175 194.335 243.822L195.024 244.546ZM196.03 241.259C195.92 241.561 195.883 241.868 195.907 242.164L194.91 242.247C194.874 241.809 194.93 241.357 195.09 240.918L196.03 241.259ZM198.726 233.836L196.03 241.259L195.09 240.918L197.786 233.495L198.726 233.836ZM194.335 243.822C194.712 243.462 194.955 242.788 194.91 242.247L195.907 242.164C195.975 242.985 195.637 243.963 195.024 244.546L194.335 243.822ZM200.614 243.796C200.302 244.241 200.17 244.945 200.313 245.446L199.352 245.721C199.119 244.909 199.323 243.894 199.796 243.221L200.614 243.796Z" fill="black" fill-opacity="0.68" mask="url(#path-9-inside-5_38_70)"/>
<mask id="path-11-inside-6_38_70" fill="white">
<path fill-rule="evenodd" clip-rule="evenodd" d="M151.167 240.91C152.007 238.599 155.468 239.547 155.012 241.963L153.549 249.724C153.477 250.107 153.326 250.455 153.116 250.753C152.723 251.312 152.556 252.171 152.744 252.828C152.862 253.241 152.897 253.704 152.823 254.211C152.553 256.066 150.725 257.27 148.914 256.784C147.103 256.299 146.122 254.343 146.815 252.601C147.008 252.118 147.275 251.729 147.591 251.428C148.086 250.957 148.376 250.131 148.32 249.45C148.29 249.083 148.336 248.703 148.471 248.333L151.167 240.91Z"/>
</mask>
<path fill-rule="evenodd" clip-rule="evenodd" d="M151.167 240.91C152.007 238.599 155.468 239.547 155.012 241.963L153.549 249.724C153.477 250.107 153.326 250.455 153.116 250.753C152.723 251.312 152.556 252.171 152.744 252.828C152.862 253.241 152.897 253.704 152.823 254.211C152.553 256.066 150.725 257.27 148.914 256.784C147.103 256.299 146.122 254.343 146.815 252.601C147.008 252.118 147.275 251.729 147.591 251.428C148.086 250.957 148.376 250.131 148.32 249.45C148.29 249.083 148.336 248.703 148.471 248.333L151.167 240.91Z" fill="#00A3FF"/>
<path d="M155.012 241.963L155.504 242.056L155.012 241.963ZM151.167 240.91L150.697 240.739L150.697 240.739L151.167 240.91ZM153.549 249.724L154.041 249.817L153.549 249.724ZM152.823 254.211L152.328 254.139L152.823 254.211ZM146.815 252.601L147.28 252.786L147.28 252.786L146.815 252.601ZM148.471 248.333L148.941 248.504L148.941 248.504L148.471 248.333ZM147.591 251.428L147.246 251.066L147.591 251.428ZM152.744 252.828L153.225 252.69L152.744 252.828ZM154.521 241.871C154.863 240.059 152.267 239.347 151.637 241.081L150.697 240.739C151.746 237.851 156.073 239.036 155.504 242.056L154.521 241.871ZM153.058 249.631L154.521 241.871L155.504 242.056L154.041 249.817L153.058 249.631ZM152.707 250.465C152.877 250.224 152.999 249.943 153.058 249.631L154.041 249.817C153.955 250.272 153.775 250.685 153.525 251.041L152.707 250.465ZM152.328 254.139C152.393 253.699 152.361 253.307 152.263 252.966L153.225 252.69C153.364 253.175 153.402 253.71 153.318 254.283L152.328 254.139ZM149.043 256.301C150.565 256.709 152.101 255.698 152.328 254.139L153.318 254.283C153.005 256.434 150.884 257.83 148.785 257.267L149.043 256.301ZM147.28 252.786C146.697 254.25 147.522 255.894 149.043 256.301L148.785 257.267C146.685 256.705 145.547 254.436 146.351 252.416L147.28 252.786ZM147.935 251.791C147.675 252.039 147.447 252.366 147.28 252.786L146.351 252.416C146.568 251.869 146.875 251.419 147.246 251.066L147.935 251.791ZM148.941 248.504C148.831 248.805 148.794 249.113 148.818 249.409L147.822 249.491C147.786 249.054 147.841 248.602 148.001 248.162L148.941 248.504ZM151.637 241.081L148.941 248.504L148.001 248.162L150.697 240.739L151.637 241.081ZM147.246 251.066C147.623 250.707 147.866 250.033 147.822 249.491L148.818 249.409C148.886 250.229 148.548 251.207 147.935 251.791L147.246 251.066ZM153.525 251.041C153.213 251.485 153.081 252.189 153.225 252.69L152.263 252.966C152.03 252.153 152.234 251.139 152.707 250.465L153.525 251.041Z" fill="black" fill-opacity="0.68" mask="url(#path-11-inside-6_38_70)"/>
<mask id="path-13-inside-7_38_70" fill="white">
<path fill-rule="evenodd" clip-rule="evenodd" d="M111.323 237.288C112.162 234.977 115.623 235.925 115.168 238.341L113.705 246.102C113.633 246.485 113.481 246.833 113.272 247.131C112.879 247.69 112.711 248.549 112.9 249.206C113.018 249.619 113.053 250.082 112.979 250.589C112.709 252.444 110.88 253.647 109.07 253.162C107.259 252.677 106.277 250.721 106.971 248.979C107.163 248.495 107.431 248.107 107.746 247.806C108.241 247.335 108.532 246.509 108.476 245.828C108.445 245.461 108.492 245.081 108.626 244.711L111.323 237.288Z"/>
</mask>
<path fill-rule="evenodd" clip-rule="evenodd" d="M111.323 237.288C112.162 234.977 115.623 235.925 115.168 238.341L113.705 246.102C113.633 246.485 113.481 246.833 113.272 247.131C112.879 247.69 112.711 248.549 112.9 249.206C113.018 249.619 113.053 250.082 112.979 250.589C112.709 252.444 110.88 253.647 109.07 253.162C107.259 252.677 106.277 250.721 106.971 248.979C107.163 248.495 107.431 248.107 107.746 247.806C108.241 247.335 108.532 246.509 108.476 245.828C108.445 245.461 108.492 245.081 108.626 244.711L111.323 237.288Z" fill="#00A3FF"/>
<path d="M115.168 238.341L115.659 238.434L115.168 238.341ZM111.323 237.288L110.853 237.117L110.853 237.117L111.323 237.288ZM113.705 246.102L113.214 246.009L113.214 246.009L113.705 246.102ZM112.979 250.589L112.484 250.517L112.484 250.517L112.979 250.589ZM106.971 248.979L106.506 248.794L106.506 248.794L106.971 248.979ZM108.626 244.711L109.096 244.881L109.096 244.881L108.626 244.711ZM113.272 247.131L113.681 247.418L113.272 247.131ZM112.9 249.206L113.38 249.068L112.9 249.206ZM114.677 238.249C115.018 236.436 112.422 235.725 111.793 237.459L110.853 237.117C111.902 234.228 116.229 235.413 115.659 238.434L114.677 238.249ZM113.214 246.009L114.677 238.249L115.659 238.434L114.196 246.194L113.214 246.009ZM112.863 246.843C113.032 246.602 113.155 246.321 113.214 246.009L114.196 246.194C114.111 246.649 113.931 247.063 113.681 247.418L112.863 246.843ZM112.484 250.517C112.548 250.076 112.517 249.685 112.419 249.343L113.38 249.068C113.519 249.553 113.557 250.088 113.474 250.661L112.484 250.517ZM109.199 252.679C110.721 253.087 112.257 252.076 112.484 250.517L113.474 250.661C113.16 252.812 111.04 254.208 108.94 253.645L109.199 252.679ZM107.435 249.164C106.853 250.628 107.678 252.272 109.199 252.679L108.94 253.645C106.841 253.083 105.702 250.814 106.506 248.794L107.435 249.164ZM108.091 248.168C107.83 248.417 107.603 248.744 107.435 249.164L106.506 248.794C106.724 248.247 107.031 247.797 107.401 247.444L108.091 248.168ZM109.096 244.881C108.987 245.183 108.949 245.49 108.974 245.787L107.977 245.869C107.941 245.432 107.997 244.98 108.156 244.54L109.096 244.881ZM111.793 237.459L109.096 244.881L108.156 244.54L110.853 237.117L111.793 237.459ZM107.401 247.444C107.779 247.085 108.022 246.41 107.977 245.869L108.974 245.787C109.041 246.607 108.703 247.585 108.091 248.168L107.401 247.444ZM113.681 247.418C113.368 247.863 113.237 248.567 113.38 249.068L112.419 249.343C112.186 248.531 112.389 247.516 112.863 246.843L113.681 247.418Z" fill="black" fill-opacity="0.68" mask="url(#path-13-inside-7_38_70)"/>
<ellipse cx="82.5" cy="135.022" rx="81.5" ry="76.0667" fill="white"/>
<ellipse cx="165.811" cy="135.022" rx="81.5" ry="76.0667" fill="white"/>
<ellipse cx="245.5" cy="135.022" rx="81.5" ry="76.0667" fill="white"/>
<ellipse cx="133.211" cy="77.0667" rx="81.5" ry="76.0667" fill="white"/>
<ellipse cx="212.9" cy="102.422" rx="81.5" ry="76.0667" fill="white"/>
<mask id="path-20-outside-8_38_70" maskUnits="userSpaceOnUse" x="0" y="0" width="328" height="213" fill="black">
<rect fill="white" width="328" height="213"/>
<path fill-rule="evenodd" clip-rule="evenodd" d="M52.8843 64.1336C59.4634 28.2834 92.9235 1 133.211 1C158.229 1 180.613 11.5206 195.563 28.0802C201.15 26.9505 206.951 26.3556 212.9 26.3556C245.104 26.3556 272.945 43.7886 286.182 69.0952C310.58 82.2384 327 106.841 327 135.022C327 177.033 290.511 211.089 245.5 211.089C231.028 211.089 217.436 207.568 205.656 201.394C193.875 207.568 180.284 211.089 165.811 211.089C150.591 211.089 136.346 207.195 124.156 200.416C111.966 207.195 97.72 211.089 82.5 211.089C37.4888 211.089 1 177.033 1 135.022C1 102.763 22.5157 75.1938 52.8843 64.1336Z"/>
</mask>
<path fill-rule="evenodd" clip-rule="evenodd" d="M52.8843 64.1336C59.4634 28.2834 92.9235 1 133.211 1C158.229 1 180.613 11.5206 195.563 28.0802C201.15 26.9505 206.951 26.3556 212.9 26.3556C245.104 26.3556 272.945 43.7886 286.182 69.0952C310.58 82.2384 327 106.841 327 135.022C327 177.033 290.511 211.089 245.5 211.089C231.028 211.089 217.436 207.568 205.656 201.394C193.875 207.568 180.284 211.089 165.811 211.089C150.591 211.089 136.346 207.195 124.156 200.416C111.966 207.195 97.72 211.089 82.5 211.089C37.4888 211.089 1 177.033 1 135.022C1 102.763 22.5157 75.1938 52.8843 64.1336Z" fill="white"/>
<path d="M52.8843 64.1336L53.2265 65.0732L53.7645 64.8773L53.8679 64.3141L52.8843 64.1336ZM195.563 28.0802L194.821 28.7503L195.203 29.1733L195.762 29.0603L195.563 28.0802ZM286.182 69.0952L285.296 69.5587L285.438 69.8302L285.708 69.9756L286.182 69.0952ZM205.656 201.394L206.12 200.509L205.656 200.265L205.191 200.509L205.656 201.394ZM124.156 200.416L124.642 199.542L124.156 199.272L123.67 199.542L124.156 200.416ZM133.211 0C92.4816 0 58.5741 27.5891 51.9007 63.9531L53.8679 64.3141C60.3527 28.9777 93.3653 2 133.211 2V0ZM196.306 27.41C181.165 10.6398 158.511 0 133.211 0V2C157.946 2 180.061 12.4014 194.821 28.7503L196.306 27.41ZM212.9 25.3556C206.884 25.3556 201.017 25.9572 195.365 27.1L195.762 29.0603C201.283 27.9438 207.017 27.3556 212.9 27.3556V25.3556ZM287.068 68.6317C273.653 42.9848 245.464 25.3556 212.9 25.3556V27.3556C244.744 27.3556 272.237 44.5925 285.296 69.5587L287.068 68.6317ZM285.708 69.9756C309.817 82.9635 326 107.247 326 135.022H328C328 106.434 311.342 81.5133 286.656 68.2148L285.708 69.9756ZM326 135.022C326 176.417 290.025 210.089 245.5 210.089V212.089C290.997 212.089 328 177.649 328 135.022H326ZM245.5 210.089C231.191 210.089 217.759 206.608 206.12 200.509L205.191 202.28C217.114 208.528 230.864 212.089 245.5 212.089V210.089ZM165.811 212.089C180.447 212.089 194.197 208.528 206.12 202.28L205.191 200.509C193.553 206.608 180.12 210.089 165.811 210.089V212.089ZM123.67 201.29C136.007 208.151 150.419 212.089 165.811 212.089V210.089C150.763 210.089 136.684 206.239 124.642 199.542L123.67 201.29ZM82.5 212.089C97.8917 212.089 112.304 208.151 124.642 201.29L123.67 199.542C111.627 206.239 97.5484 210.089 82.5 210.089V212.089ZM0 135.022C0 177.649 37.0026 212.089 82.5 212.089V210.089C37.975 210.089 2 176.417 2 135.022H0ZM52.5421 63.1939C21.8252 74.381 0 102.295 0 135.022H2C2 103.231 23.2062 76.0066 53.2265 65.0732L52.5421 63.1939Z" fill="black" mask="url(#path-20-outside-8_38_70)"/>
<path d="M133.211 153.633C178.465 153.633 215.211 119.385 215.211 77.0667C215.211 34.7481 178.465 0.499985 133.211 0.499985C87.9568 0.499985 51.2111 34.7481 51.2111 77.0667C51.2111 119.385 87.9568 153.633 133.211 153.633Z" fill="white" stroke="url(#paint0_linear_38_70)"/>
<path d="M82.5 211.589C127.754 211.589 164.5 177.341 164.5 135.022C164.5 92.7037 127.754 58.4555 82.5 58.4555C37.2457 58.4555 0.5 92.7037 0.5 135.022C0.5 177.341 37.2457 211.589 82.5 211.589Z" fill="white" stroke="url(#paint1_linear_38_70)"/>
<path d="M165.811 211.589C211.065 211.589 247.811 177.341 247.811 135.022C247.811 92.7037 211.065 58.4555 165.811 58.4555C120.557 58.4555 83.8112 92.7037 83.8112 135.022C83.8112 177.341 120.557 211.589 165.811 211.589Z" fill="white" stroke="url(#paint2_linear_38_70)"/>
<ellipse cx="245.5" cy="135.022" rx="81.5" ry="76.0667" fill="white"/>
<path d="M245.5 211.589C290.754 211.589 327.5 177.341 327.5 135.022C327.5 92.7037 290.754 58.4555 245.5 58.4555C200.246 58.4555 163.5 92.7037 163.5 135.022C163.5 177.341 200.246 211.589 245.5 211.589Z" stroke="url(#paint3_linear_38_70)" stroke-opacity="0.88"/>
<defs>
<linearGradient id="paint0_linear_38_70" x1="33.5999" y1="19.1111" x2="234.633" y2="24.5444" gradientUnits="userSpaceOnUse">
<stop/>
<stop offset="1" stop-opacity="0"/>
</linearGradient>
<linearGradient id="paint1_linear_38_70" x1="1" y1="169.433" x2="145.889" y2="165.811" gradientUnits="userSpaceOnUse">
<stop stop-opacity="0.54"/>
<stop offset="0.884367" stop-opacity="0"/>
</linearGradient>
<linearGradient id="paint2_linear_38_70" x1="225.578" y1="211.089" x2="164" y2="95.1778" gradientUnits="userSpaceOnUse">
<stop stop-opacity="0.3"/>
<stop offset="1" stop-opacity="0"/>
</linearGradient>
<linearGradient id="paint3_linear_38_70" x1="327" y1="158.567" x2="322.706" y2="169.866" gradientUnits="userSpaceOnUse">
<stop stop-opacity="0.35"/>
<stop offset="1" stop-opacity="0"/>
</linearGradient>
</defs>
</svg>
