<svg width="328" height="323" viewBox="0 0 328 323" fill="none" xmlns="http://www.w3.org/2000/svg">
<mask id="path-1-inside-1_38_262" fill="white">
<path fill-rule="evenodd" clip-rule="evenodd" d="M107.7 269.888C108.54 267.577 112.001 268.525 111.546 270.941L110.083 278.702C110.01 279.085 109.859 279.433 109.649 279.731C109.257 280.29 109.089 281.149 109.277 281.806C109.396 282.219 109.43 282.682 109.357 283.189C109.086 285.044 107.258 286.247 105.447 285.762C103.637 285.277 102.655 283.321 103.348 281.579C103.541 281.095 103.808 280.707 104.124 280.406C104.619 279.935 104.909 279.109 104.853 278.428C104.823 278.061 104.87 277.681 105.004 277.311L107.7 269.888Z"/>
</mask>
<path fill-rule="evenodd" clip-rule="evenodd" d="M107.7 269.888C108.54 267.577 112.001 268.525 111.546 270.941L110.083 278.702C110.01 279.085 109.859 279.433 109.649 279.731C109.257 280.29 109.089 281.149 109.277 281.806C109.396 282.219 109.43 282.682 109.357 283.189C109.086 285.044 107.258 286.247 105.447 285.762C103.637 285.277 102.655 283.321 103.348 281.579C103.541 281.095 103.808 280.707 104.124 280.406C104.619 279.935 104.909 279.109 104.853 278.428C104.823 278.061 104.87 277.681 105.004 277.311L107.7 269.888Z" fill="#00A3FF"/>
<path d="M111.546 270.941L111.054 270.849L111.054 270.849L111.546 270.941ZM107.7 269.888L108.17 270.059L108.17 270.059L107.7 269.888ZM110.083 278.702L110.574 278.794L110.574 278.794L110.083 278.702ZM109.357 283.189L109.851 283.261L109.357 283.189ZM103.348 281.579L102.884 281.394L102.884 281.394L103.348 281.579ZM105.004 277.311L105.474 277.481L105.474 277.481L105.004 277.311ZM104.853 278.428L105.352 278.387L104.853 278.428ZM111.054 270.849C111.396 269.036 108.8 268.325 108.17 270.059L107.23 269.717C108.28 266.828 112.606 268.013 112.037 271.034L111.054 270.849ZM109.591 278.609L111.054 270.849L112.037 271.034L110.574 278.794L109.591 278.609ZM109.24 279.443C109.41 279.202 109.532 278.921 109.591 278.609L110.574 278.794C110.488 279.249 110.308 279.663 110.059 280.018L109.24 279.443ZM108.862 283.117C108.926 282.676 108.894 282.285 108.797 281.943L109.758 281.668C109.897 282.153 109.935 282.688 109.851 283.261L108.862 283.117ZM105.577 285.279C107.098 285.687 108.635 284.676 108.862 283.117L109.851 283.261C109.538 285.412 107.418 286.808 105.318 286.245L105.577 285.279ZM103.813 281.764C103.23 283.228 104.055 284.872 105.577 285.279L105.318 286.245C103.218 285.683 102.08 283.414 102.884 281.394L103.813 281.764ZM104.469 280.768C104.208 281.017 103.98 281.344 103.813 281.764L102.884 281.394C103.102 280.847 103.408 280.397 103.779 280.044L104.469 280.768ZM105.474 277.481C105.365 277.783 105.327 278.09 105.352 278.387L104.355 278.469C104.319 278.032 104.374 277.58 104.534 277.14L105.474 277.481ZM108.17 270.059L105.474 277.481L104.534 277.14L107.23 269.717L108.17 270.059ZM103.779 280.044C104.157 279.685 104.4 279.01 104.355 278.469L105.352 278.387C105.419 279.207 105.081 280.185 104.469 280.768L103.779 280.044ZM110.059 280.018C109.746 280.463 109.614 281.167 109.758 281.668L108.797 281.943C108.564 281.131 108.767 280.116 109.24 279.443L110.059 280.018Z" fill="black" fill-opacity="0.68" mask="url(#path-1-inside-1_38_262)"/>
<mask id="path-3-inside-2_38_262" fill="white">
<path fill-rule="evenodd" clip-rule="evenodd" d="M122.085 306.327C122.928 304.022 126.38 304.968 125.93 307.38L124.526 314.898C124.455 315.281 124.305 315.628 124.097 315.925C123.72 316.463 123.566 317.265 123.746 317.896C123.864 318.305 123.899 318.764 123.827 319.266C123.562 321.12 121.737 322.326 119.928 321.841C118.119 321.356 117.14 319.399 117.838 317.662C118.03 317.183 118.296 316.798 118.609 316.5C119.085 316.047 119.358 315.277 119.306 314.623C119.277 314.257 119.324 313.879 119.459 313.51L122.085 306.327Z"/>
</mask>
<path fill-rule="evenodd" clip-rule="evenodd" d="M122.085 306.327C122.928 304.022 126.38 304.968 125.93 307.38L124.526 314.898C124.455 315.281 124.305 315.628 124.097 315.925C123.72 316.463 123.566 317.265 123.746 317.896C123.864 318.305 123.899 318.764 123.827 319.266C123.562 321.12 121.737 322.326 119.928 321.841C118.119 321.356 117.14 319.399 117.838 317.662C118.03 317.183 118.296 316.798 118.609 316.5C119.085 316.047 119.358 315.277 119.306 314.623C119.277 314.257 119.324 313.879 119.459 313.51L122.085 306.327Z" fill="#00A3FF"/>
<path d="M125.93 307.38L126.421 307.472L125.93 307.38ZM122.085 306.327L122.555 306.498L122.555 306.498L122.085 306.327ZM124.526 314.898L125.018 314.99L125.018 314.99L124.526 314.898ZM123.827 319.266L124.322 319.337L124.322 319.337L123.827 319.266ZM117.838 317.662L117.374 317.475L117.374 317.475L117.838 317.662ZM119.459 313.51L118.989 313.338L118.989 313.338L119.459 313.51ZM118.609 316.5L118.954 316.862L118.609 316.5ZM124.097 315.925L124.506 316.212L124.097 315.925ZM123.746 317.896L124.227 317.758L123.746 317.896ZM125.438 307.289C125.776 305.479 123.187 304.77 122.555 306.498L121.615 306.155C122.669 303.274 126.984 304.457 126.421 307.472L125.438 307.289ZM124.035 314.807L125.438 307.289L126.421 307.472L125.018 314.99L124.035 314.807ZM123.687 315.639C123.855 315.398 123.977 315.118 124.035 314.807L125.018 314.99C124.933 315.444 124.755 315.857 124.506 316.212L123.687 315.639ZM123.332 319.196C123.394 318.76 123.363 318.372 123.266 318.034L124.227 317.758C124.365 318.239 124.403 318.769 124.322 319.337L123.332 319.196ZM120.057 321.358C121.576 321.765 123.11 320.753 123.332 319.196L124.322 319.337C124.015 321.488 121.897 322.886 119.798 322.324L120.057 321.358ZM118.302 317.848C117.716 319.307 118.538 320.951 120.057 321.358L119.798 322.324C117.7 321.762 116.565 319.492 117.374 317.475L118.302 317.848ZM118.954 316.862C118.695 317.108 118.469 317.432 118.302 317.848L117.374 317.475C117.592 316.934 117.897 316.488 118.265 316.137L118.954 316.862ZM119.928 313.681C119.819 313.982 119.781 314.288 119.804 314.583L118.807 314.662C118.773 314.226 118.829 313.776 118.989 313.338L119.928 313.681ZM122.555 306.498L119.928 313.681L118.989 313.338L121.615 306.155L122.555 306.498ZM118.265 316.137C118.624 315.796 118.848 315.177 118.807 314.662L119.804 314.583C119.868 315.377 119.546 316.298 118.954 316.862L118.265 316.137ZM124.506 316.212C124.21 316.635 124.091 317.282 124.227 317.758L123.266 318.034C123.041 317.248 123.23 316.291 123.687 315.639L124.506 316.212Z" fill="black" fill-opacity="0.68" mask="url(#path-3-inside-2_38_262)"/>
<mask id="path-5-inside-3_38_262" fill="white">
<path fill-rule="evenodd" clip-rule="evenodd" d="M64.2337 269.888C65.0732 267.577 68.5345 268.525 68.079 270.941L66.616 278.702C66.5437 279.085 66.3925 279.433 66.1828 279.731C65.7899 280.29 65.6224 281.149 65.8106 281.806C65.929 282.219 65.9637 282.682 65.8898 283.189C65.6195 285.044 63.7912 286.247 61.9807 285.762C60.1701 285.277 59.1885 283.321 59.8818 281.579C60.0744 281.095 60.3416 280.707 60.6573 280.406C61.1522 279.935 61.4427 279.109 61.3866 278.428C61.3564 278.061 61.4028 277.681 61.5375 277.311L64.2337 269.888Z"/>
</mask>
<path fill-rule="evenodd" clip-rule="evenodd" d="M64.2337 269.888C65.0732 267.577 68.5345 268.525 68.079 270.941L66.616 278.702C66.5437 279.085 66.3925 279.433 66.1828 279.731C65.7899 280.29 65.6224 281.149 65.8106 281.806C65.929 282.219 65.9637 282.682 65.8898 283.189C65.6195 285.044 63.7912 286.247 61.9807 285.762C60.1701 285.277 59.1885 283.321 59.8818 281.579C60.0744 281.095 60.3416 280.707 60.6573 280.406C61.1522 279.935 61.4427 279.109 61.3866 278.428C61.3564 278.061 61.4028 277.681 61.5375 277.311L64.2337 269.888Z" fill="#00A3FF"/>
<path d="M68.079 270.941L67.5876 270.849L67.5876 270.849L68.079 270.941ZM64.2337 269.888L63.7638 269.717L63.7638 269.717L64.2337 269.888ZM66.616 278.702L67.1073 278.794L67.1073 278.794L66.616 278.702ZM65.8898 283.189L66.3846 283.261L65.8898 283.189ZM59.8818 281.579L60.3463 281.764L60.3463 281.764L59.8818 281.579ZM61.5375 277.311L62.0074 277.481L62.0074 277.481L61.5375 277.311ZM60.6573 280.406L61.0021 280.768L60.6573 280.406ZM67.5876 270.849C67.9292 269.036 65.3333 268.325 64.7037 270.059L63.7638 269.717C64.8132 266.828 69.1397 268.013 68.5703 271.034L67.5876 270.849ZM66.1246 278.609L67.5876 270.849L68.5703 271.034L67.1073 278.794L66.1246 278.609ZM65.7738 279.443C65.9432 279.202 66.0658 278.921 66.1246 278.609L67.1073 278.794C67.0215 279.249 66.8418 279.663 66.5919 280.018L65.7738 279.443ZM65.3951 283.117C65.4593 282.676 65.4278 282.285 65.3299 281.943L66.2912 281.668C66.4302 282.153 66.4682 282.688 66.3846 283.261L65.3951 283.117ZM62.1101 285.279C63.6315 285.687 65.1679 284.676 65.3951 283.117L66.3846 283.261C66.0712 285.412 63.9509 286.808 61.8512 286.245L62.1101 285.279ZM60.3463 281.764C59.7637 283.228 60.5886 284.872 62.1101 285.279L61.8512 286.245C59.7516 285.683 58.6132 283.414 59.4173 281.394L60.3463 281.764ZM61.0021 280.768C60.7414 281.017 60.5137 281.344 60.3463 281.764L59.4173 281.394C59.6351 280.847 59.9418 280.397 60.3125 280.044L61.0021 280.768ZM62.0074 277.481C61.8979 277.783 61.8605 278.09 61.8849 278.387L60.8883 278.469C60.8523 278.032 60.9078 277.58 61.0675 277.14L62.0074 277.481ZM64.7037 270.059L62.0074 277.481L61.0675 277.14L63.7638 269.717L64.7037 270.059ZM60.3125 280.044C60.6899 279.685 60.9329 279.01 60.8883 278.469L61.8849 278.387C61.9525 279.207 61.6144 280.185 61.0021 280.768L60.3125 280.044ZM66.5919 280.018C66.2794 280.463 66.1477 281.167 66.2912 281.668L65.3299 281.943C65.0971 281.131 65.3005 280.116 65.7738 279.443L66.5919 280.018Z" fill="black" fill-opacity="0.68" mask="url(#path-5-inside-3_38_262)"/>
<mask id="path-7-inside-4_38_262" fill="white">
<path fill-rule="evenodd" clip-rule="evenodd" d="M154.789 277.132C155.629 274.821 159.09 275.769 158.634 278.186L157.171 285.946C157.099 286.33 156.948 286.677 156.738 286.975C156.345 287.534 156.178 288.393 156.366 289.05C156.485 289.463 156.519 289.927 156.445 290.433C156.175 292.288 154.347 293.492 152.536 293.007C150.726 292.521 149.744 290.565 150.437 288.824C150.63 288.34 150.897 287.951 151.213 287.651C151.708 287.179 151.998 286.353 151.942 285.672C151.912 285.305 151.958 284.926 152.093 284.555L154.789 277.132Z"/>
</mask>
<path fill-rule="evenodd" clip-rule="evenodd" d="M154.789 277.132C155.629 274.821 159.09 275.769 158.634 278.186L157.171 285.946C157.099 286.33 156.948 286.677 156.738 286.975C156.345 287.534 156.178 288.393 156.366 289.05C156.485 289.463 156.519 289.927 156.445 290.433C156.175 292.288 154.347 293.492 152.536 293.007C150.726 292.521 149.744 290.565 150.437 288.824C150.63 288.34 150.897 287.951 151.213 287.651C151.708 287.179 151.998 286.353 151.942 285.672C151.912 285.305 151.958 284.926 152.093 284.555L154.789 277.132Z" fill="#00A3FF"/>
<path d="M158.634 278.186L158.143 278.093L158.143 278.093L158.634 278.186ZM154.789 277.132L154.319 276.962L154.319 276.962L154.789 277.132ZM157.171 285.946L157.663 286.039L157.663 286.039L157.171 285.946ZM156.445 290.433L155.951 290.361L155.951 290.361L156.445 290.433ZM150.437 288.824L150.902 289.009L150.902 289.009L150.437 288.824ZM152.093 284.555L151.623 284.384L151.623 284.384L152.093 284.555ZM151.942 285.672L152.44 285.631L151.942 285.672ZM156.366 289.05L156.847 288.912L156.366 289.05ZM158.143 278.093C158.485 276.281 155.889 275.57 155.259 277.303L154.319 276.962C155.369 274.073 159.695 275.258 159.126 278.278L158.143 278.093ZM156.68 285.854L158.143 278.093L159.126 278.278L157.663 286.039L156.68 285.854ZM156.329 286.688C156.499 286.447 156.621 286.166 156.68 285.854L157.663 286.039C157.577 286.494 157.397 286.907 157.147 287.263L156.329 286.688ZM155.951 290.361C156.015 289.921 155.983 289.529 155.885 289.188L156.847 288.912C156.986 289.397 157.024 289.932 156.94 290.506L155.951 290.361ZM152.666 292.524C154.187 292.931 155.723 291.92 155.951 290.361L156.94 290.506C156.627 292.657 154.506 294.052 152.407 293.49L152.666 292.524ZM150.902 289.009C150.319 290.472 151.144 292.116 152.666 292.524L152.407 293.49C150.307 292.927 149.169 290.658 149.973 288.639L150.902 289.009ZM151.558 288.013C151.297 288.261 151.069 288.588 150.902 289.009L149.973 288.639C150.191 288.092 150.497 287.641 150.868 287.289L151.558 288.013ZM152.563 284.726C152.453 285.027 152.416 285.335 152.44 285.631L151.444 285.713C151.408 285.276 151.463 284.824 151.623 284.384L152.563 284.726ZM155.259 277.303L152.563 284.726L151.623 284.384L154.319 276.962L155.259 277.303ZM150.868 287.289C151.245 286.929 151.488 286.255 151.444 285.713L152.44 285.631C152.508 286.452 152.17 287.43 151.558 288.013L150.868 287.289ZM157.147 287.263C156.835 287.707 156.703 288.412 156.847 288.912L155.885 289.188C155.653 288.375 155.856 287.361 156.329 286.688L157.147 287.263Z" fill="black" fill-opacity="0.68" mask="url(#path-7-inside-4_38_262)"/>
<mask id="path-9-inside-5_38_262" fill="white">
<path fill-rule="evenodd" clip-rule="evenodd" d="M201.878 277.132C202.718 274.821 206.179 275.769 205.723 278.186L204.26 285.946C204.188 286.33 204.037 286.677 203.827 286.975C203.434 287.534 203.267 288.393 203.455 289.05C203.573 289.463 203.608 289.927 203.534 290.433C203.264 292.288 201.436 293.492 199.625 293.007C197.815 292.521 196.833 290.565 197.526 288.824C197.719 288.34 197.986 287.951 198.302 287.651C198.797 287.179 199.087 286.353 199.031 285.672C199.001 285.305 199.047 284.926 199.182 284.555L201.878 277.132Z"/>
</mask>
<path fill-rule="evenodd" clip-rule="evenodd" d="M201.878 277.132C202.718 274.821 206.179 275.769 205.723 278.186L204.26 285.946C204.188 286.33 204.037 286.677 203.827 286.975C203.434 287.534 203.267 288.393 203.455 289.05C203.573 289.463 203.608 289.927 203.534 290.433C203.264 292.288 201.436 293.492 199.625 293.007C197.815 292.521 196.833 290.565 197.526 288.824C197.719 288.34 197.986 287.951 198.302 287.651C198.797 287.179 199.087 286.353 199.031 285.672C199.001 285.305 199.047 284.926 199.182 284.555L201.878 277.132Z" fill="#00A3FF"/>
<path d="M205.723 278.186L206.215 278.278L206.215 278.278L205.723 278.186ZM201.878 277.132L202.348 277.303L202.348 277.303L201.878 277.132ZM204.26 285.946L204.752 286.039L204.752 286.039L204.26 285.946ZM203.534 290.433L204.029 290.506L203.534 290.433ZM197.526 288.824L197.062 288.639L197.062 288.639L197.526 288.824ZM199.182 284.555L199.652 284.726L199.652 284.726L199.182 284.555ZM198.302 287.651L198.646 288.013L198.302 287.651ZM199.031 285.672L199.529 285.631L199.031 285.672ZM203.455 289.05L203.936 288.912L203.455 289.05ZM205.232 278.093C205.574 276.281 202.978 275.57 202.348 277.303L201.408 276.962C202.458 274.073 206.784 275.258 206.215 278.278L205.232 278.093ZM203.769 285.854L205.232 278.093L206.215 278.278L204.752 286.039L203.769 285.854ZM203.418 286.688C203.588 286.447 203.71 286.166 203.769 285.854L204.752 286.039C204.666 286.494 204.486 286.907 204.236 287.263L203.418 286.688ZM203.039 290.361C203.104 289.921 203.072 289.529 202.974 289.188L203.936 288.912C204.075 289.397 204.113 289.932 204.029 290.506L203.039 290.361ZM199.754 292.524C201.276 292.931 202.812 291.92 203.039 290.361L204.029 290.506C203.716 292.657 201.595 294.052 199.496 293.49L199.754 292.524ZM197.991 289.009C197.408 290.472 198.233 292.116 199.754 292.524L199.496 293.49C197.396 292.927 196.258 290.658 197.062 288.639L197.991 289.009ZM198.646 288.013C198.386 288.261 198.158 288.588 197.991 289.009L197.062 288.639C197.279 288.092 197.586 287.641 197.957 287.289L198.646 288.013ZM199.652 284.726C199.542 285.027 199.505 285.335 199.529 285.631L198.533 285.713C198.497 285.276 198.552 284.824 198.712 284.384L199.652 284.726ZM202.348 277.303L199.652 284.726L198.712 284.384L201.408 276.962L202.348 277.303ZM197.957 287.289C198.334 286.929 198.577 286.255 198.533 285.713L199.529 285.631C199.597 286.452 199.259 287.43 198.646 288.013L197.957 287.289ZM204.236 287.263C203.924 287.707 203.792 288.412 203.936 288.912L202.974 289.188C202.741 288.375 202.945 287.361 203.418 286.688L204.236 287.263Z" fill="black" fill-opacity="0.68" mask="url(#path-9-inside-5_38_262)"/>
<mask id="path-11-inside-6_38_262" fill="white">
<path fill-rule="evenodd" clip-rule="evenodd" d="M238.1 269.888C238.94 267.577 242.401 268.525 241.946 270.941L240.483 278.702C240.41 279.085 240.259 279.433 240.05 279.731C239.657 280.29 239.489 281.149 239.677 281.806C239.796 282.219 239.83 282.682 239.757 283.189C239.486 285.044 237.658 286.247 235.847 285.762C234.037 285.277 233.055 283.321 233.748 281.579C233.941 281.095 234.208 280.707 234.524 280.406C235.019 279.935 235.309 279.109 235.253 278.428C235.223 278.061 235.27 277.681 235.404 277.311L238.1 269.888Z"/>
</mask>
<path fill-rule="evenodd" clip-rule="evenodd" d="M238.1 269.888C238.94 267.577 242.401 268.525 241.946 270.941L240.483 278.702C240.41 279.085 240.259 279.433 240.05 279.731C239.657 280.29 239.489 281.149 239.677 281.806C239.796 282.219 239.83 282.682 239.757 283.189C239.486 285.044 237.658 286.247 235.847 285.762C234.037 285.277 233.055 283.321 233.748 281.579C233.941 281.095 234.208 280.707 234.524 280.406C235.019 279.935 235.309 279.109 235.253 278.428C235.223 278.061 235.27 277.681 235.404 277.311L238.1 269.888Z" fill="#00A3FF"/>
<path d="M241.946 270.941L242.437 271.034L242.437 271.034L241.946 270.941ZM238.1 269.888L237.63 269.717L237.63 269.717L238.1 269.888ZM240.483 278.702L240.974 278.794L240.974 278.794L240.483 278.702ZM239.757 283.189L239.262 283.117L239.262 283.117L239.757 283.189ZM233.748 281.579L234.213 281.764L234.213 281.764L233.748 281.579ZM235.404 277.311L235.874 277.481L235.874 277.481L235.404 277.311ZM241.454 270.849C241.796 269.036 239.2 268.325 238.57 270.059L237.63 269.717C238.68 266.828 243.006 268.013 242.437 271.034L241.454 270.849ZM239.991 278.609L241.454 270.849L242.437 271.034L240.974 278.794L239.991 278.609ZM239.64 279.443C239.81 279.202 239.932 278.921 239.991 278.609L240.974 278.794C240.888 279.249 240.708 279.663 240.459 280.018L239.64 279.443ZM239.262 283.117C239.326 282.676 239.294 282.285 239.197 281.943L240.158 281.668C240.297 282.153 240.335 282.688 240.251 283.261L239.262 283.117ZM235.977 285.279C237.498 285.687 239.035 284.676 239.262 283.117L240.251 283.261C239.938 285.412 237.818 286.808 235.718 286.245L235.977 285.279ZM234.213 281.764C233.63 283.228 234.455 284.872 235.977 285.279L235.718 286.245C233.618 285.683 232.48 283.414 233.284 281.394L234.213 281.764ZM234.869 280.768C234.608 281.017 234.38 281.344 234.213 281.764L233.284 281.394C233.502 280.847 233.809 280.397 234.179 280.044L234.869 280.768ZM235.874 277.481C235.765 277.783 235.727 278.09 235.752 278.387L234.755 278.469C234.719 278.032 234.775 277.58 234.934 277.14L235.874 277.481ZM238.57 270.059L235.874 277.481L234.934 277.14L237.63 269.717L238.57 270.059ZM234.179 280.044C234.557 279.685 234.8 279.01 234.755 278.469L235.752 278.387C235.819 279.207 235.481 280.185 234.869 280.768L234.179 280.044ZM240.459 280.018C240.146 280.463 240.014 281.167 240.158 281.668L239.197 281.943C238.964 281.131 239.167 280.116 239.64 279.443L240.459 280.018Z" fill="black" fill-opacity="0.68" mask="url(#path-11-inside-6_38_262)"/>
<mask id="path-13-inside-7_38_262" fill="white">
<path fill-rule="evenodd" clip-rule="evenodd" d="M82.3448 291.621C83.1843 289.31 86.6455 290.258 86.19 292.675L84.727 300.435C84.6548 300.819 84.5036 301.166 84.2939 301.464C83.901 302.023 83.7335 302.882 83.9217 303.539C84.0401 303.952 84.0748 304.415 84.0009 304.922C83.7306 306.777 81.9023 307.981 80.0917 307.495C78.2812 307.01 77.2995 305.054 77.9929 303.312C78.1855 302.829 78.4527 302.44 78.7684 302.14C79.2633 301.668 79.5538 300.842 79.4977 300.161C79.4675 299.794 79.5139 299.415 79.6485 299.044L82.3448 291.621Z"/>
</mask>
<path fill-rule="evenodd" clip-rule="evenodd" d="M82.3448 291.621C83.1843 289.31 86.6455 290.258 86.19 292.675L84.727 300.435C84.6548 300.819 84.5036 301.166 84.2939 301.464C83.901 302.023 83.7335 302.882 83.9217 303.539C84.0401 303.952 84.0748 304.415 84.0009 304.922C83.7306 306.777 81.9023 307.981 80.0917 307.495C78.2812 307.01 77.2995 305.054 77.9929 303.312C78.1855 302.829 78.4527 302.44 78.7684 302.14C79.2633 301.668 79.5538 300.842 79.4977 300.161C79.4675 299.794 79.5139 299.415 79.6485 299.044L82.3448 291.621Z" fill="#00A3FF"/>
<path d="M86.19 292.675L85.6987 292.582L85.6987 292.582L86.19 292.675ZM82.3448 291.621L81.8749 291.451L81.8749 291.451L82.3448 291.621ZM84.727 300.435L85.2184 300.528L85.2184 300.528L84.727 300.435ZM84.0009 304.922L84.4957 304.994L84.0009 304.922ZM77.9929 303.312L78.4574 303.497L77.9929 303.312ZM79.6485 299.044L79.1786 298.873L79.1786 298.873L79.6485 299.044ZM78.7684 302.14L79.1132 302.502L78.7684 302.14ZM85.6987 292.582C86.0403 290.77 83.4444 290.059 82.8148 291.792L81.8749 291.451C82.9242 288.562 87.2508 289.747 86.6814 292.767L85.6987 292.582ZM84.2357 300.343L85.6987 292.582L86.6814 292.767L85.2184 300.528L84.2357 300.343ZM83.8849 301.177C84.0543 300.936 84.1769 300.655 84.2357 300.343L85.2184 300.528C85.1326 300.983 84.9528 301.396 84.7029 301.752L83.8849 301.177ZM83.5061 304.85C83.5703 304.41 83.5388 304.018 83.441 303.677L84.4023 303.401C84.5413 303.886 84.5792 304.421 84.4957 304.994L83.5061 304.85ZM80.2212 307.013C81.7426 307.42 83.279 306.409 83.5061 304.85L84.4957 304.994C84.1822 307.145 82.062 308.541 79.9623 307.978L80.2212 307.013ZM78.4574 303.497C77.8748 304.961 78.6997 306.605 80.2212 307.013L79.9623 307.978C77.8627 307.416 76.7243 305.147 77.5283 303.128L78.4574 303.497ZM79.1132 302.502C78.8525 302.75 78.6248 303.077 78.4574 303.497L77.5283 303.128C77.7461 302.58 78.0529 302.13 78.4236 301.777L79.1132 302.502ZM80.1185 299.215C80.0089 299.516 79.9716 299.824 79.996 300.12L78.9994 300.202C78.9633 299.765 79.0189 299.313 79.1786 298.873L80.1185 299.215ZM82.8148 291.792L80.1185 299.215L79.1786 298.873L81.8749 291.451L82.8148 291.792ZM78.4236 301.777C78.801 301.418 79.044 300.744 78.9994 300.202L79.996 300.12C80.0636 300.94 79.7255 301.919 79.1132 302.502L78.4236 301.777ZM84.7029 301.752C84.3905 302.196 84.2588 302.9 84.4023 303.401L83.441 303.677C83.2081 302.864 83.4116 301.85 83.8849 301.177L84.7029 301.752Z" fill="black" fill-opacity="0.68" mask="url(#path-13-inside-7_38_262)"/>
<mask id="path-15-inside-8_38_262" fill="white">
<path fill-rule="evenodd" clip-rule="evenodd" d="M176.523 298.866C177.362 296.555 180.823 297.503 180.368 299.919L178.905 307.68C178.832 308.063 178.681 308.41 178.472 308.709C178.079 309.267 177.911 310.127 178.099 310.783C178.218 311.197 178.253 311.66 178.179 312.167C177.908 314.022 176.08 315.225 174.269 314.74C172.459 314.255 171.477 312.298 172.171 310.557C172.363 310.073 172.63 309.685 172.946 309.384C173.441 308.913 173.731 308.087 173.675 307.406C173.645 307.039 173.692 306.659 173.826 306.288L176.523 298.866Z"/>
</mask>
<path fill-rule="evenodd" clip-rule="evenodd" d="M176.523 298.866C177.362 296.555 180.823 297.503 180.368 299.919L178.905 307.68C178.832 308.063 178.681 308.41 178.472 308.709C178.079 309.267 177.911 310.127 178.099 310.783C178.218 311.197 178.253 311.66 178.179 312.167C177.908 314.022 176.08 315.225 174.269 314.74C172.459 314.255 171.477 312.298 172.171 310.557C172.363 310.073 172.63 309.685 172.946 309.384C173.441 308.913 173.731 308.087 173.675 307.406C173.645 307.039 173.692 306.659 173.826 306.288L176.523 298.866Z" fill="#00A3FF"/>
<path d="M180.368 299.919L180.859 300.012L180.859 300.012L180.368 299.919ZM176.523 298.866L176.993 299.036L176.993 299.036L176.523 298.866ZM178.905 307.68L179.396 307.772L179.396 307.772L178.905 307.68ZM178.179 312.167L178.673 312.239L178.179 312.167ZM172.171 310.557L172.635 310.742L172.171 310.557ZM173.826 306.288L173.356 306.118L173.356 306.118L173.826 306.288ZM172.946 309.384L173.291 309.746L172.946 309.384ZM173.675 307.406L174.174 307.364L173.675 307.406ZM179.876 299.826C180.218 298.014 177.622 297.303 176.993 299.036L176.053 298.695C177.102 295.806 181.429 296.991 180.859 300.012L179.876 299.826ZM178.413 307.587L179.876 299.826L180.859 300.012L179.396 307.772L178.413 307.587ZM178.063 308.421C178.232 308.18 178.355 307.899 178.413 307.587L179.396 307.772C179.31 308.227 179.131 308.641 178.881 308.996L178.063 308.421ZM177.684 312.095C177.748 311.654 177.717 311.263 177.619 310.921L178.58 310.646C178.719 311.131 178.757 311.666 178.673 312.239L177.684 312.095ZM174.399 314.257C175.92 314.665 177.457 313.653 177.684 312.095L178.673 312.239C178.36 314.39 176.24 315.786 174.14 315.223L174.399 314.257ZM172.635 310.742C172.053 312.205 172.877 313.849 174.399 314.257L174.14 315.223C172.04 314.66 170.902 312.392 171.706 310.372L172.635 310.742ZM173.291 309.746C173.03 309.994 172.802 310.322 172.635 310.742L171.706 310.372C171.924 309.825 172.231 309.375 172.601 309.022L173.291 309.746ZM174.296 306.459C174.187 306.761 174.149 307.068 174.174 307.364L173.177 307.447C173.141 307.009 173.197 306.557 173.356 306.118L174.296 306.459ZM176.993 299.036L174.296 306.459L173.356 306.118L176.053 298.695L176.993 299.036ZM172.601 309.022C172.979 308.662 173.222 307.988 173.177 307.447L174.174 307.364C174.241 308.185 173.903 309.163 173.291 309.746L172.601 309.022ZM178.881 308.996C178.568 309.441 178.437 310.145 178.58 310.646L177.619 310.921C177.386 310.109 177.589 309.094 178.063 308.421L178.881 308.996Z" fill="black" fill-opacity="0.68" mask="url(#path-15-inside-8_38_262)"/>
<mask id="path-17-inside-9_38_262" fill="white">
<path fill-rule="evenodd" clip-rule="evenodd" d="M71.5998 236.082L90.7927 175.768L76.8807 237.547C76.8622 237.629 76.8403 237.709 76.815 237.788L75.0706 246.431C74.6932 248.302 72.8157 249.465 70.9726 248.972C69.1296 248.478 68.0855 246.531 68.6938 244.723L71.5998 236.082Z"/>
</mask>
<path fill-rule="evenodd" clip-rule="evenodd" d="M71.5998 236.082L90.7927 175.768L76.8807 237.547C76.8622 237.629 76.8403 237.709 76.815 237.788L75.0706 246.431C74.6932 248.302 72.8157 249.465 70.9726 248.972C69.1296 248.478 68.0855 246.531 68.6938 244.723L71.5998 236.082Z" fill="#00A3FF"/>
<path d="M90.7927 175.768L90.3162 175.616L91.2805 175.878L90.7927 175.768ZM71.5998 236.082L72.0764 236.234L72.0737 236.242L71.5998 236.082ZM76.8807 237.547L76.3929 237.437L76.3929 237.437L76.8807 237.547ZM76.815 237.788L76.3249 237.689L76.3305 237.662L76.3391 237.635L76.815 237.788ZM75.0706 246.431L75.5608 246.53L75.5608 246.53L75.0706 246.431ZM68.6938 244.723L68.2199 244.563L68.2199 244.563L68.6938 244.723ZM91.2692 175.92L72.0763 236.234L71.1234 235.931L90.3162 175.616L91.2692 175.92ZM76.3929 237.437L90.3049 175.658L91.2805 175.878L77.3685 237.657L76.3929 237.437ZM76.3391 237.635C76.3597 237.571 76.3778 237.505 76.3929 237.437L77.3685 237.657C77.3467 237.754 77.3208 237.848 77.291 237.941L76.3391 237.635ZM74.5805 246.332L76.3249 237.689L77.3052 237.887L75.5608 246.53L74.5805 246.332ZM71.102 248.489C72.6664 248.908 74.2601 247.92 74.5805 246.332L75.5608 246.53C75.1262 248.683 72.9649 250.023 70.8432 249.455L71.102 248.489ZM69.1677 244.882C68.6514 246.417 69.5376 248.069 71.102 248.489L70.8432 249.455C68.7215 248.886 67.5197 246.645 68.2199 244.563L69.1677 244.882ZM72.0737 236.242L69.1677 244.882L68.2199 244.563L71.1259 235.923L72.0737 236.242Z" fill="black" fill-opacity="0.68" mask="url(#path-17-inside-9_38_262)"/>
<mask id="path-19-inside-10_38_262" fill="white">
<path fill-rule="evenodd" clip-rule="evenodd" d="M117.856 231.94L137.881 168.523L123.112 233.525C123.095 233.597 123.076 233.668 123.054 233.737L121.18 242.884C120.797 244.755 118.916 245.916 117.072 245.422C115.227 244.927 114.179 242.981 114.783 241.169L117.856 231.94Z"/>
</mask>
<path fill-rule="evenodd" clip-rule="evenodd" d="M117.856 231.94L137.881 168.523L123.112 233.525C123.095 233.597 123.076 233.668 123.054 233.737L121.18 242.884C120.797 244.755 118.916 245.916 117.072 245.422C115.227 244.927 114.179 242.981 114.783 241.169L117.856 231.94Z" fill="#00A3FF"/>
<path d="M137.881 168.523L137.405 168.373L138.369 168.634L137.881 168.523ZM117.856 231.94L118.333 232.091L118.331 232.098L117.856 231.94ZM123.112 233.525L122.624 233.414L122.624 233.414L123.112 233.525ZM123.054 233.737L122.565 233.637L122.57 233.612L122.577 233.589L123.054 233.737ZM121.18 242.884L121.67 242.984L121.67 242.984L121.18 242.884ZM114.783 241.169L115.257 241.327L115.257 241.327L114.783 241.169ZM138.358 168.674L118.333 232.091L117.379 231.789L137.405 168.373L138.358 168.674ZM122.624 233.414L137.394 168.413L138.369 168.634L123.599 233.636L122.624 233.414ZM122.577 233.589C122.595 233.532 122.611 233.474 122.624 233.414L123.599 233.636C123.58 233.721 123.557 233.804 123.532 233.886L122.577 233.589ZM120.69 242.783L122.565 233.637L123.544 233.838L121.67 242.984L120.69 242.783ZM117.201 244.939C118.768 245.359 120.365 244.372 120.69 242.783L121.67 242.984C121.229 245.137 119.065 246.474 116.942 245.905L117.201 244.939ZM115.257 241.327C114.745 242.866 115.634 244.519 117.201 244.939L116.942 245.905C114.819 245.336 113.614 243.097 114.308 241.011L115.257 241.327ZM118.331 232.098L115.257 241.327L114.308 241.011L117.382 231.782L118.331 232.098Z" fill="black" fill-opacity="0.68" mask="url(#path-19-inside-10_38_262)"/>
<mask id="path-21-inside-11_38_262" fill="white">
<path fill-rule="evenodd" clip-rule="evenodd" d="M159.388 246.409L181.348 175.768L164.563 248.333C164.551 248.384 164.538 248.435 164.524 248.484L162.344 258.805C161.948 260.677 160.063 261.834 158.215 261.339C156.366 260.844 155.312 258.899 155.906 257.08L159.388 246.409Z"/>
</mask>
<path fill-rule="evenodd" clip-rule="evenodd" d="M159.388 246.409L181.348 175.768L164.563 248.333C164.551 248.384 164.538 248.435 164.524 248.484L162.344 258.805C161.948 260.677 160.063 261.834 158.215 261.339C156.366 260.844 155.312 258.899 155.906 257.08L159.388 246.409Z" fill="#00A3FF"/>
<path d="M181.348 175.768L180.871 175.62L181.835 175.881L181.348 175.768ZM159.388 246.409L159.865 246.557L159.863 246.564L159.388 246.409ZM164.563 248.333L165.05 248.446L165.05 248.446L164.563 248.333ZM164.524 248.484L164.035 248.381L164.038 248.363L164.044 248.345L164.524 248.484ZM162.344 258.805L161.855 258.701L161.855 258.701L162.344 258.805ZM155.906 257.08L155.43 256.925L155.43 256.925L155.906 257.08ZM181.826 175.916L159.865 246.557L158.91 246.26L180.871 175.62L181.826 175.916ZM164.076 248.221L180.861 175.655L181.835 175.881L165.05 248.446L164.076 248.221ZM164.044 248.345C164.056 248.304 164.066 248.263 164.076 248.221L165.05 248.446C165.036 248.506 165.021 248.565 165.004 248.624L164.044 248.345ZM161.855 258.701L164.035 248.381L165.013 248.588L162.833 258.908L161.855 258.701ZM158.344 260.856C159.915 261.277 161.518 260.293 161.855 258.701L162.833 258.908C162.378 261.061 160.21 262.391 158.085 261.822L158.344 260.856ZM156.381 257.235C155.876 258.781 156.773 260.435 158.344 260.856L158.085 261.822C155.96 261.252 154.748 259.016 155.43 256.925L156.381 257.235ZM159.863 246.564L156.381 257.235L155.43 256.925L158.912 246.254L159.863 246.564Z" fill="black" fill-opacity="0.68" mask="url(#path-21-inside-11_38_262)"/>
<mask id="path-23-inside-12_38_262" fill="white">
<path fill-rule="evenodd" clip-rule="evenodd" d="M208.807 234.089L228.437 172.146L214.074 235.621C214.056 235.698 214.036 235.774 214.012 235.848L212.2 244.755C211.819 246.626 209.94 247.789 208.096 247.294C206.252 246.8 205.206 244.854 205.812 243.044L208.807 234.089Z"/>
</mask>
<path fill-rule="evenodd" clip-rule="evenodd" d="M208.807 234.089L228.437 172.146L214.074 235.621C214.056 235.698 214.036 235.774 214.012 235.848L212.2 244.755C211.819 246.626 209.94 247.789 208.096 247.294C206.252 246.8 205.206 244.854 205.812 243.044L208.807 234.089Z" fill="#00A3FF"/>
<path d="M228.437 172.146L227.961 171.995L228.925 172.256L228.437 172.146ZM208.807 234.089L209.284 234.24L209.282 234.248L208.807 234.089ZM214.074 235.621L213.586 235.511L213.586 235.511L214.074 235.621ZM214.012 235.848L213.522 235.748L213.528 235.722L213.536 235.697L214.012 235.848ZM212.2 244.755L212.69 244.855L212.69 244.855L212.2 244.755ZM205.812 243.044L205.338 242.885L205.338 242.885L205.812 243.044ZM228.914 172.297L209.284 234.24L208.331 233.938L227.961 171.995L228.914 172.297ZM213.586 235.511L227.95 172.035L228.925 172.256L214.561 235.732L213.586 235.511ZM213.536 235.697C213.555 235.636 213.572 235.574 213.586 235.511L214.561 235.732C214.541 235.822 214.517 235.912 214.489 235.999L213.536 235.697ZM211.71 244.655L213.522 235.748L214.502 235.948L212.69 244.855L211.71 244.655ZM208.225 246.811C209.791 247.231 211.386 246.244 211.71 244.655L212.69 244.855C212.251 247.008 210.089 248.346 207.967 247.777L208.225 246.811ZM206.286 243.202C205.772 244.739 206.66 246.392 208.225 246.811L207.967 247.777C205.844 247.209 204.641 244.969 205.338 242.885L206.286 243.202ZM209.282 234.248L206.286 243.202L205.338 242.885L208.333 233.93L209.282 234.248Z" fill="black" fill-opacity="0.68" mask="url(#path-23-inside-12_38_262)"/>
<mask id="path-25-inside-13_38_262" fill="white">
<path fill-rule="evenodd" clip-rule="evenodd" d="M248.092 243.422L268.281 179.39L253.339 245.039C253.323 245.11 253.305 245.179 253.283 245.247L251.383 254.493C250.998 256.364 249.118 257.525 247.273 257.031C245.428 256.536 244.379 254.59 244.982 252.778L248.092 243.422Z"/>
</mask>
<path fill-rule="evenodd" clip-rule="evenodd" d="M248.092 243.422L268.281 179.39L253.339 245.039C253.323 245.11 253.305 245.179 253.283 245.247L251.383 254.493C250.998 256.364 249.118 257.525 247.273 257.031C245.428 256.536 244.379 254.59 244.982 252.778L248.092 243.422Z" fill="#00A3FF"/>
<path d="M268.281 179.39L267.804 179.24L268.769 179.501L268.281 179.39ZM248.092 243.422L248.568 243.572L248.566 243.58L248.092 243.422ZM253.339 245.039L253.827 245.15L253.827 245.15L253.339 245.039ZM253.283 245.247L252.794 245.146L252.799 245.122L252.806 245.099L253.283 245.247ZM251.383 254.493L251.873 254.593L251.383 254.493ZM244.982 252.778L244.507 252.62L244.507 252.62L244.982 252.778ZM268.758 179.541L248.568 243.572L247.615 243.272L267.804 179.24L268.758 179.541ZM252.852 244.928L267.794 179.279L268.769 179.501L253.827 245.15L252.852 244.928ZM252.806 245.099C252.823 245.043 252.839 244.986 252.852 244.928L253.827 245.15C253.808 245.233 253.786 245.315 253.761 245.395L252.806 245.099ZM250.893 254.392L252.794 245.146L253.773 245.348L251.873 254.593L250.893 254.392ZM247.402 256.548C248.969 256.968 250.567 255.981 250.893 254.392L251.873 254.593C251.43 256.746 249.266 258.083 247.143 257.514L247.402 256.548ZM245.456 252.935C244.945 254.475 245.835 256.128 247.402 256.548L247.143 257.514C245.02 256.945 243.814 254.706 244.507 252.62L245.456 252.935ZM248.566 243.58L245.456 252.935L244.507 252.62L247.617 243.264L248.566 243.58Z" fill="black" fill-opacity="0.68" mask="url(#path-25-inside-13_38_262)"/>
<mask id="path-27-inside-14_38_262" fill="white">
<path fill-rule="evenodd" clip-rule="evenodd" d="M263.927 262.778L286.393 190.257L269.087 264.774C269.077 264.818 269.066 264.862 269.053 264.905L266.793 275.533C266.395 277.406 264.508 278.561 262.659 278.066C260.81 277.571 259.754 275.626 260.346 273.805L263.927 262.778Z"/>
</mask>
<path fill-rule="evenodd" clip-rule="evenodd" d="M263.927 262.778L286.393 190.257L269.087 264.774C269.077 264.818 269.066 264.862 269.053 264.905L266.793 275.533C266.395 277.406 264.508 278.561 262.659 278.066C260.81 277.571 259.754 275.626 260.346 273.805L263.927 262.778Z" fill="#00A3FF"/>
<path d="M286.393 190.257L285.915 190.109L286.88 190.37L286.393 190.257ZM263.927 262.778L264.405 262.926L264.403 262.933L263.927 262.778ZM269.087 264.774L269.574 264.887L269.574 264.887L269.087 264.774ZM269.053 264.905L268.564 264.801L268.568 264.784L268.572 264.768L269.053 264.905ZM266.793 275.533L266.304 275.429L266.304 275.429L266.793 275.533ZM260.346 273.805L259.87 273.651L259.87 273.651L260.346 273.805ZM286.87 190.405L264.405 262.926L263.45 262.63L285.915 190.109L286.87 190.405ZM268.6 264.661L285.906 190.144L286.88 190.37L269.574 264.887L268.6 264.661ZM268.572 264.768C268.582 264.733 268.592 264.697 268.6 264.661L269.574 264.887C269.562 264.939 269.549 264.99 269.535 265.041L268.572 264.768ZM266.304 275.429L268.564 264.801L269.543 265.009L267.282 275.637L266.304 275.429ZM262.789 277.583C264.361 278.004 265.966 277.021 266.304 275.429L267.282 275.637C266.824 277.79 264.656 279.119 262.53 278.549L262.789 277.583ZM260.821 273.96C260.318 275.508 261.216 277.162 262.789 277.583L262.53 278.549C260.404 277.979 259.19 275.744 259.87 273.651L260.821 273.96ZM264.403 262.933L260.821 273.96L259.87 273.651L263.452 262.624L264.403 262.933Z" fill="black" fill-opacity="0.68" mask="url(#path-27-inside-14_38_262)"/>
<mask id="path-29-inside-15_38_262" fill="white">
<path fill-rule="evenodd" clip-rule="evenodd" d="M20.6263 237.057L40.0813 175.768L25.9029 238.548C25.8852 238.627 25.8643 238.703 25.8405 238.778L24.0554 247.58C23.676 249.45 21.7976 250.613 19.954 250.119C18.1104 249.625 17.0653 247.679 17.672 245.869L20.6263 237.057Z"/>
</mask>
<path fill-rule="evenodd" clip-rule="evenodd" d="M20.6263 237.057L40.0813 175.768L25.9029 238.548C25.8852 238.627 25.8643 238.703 25.8405 238.778L24.0554 247.58C23.676 249.45 21.7976 250.613 19.954 250.119C18.1104 249.625 17.0653 247.679 17.672 245.869L20.6263 237.057Z" fill="#00A3FF"/>
<path d="M40.0813 175.768L39.6047 175.617L40.569 175.878L40.0813 175.768ZM20.6263 237.057L21.1029 237.209L21.1004 237.216L20.6263 237.057ZM25.9029 238.548L26.3906 238.658L26.3906 238.658L25.9029 238.548ZM25.8405 238.778L25.3504 238.679L25.3558 238.653L25.364 238.627L25.8405 238.778ZM24.0554 247.58L23.5653 247.48L23.5653 247.48L24.0554 247.58ZM17.672 245.869L17.1979 245.71L17.1979 245.71L17.672 245.869ZM40.5579 175.919L21.1029 237.209L20.1497 236.906L39.6047 175.617L40.5579 175.919ZM25.4152 238.438L39.5936 175.658L40.569 175.878L26.3906 238.658L25.4152 238.438ZM25.364 238.627C25.3835 238.565 25.4007 238.502 25.4152 238.438L26.3906 238.658C26.3698 238.751 26.3452 238.841 26.317 238.93L25.364 238.627ZM23.5653 247.48L25.3504 238.679L26.3305 238.878L24.5454 247.679L23.5653 247.48ZM20.0834 249.636C21.6486 250.056 23.2432 249.068 23.5653 247.48L24.5454 247.679C24.1087 249.832 21.9467 251.171 19.8246 250.602L20.0834 249.636ZM18.146 246.028C17.631 247.564 18.5182 249.217 20.0834 249.636L19.8246 250.602C17.7025 250.034 16.4996 247.793 17.1979 245.71L18.146 246.028ZM21.1004 237.216L18.146 246.028L17.1979 245.71L20.1522 236.898L21.1004 237.216Z" fill="black" fill-opacity="0.68" mask="url(#path-29-inside-15_38_262)"/>
<mask id="path-31-inside-16_38_262" fill="white">
<path fill-rule="evenodd" clip-rule="evenodd" d="M288.032 232.193L308.125 168.523L293.286 233.786C293.27 233.857 293.251 233.927 293.23 233.996L291.345 243.183C290.961 245.054 289.08 246.216 287.236 245.721C285.391 245.227 284.343 243.281 284.946 241.468L288.032 232.193Z"/>
</mask>
<path fill-rule="evenodd" clip-rule="evenodd" d="M288.032 232.193L308.125 168.523L293.286 233.786C293.27 233.857 293.251 233.927 293.23 233.996L291.345 243.183C290.961 245.054 289.08 246.216 287.236 245.721C285.391 245.227 284.343 243.281 284.946 241.468L288.032 232.193Z" fill="#00A3FF"/>
<path d="M308.125 168.523L307.649 168.373L308.613 168.634L308.125 168.523ZM288.032 232.193L288.509 232.343L288.507 232.351L288.032 232.193ZM293.286 233.786L293.774 233.897L293.774 233.897L293.286 233.786ZM293.23 233.996L292.74 233.895L292.745 233.871L292.752 233.847L293.23 233.996ZM291.345 243.183L290.855 243.083L290.855 243.083L291.345 243.183ZM284.946 241.468L284.472 241.311L284.472 241.311L284.946 241.468ZM308.602 168.674L288.509 232.343L287.556 232.042L307.649 168.373L308.602 168.674ZM292.799 233.675L307.638 168.412L308.613 168.634L293.774 233.897L292.799 233.675ZM292.752 233.847C292.77 233.791 292.785 233.734 292.799 233.675L293.774 233.897C293.755 233.981 293.732 234.063 293.707 234.144L292.752 233.847ZM290.855 243.083L292.74 233.895L293.72 234.096L291.835 243.284L290.855 243.083ZM287.365 245.238C288.932 245.658 290.529 244.672 290.855 243.083L291.835 243.284C291.393 245.437 289.229 246.773 287.106 246.204L287.365 245.238ZM285.42 241.626C284.908 243.166 285.798 244.818 287.365 245.238L287.106 246.204C284.983 245.635 283.778 243.396 284.472 241.311L285.42 241.626ZM288.507 232.351L285.42 241.626L284.472 241.311L287.558 232.035L288.507 232.351Z" fill="black" fill-opacity="0.68" mask="url(#path-31-inside-16_38_262)"/>
<mask id="path-33-inside-17_38_262" fill="white">
<path fill-rule="evenodd" clip-rule="evenodd" d="M9.27655 209.881L29.2147 146.79L14.5362 211.449C14.5196 211.522 14.5003 211.594 14.4784 211.664L12.6176 220.757C12.2348 222.628 10.3549 223.79 8.5103 223.296C6.66568 222.801 5.61859 220.855 6.2225 219.043L9.27655 209.881Z"/>
</mask>
<path fill-rule="evenodd" clip-rule="evenodd" d="M9.27655 209.881L29.2147 146.79L14.5362 211.449C14.5196 211.522 14.5003 211.594 14.4784 211.664L12.6176 220.757C12.2348 222.628 10.3549 223.79 8.5103 223.296C6.66568 222.801 5.61859 220.855 6.2225 219.043L9.27655 209.881Z" fill="#00A3FF"/>
<path d="M29.2147 146.79L28.738 146.639L29.7023 146.901L29.2147 146.79ZM9.27655 209.881L9.75336 210.032L9.75089 210.04L9.27655 209.881ZM14.5362 211.449L15.0238 211.56L15.0238 211.56L14.5362 211.449ZM14.4784 211.664L13.9886 211.563L13.9936 211.539L14.0012 211.515L14.4784 211.664ZM12.6176 220.757L12.1278 220.657L12.1278 220.657L12.6176 220.757ZM6.2225 219.043L6.69684 219.202L6.69684 219.202L6.2225 219.043ZM29.6915 146.941L9.75331 210.032L8.79979 209.731L28.738 146.639L29.6915 146.941ZM14.0486 211.338L28.7271 146.679L29.7023 146.901L15.0238 211.56L14.0486 211.338ZM14.0012 211.515C14.0191 211.457 14.035 211.398 14.0486 211.338L15.0238 211.56C15.0043 211.646 14.9815 211.73 14.9556 211.813L14.0012 211.515ZM12.1278 220.657L13.9886 211.563L14.9683 211.764L13.1075 220.857L12.1278 220.657ZM8.63971 222.813C10.2062 223.232 11.8027 222.246 12.1278 220.657L13.1075 220.857C12.6669 223.01 10.5036 224.347 8.3809 223.778L8.63971 222.813ZM6.69684 219.202C6.18398 220.74 7.0732 222.393 8.63971 222.813L8.3809 223.778C6.25816 223.21 5.05319 220.97 5.74815 218.885L6.69684 219.202ZM9.75089 210.04L6.69684 219.202L5.74815 218.885L8.80221 209.723L9.75089 210.04Z" fill="black" fill-opacity="0.68" mask="url(#path-33-inside-17_38_262)"/>
<mask id="path-35-inside-18_38_262" fill="white">
<path fill-rule="evenodd" clip-rule="evenodd" d="M41.8132 257.211L61.8147 193.879L47.0637 258.81C47.047 258.884 47.0276 258.956 47.0055 259.026L45.1345 268.158C44.7511 270.029 42.8711 271.191 41.0263 270.697C39.1815 270.202 38.1341 268.256 38.7377 266.444L41.8132 257.211Z"/>
</mask>
<path fill-rule="evenodd" clip-rule="evenodd" d="M41.8132 257.211L61.8147 193.879L47.0637 258.81C47.047 258.884 47.0276 258.956 47.0055 259.026L45.1345 268.158C44.7511 270.029 42.8711 271.191 41.0263 270.697C39.1815 270.202 38.1341 268.256 38.7377 266.444L41.8132 257.211Z" fill="#00A3FF"/>
<path d="M61.8147 193.879L61.3379 193.728L62.3023 193.99L61.8147 193.879ZM41.8132 257.211L42.29 257.361L42.2876 257.369L41.8132 257.211ZM47.0637 258.81L47.5513 258.921L47.5513 258.921L47.0637 258.81ZM47.0055 259.026L46.5157 258.926L46.5208 258.901L46.5284 258.877L47.0055 259.026ZM45.1345 268.158L45.6243 268.259L45.1345 268.158ZM38.7377 266.444L38.2633 266.286L38.2633 266.286L38.7377 266.444ZM62.2915 194.03L42.29 257.361L41.3364 257.06L61.3379 193.728L62.2915 194.03ZM46.5761 258.7L61.3272 193.768L62.3023 193.99L47.5513 258.921L46.5761 258.7ZM46.5284 258.877C46.5465 258.819 46.5624 258.76 46.5761 258.7L47.5513 258.921C47.5316 259.007 47.5087 259.092 47.4827 259.176L46.5284 258.877ZM44.6446 268.058L46.5157 258.926L47.4953 259.126L45.6243 268.259L44.6446 268.058ZM41.1557 270.214C42.7224 270.634 44.3191 269.647 44.6446 268.058L45.6243 268.259C45.1832 270.412 43.0197 271.749 40.8969 271.18L41.1557 270.214ZM39.212 266.602C38.6995 268.141 39.589 269.794 41.1557 270.214L40.8969 271.18C38.774 270.611 37.5688 268.372 38.2633 266.286L39.212 266.602ZM42.2876 257.369L39.212 266.602L38.2633 266.286L41.3388 257.053L42.2876 257.369Z" fill="black" fill-opacity="0.68" mask="url(#path-35-inside-18_38_262)"/>
<mask id="path-37-inside-19_38_262" fill="white">
<path fill-rule="evenodd" clip-rule="evenodd" d="M223.812 253.896L242.926 193.879L229.101 255.331C229.083 255.412 229.061 255.492 229.036 255.571L227.304 264.166C226.927 266.037 225.05 267.201 223.207 266.707C221.364 266.213 220.32 264.267 220.929 262.458L223.81 253.901C223.811 253.899 223.811 253.898 223.812 253.896Z"/>
</mask>
<path fill-rule="evenodd" clip-rule="evenodd" d="M223.812 253.896L242.926 193.879L229.101 255.331C229.083 255.412 229.061 255.492 229.036 255.571L227.304 264.166C226.927 266.037 225.05 267.201 223.207 266.707C221.364 266.213 220.32 264.267 220.929 262.458L223.81 253.901C223.811 253.899 223.811 253.898 223.812 253.896Z" fill="#00A3FF"/>
<path d="M242.926 193.879L242.449 193.727L243.414 193.989L242.926 193.879ZM223.812 253.896L223.335 253.745L223.335 253.744L223.812 253.896ZM229.101 255.331L228.613 255.221L228.613 255.221L229.101 255.331ZM229.036 255.571L228.545 255.472L228.551 255.445L228.56 255.418L229.036 255.571ZM227.304 264.166L226.814 264.068L227.304 264.166ZM220.929 262.458L221.403 262.618L221.403 262.618L220.929 262.458ZM223.81 253.901L224.287 254.052L224.284 254.06L223.81 253.901ZM243.402 194.031L224.288 254.048L223.335 253.744L242.449 193.727L243.402 194.031ZM228.613 255.221L242.438 193.769L243.414 193.989L229.589 255.44L228.613 255.221ZM228.56 255.418C228.58 255.354 228.598 255.288 228.613 255.221L229.589 255.44C229.567 255.537 229.541 255.631 229.512 255.724L228.56 255.418ZM226.814 264.068L228.545 255.472L229.526 255.67L227.794 264.265L226.814 264.068ZM223.336 266.224C224.9 266.643 226.494 265.655 226.814 264.068L227.794 264.265C227.36 266.418 225.199 267.758 223.077 267.19L223.336 266.224ZM221.403 262.618C220.886 264.153 221.772 265.805 223.336 266.224L223.077 267.19C220.956 266.622 219.754 264.38 220.455 262.299L221.403 262.618ZM224.284 254.06L221.403 262.618L220.455 262.299L223.336 253.741L224.284 254.06ZM224.288 254.048C224.288 254.049 224.287 254.05 224.287 254.052L223.334 253.75C223.334 253.748 223.335 253.746 223.335 253.745L224.288 254.048Z" fill="black" fill-opacity="0.68" mask="url(#path-37-inside-19_38_262)"/>
<mask id="path-39-inside-20_38_262" fill="white">
<path fill-rule="evenodd" clip-rule="evenodd" d="M180.363 260.106L203.082 186.635L185.507 262.162C185.497 262.204 185.486 262.246 185.475 262.287L183.174 273.07C182.774 274.942 180.887 276.098 179.038 275.602C177.188 275.107 176.132 273.163 176.722 271.341L180.363 260.106Z"/>
</mask>
<path fill-rule="evenodd" clip-rule="evenodd" d="M180.363 260.106L203.082 186.635L185.507 262.162C185.497 262.204 185.486 262.246 185.475 262.287L183.174 273.07C182.774 274.942 180.887 276.098 179.038 275.602C177.188 275.107 176.132 273.163 176.722 271.341L180.363 260.106Z" fill="#00A3FF"/>
<path d="M203.082 186.635L202.604 186.487L203.569 186.748L203.082 186.635ZM180.363 260.106L180.841 260.254L180.838 260.26L180.363 260.106ZM185.507 262.162L185.02 262.049L185.02 262.049L185.507 262.162ZM185.475 262.287L184.986 262.182L184.989 262.167L184.993 262.151L185.475 262.287ZM183.174 273.07L183.663 273.174L183.663 273.174L183.174 273.07ZM176.722 271.341L176.246 271.187L176.246 271.187L176.722 271.341ZM203.559 186.782L180.84 260.254L179.885 259.958L202.604 186.487L203.559 186.782ZM185.02 262.049L202.595 186.521L203.569 186.748L185.994 262.276L185.02 262.049ZM184.993 262.151C185.003 262.118 185.012 262.084 185.02 262.049L185.994 262.276C185.982 262.325 185.97 262.374 185.956 262.422L184.993 262.151ZM182.685 272.966L184.986 262.182L185.964 262.391L183.663 273.174L182.685 272.966ZM179.167 275.119C180.74 275.541 182.345 274.558 182.685 272.966L183.663 273.174C183.204 275.327 181.034 276.655 178.908 276.085L179.167 275.119ZM177.198 271.495C176.696 273.044 177.594 274.698 179.167 275.119L178.908 276.085C176.782 275.516 175.568 273.281 176.246 271.187L177.198 271.495ZM180.838 260.26L177.198 271.495L176.246 271.187L179.887 259.952L180.838 260.26Z" fill="black" fill-opacity="0.68" mask="url(#path-39-inside-20_38_262)"/>
<mask id="path-41-inside-21_38_262" fill="white">
<path fill-rule="evenodd" clip-rule="evenodd" d="M132.862 265.269L155.993 190.257L137.986 267.406C137.977 267.443 137.968 267.48 137.958 267.516L135.591 278.552C135.189 280.425 133.301 281.579 131.451 281.084C129.601 280.588 128.543 278.644 129.131 276.821L132.862 265.269Z"/>
</mask>
<path fill-rule="evenodd" clip-rule="evenodd" d="M132.862 265.269L155.993 190.257L137.986 267.406C137.977 267.443 137.968 267.48 137.958 267.516L135.591 278.552C135.189 280.425 133.301 281.579 131.451 281.084C129.601 280.588 128.543 278.644 129.131 276.821L132.862 265.269Z" fill="#00A3FF"/>
<path d="M155.993 190.257L155.515 190.109L156.48 190.37L155.993 190.257ZM132.862 265.269L133.34 265.416L133.338 265.422L132.862 265.269ZM137.986 267.406L137.499 267.293L137.499 267.293L137.986 267.406ZM137.958 267.516L137.469 267.411L137.472 267.397L137.476 267.383L137.958 267.516ZM135.591 278.552L136.08 278.657L136.08 278.657L135.591 278.552ZM129.131 276.821L129.607 276.975L129.131 276.821ZM156.471 190.404L133.34 265.416L132.384 265.121L155.515 190.109L156.471 190.404ZM137.499 267.293L155.506 190.143L156.48 190.37L138.473 267.52L137.499 267.293ZM137.476 267.383C137.484 267.353 137.492 267.323 137.499 267.293L138.473 267.52C138.462 267.563 138.451 267.606 138.44 267.649L137.476 267.383ZM135.102 278.447L137.469 267.411L138.447 267.621L136.08 278.657L135.102 278.447ZM131.58 280.601C133.154 281.022 134.76 280.04 135.102 278.447L136.08 278.657C135.618 280.809 133.448 282.136 131.321 281.567L131.58 280.601ZM129.607 276.975C129.107 278.525 130.006 280.179 131.58 280.601L131.321 281.567C129.195 280.997 127.979 278.763 128.656 276.668L129.607 276.975ZM133.338 265.422L129.607 276.975L128.656 276.668L132.386 265.115L133.338 265.422Z" fill="black" fill-opacity="0.68" mask="url(#path-41-inside-21_38_262)"/>
<mask id="path-43-inside-22_38_262" fill="white">
<path fill-rule="evenodd" clip-rule="evenodd" d="M89.1678 252.594L108.904 190.257L94.4347 254.129C94.4177 254.204 94.3977 254.278 94.3749 254.35L92.5459 263.321C92.1645 265.192 90.2852 266.354 88.441 265.86C86.5968 265.366 85.5505 263.42 86.1556 261.609L89.1678 252.594Z"/>
</mask>
<path fill-rule="evenodd" clip-rule="evenodd" d="M89.1678 252.594L108.904 190.257L94.4347 254.129C94.4177 254.204 94.3977 254.278 94.3749 254.35L92.5459 263.321C92.1645 265.192 90.2852 266.354 88.441 265.86C86.5968 265.366 85.5505 263.42 86.1556 261.609L89.1678 252.594Z" fill="#00A3FF"/>
<path d="M108.904 190.257L108.427 190.106L109.391 190.367L108.904 190.257ZM89.1678 252.594L89.6445 252.745L89.642 252.752L89.1678 252.594ZM94.4347 254.129L94.9223 254.239L94.9223 254.239L94.4347 254.129ZM94.3749 254.35L93.885 254.25L93.8902 254.225L93.898 254.2L94.3749 254.35ZM92.5459 263.321L92.056 263.221L92.056 263.221L92.5459 263.321ZM86.1556 261.609L86.6298 261.767L86.1556 261.609ZM109.38 190.408L89.6445 252.745L88.6911 252.443L108.427 190.106L109.38 190.408ZM93.9471 254.018L108.416 190.146L109.391 190.367L94.9223 254.239L93.9471 254.018ZM93.898 254.2C93.9167 254.141 93.933 254.08 93.9471 254.018L94.9223 254.239C94.9023 254.328 94.8787 254.415 94.8519 254.5L93.898 254.2ZM92.056 263.221L93.885 254.25L94.8649 254.45L93.0358 263.421L92.056 263.221ZM88.5704 265.377C90.1364 265.797 91.7321 264.81 92.056 263.221L93.0358 263.421C92.5968 265.574 90.4341 266.912 88.3116 266.343L88.5704 265.377ZM86.6298 261.767C86.116 263.305 87.0045 264.957 88.5704 265.377L88.3116 266.343C86.1892 265.774 84.985 263.534 85.6814 261.45L86.6298 261.767ZM89.642 252.752L86.6298 261.767L85.6814 261.45L88.6935 252.435L89.642 252.752Z" fill="black" fill-opacity="0.68" mask="url(#path-43-inside-22_38_262)"/>
<ellipse cx="82.5" cy="135.022" rx="81.5" ry="76.0667" fill="white"/>
<ellipse cx="165.811" cy="135.022" rx="81.5" ry="76.0667" fill="white"/>
<ellipse cx="245.5" cy="135.022" rx="81.5" ry="76.0667" fill="white"/>
<ellipse cx="133.211" cy="77.0667" rx="81.5" ry="76.0667" fill="white"/>
<ellipse cx="212.9" cy="102.422" rx="81.5" ry="76.0667" fill="white"/>
<mask id="path-50-outside-23_38_262" maskUnits="userSpaceOnUse" x="0" y="0" width="328" height="213" fill="black">
<rect fill="white" width="328" height="213"/>
<path fill-rule="evenodd" clip-rule="evenodd" d="M52.8843 64.1335C59.4634 28.2834 92.9235 1 133.211 1C158.229 1 180.613 11.5206 195.563 28.0801C201.15 26.9505 206.951 26.3556 212.9 26.3556C245.104 26.3556 272.945 43.7886 286.182 69.0952C310.58 82.2384 327 106.841 327 135.022C327 177.033 290.511 211.089 245.5 211.089C231.028 211.089 217.436 207.568 205.656 201.394C193.875 207.568 180.284 211.089 165.811 211.089C150.591 211.089 136.345 207.195 124.156 200.416C111.966 207.195 97.72 211.089 82.5 211.089C37.4888 211.089 1 177.033 1 135.022C1 102.763 22.5157 75.1938 52.8843 64.1335Z"/>
</mask>
<path fill-rule="evenodd" clip-rule="evenodd" d="M52.8843 64.1335C59.4634 28.2834 92.9235 1 133.211 1C158.229 1 180.613 11.5206 195.563 28.0801C201.15 26.9505 206.951 26.3556 212.9 26.3556C245.104 26.3556 272.945 43.7886 286.182 69.0952C310.58 82.2384 327 106.841 327 135.022C327 177.033 290.511 211.089 245.5 211.089C231.028 211.089 217.436 207.568 205.656 201.394C193.875 207.568 180.284 211.089 165.811 211.089C150.591 211.089 136.345 207.195 124.156 200.416C111.966 207.195 97.72 211.089 82.5 211.089C37.4888 211.089 1 177.033 1 135.022C1 102.763 22.5157 75.1938 52.8843 64.1335Z" fill="white"/>
<path d="M52.8843 64.1335L53.2266 65.0732L53.7646 64.8772L53.8679 64.3141L52.8843 64.1335ZM195.563 28.0801L194.821 28.7503L195.203 29.1732L195.762 29.0603L195.563 28.0801ZM286.182 69.0952L285.296 69.5586L285.438 69.8302L285.708 69.9755L286.182 69.0952ZM205.656 201.394L206.12 200.508L205.656 200.265L205.191 200.508L205.656 201.394ZM124.156 200.416L124.642 199.542L124.156 199.272L123.67 199.542L124.156 200.416ZM133.211 0C92.4817 0 58.5742 27.5891 51.9008 63.953L53.8679 64.3141C60.3527 28.9776 93.3654 2 133.211 2V0ZM196.306 27.41C181.165 10.6398 158.511 0 133.211 0V2C157.946 2 180.061 12.4014 194.821 28.7503L196.306 27.41ZM212.9 25.3556C206.884 25.3556 201.017 25.9572 195.365 27.1L195.762 29.0603C201.284 27.9438 207.018 27.3556 212.9 27.3556V25.3556ZM287.068 68.6317C273.653 42.9848 245.464 25.3556 212.9 25.3556V27.3556C244.744 27.3556 272.237 44.5924 285.296 69.5586L287.068 68.6317ZM285.708 69.9755C309.817 82.9635 326 107.247 326 135.022H328C328 106.434 311.342 81.5133 286.656 68.2148L285.708 69.9755ZM326 135.022C326 176.417 290.025 210.089 245.5 210.089V212.089C290.997 212.089 328 177.649 328 135.022H326ZM245.5 210.089C231.191 210.089 217.759 206.608 206.12 200.508L205.191 202.28C217.114 208.528 230.864 212.089 245.5 212.089V210.089ZM165.811 212.089C180.447 212.089 194.197 208.528 206.12 202.28L205.191 200.508C193.553 206.608 180.12 210.089 165.811 210.089V212.089ZM123.67 201.29C136.007 208.151 150.419 212.089 165.811 212.089V210.089C150.763 210.089 136.684 206.239 124.642 199.542L123.67 201.29ZM82.5 212.089C97.8917 212.089 112.304 208.151 124.642 201.29L123.67 199.542C111.627 206.239 97.5484 210.089 82.5 210.089V212.089ZM0 135.022C0 177.649 37.0026 212.089 82.5 212.089V210.089C37.975 210.089 2 176.417 2 135.022H0ZM52.5421 63.1939C21.8252 74.381 0 102.295 0 135.022H2C2 103.231 23.2063 76.0065 53.2266 65.0732L52.5421 63.1939Z" fill="black" mask="url(#path-50-outside-23_38_262)"/>
<path d="M133.211 153.633C178.465 153.633 215.211 119.385 215.211 77.0667C215.211 34.7481 178.465 0.5 133.211 0.5C87.9568 0.5 51.2111 34.7481 51.2111 77.0667C51.2111 119.385 87.9568 153.633 133.211 153.633Z" fill="white" stroke="url(#paint0_linear_38_262)"/>
<path d="M82.5 211.589C127.754 211.589 164.5 177.341 164.5 135.022C164.5 92.7037 127.754 58.4556 82.5 58.4556C37.2457 58.4556 0.5 92.7037 0.5 135.022C0.5 177.341 37.2457 211.589 82.5 211.589Z" fill="white" stroke="url(#paint1_linear_38_262)"/>
<path d="M165.811 211.589C211.065 211.589 247.811 177.341 247.811 135.022C247.811 92.7037 211.065 58.4556 165.811 58.4556C120.557 58.4556 83.8112 92.7037 83.8112 135.022C83.8112 177.341 120.557 211.589 165.811 211.589Z" fill="white" stroke="url(#paint2_linear_38_262)"/>
<ellipse cx="245.5" cy="135.022" rx="81.5" ry="76.0667" fill="white"/>
<path d="M245.5 211.589C290.754 211.589 327.5 177.341 327.5 135.022C327.5 92.7037 290.754 58.4556 245.5 58.4556C200.246 58.4556 163.5 92.7037 163.5 135.022C163.5 177.341 200.246 211.589 245.5 211.589Z" stroke="url(#paint3_linear_38_262)" stroke-opacity="0.88"/>
<defs>
<linearGradient id="paint0_linear_38_262" x1="33.5999" y1="19.1111" x2="234.633" y2="24.5444" gradientUnits="userSpaceOnUse">
<stop/>
<stop offset="1" stop-opacity="0"/>
</linearGradient>
<linearGradient id="paint1_linear_38_262" x1="1" y1="169.433" x2="145.889" y2="165.811" gradientUnits="userSpaceOnUse">
<stop stop-opacity="0.54"/>
<stop offset="0.884367" stop-opacity="0"/>
</linearGradient>
<linearGradient id="paint2_linear_38_262" x1="225.578" y1="211.089" x2="164" y2="95.1778" gradientUnits="userSpaceOnUse">
<stop stop-opacity="0.3"/>
<stop offset="1" stop-opacity="0"/>
</linearGradient>
<linearGradient id="paint3_linear_38_262" x1="327" y1="158.567" x2="322.706" y2="169.866" gradientUnits="userSpaceOnUse">
<stop stop-opacity="0.35"/>
<stop offset="1" stop-opacity="0"/>
</linearGradient>
</defs>
</svg>
