<svg width="440" height="324" viewBox="0 0 440 324" fill="none" xmlns="http://www.w3.org/2000/svg">
<circle cx="120.717" cy="120.717" r="86.8763" fill="#FFF964" stroke="black" stroke-width="1.3"/>
<path d="M200.505 34.2191C203.352 33.5971 205.888 36.1325 205.266 38.9804L202.256 52.7616C201.581 55.8517 197.756 56.9731 195.52 54.7365L184.748 43.9652C182.512 41.7286 183.633 37.9037 186.723 37.2288L200.505 34.2191Z" fill="#FFF964"/>
<path d="M202.891 52.9003L205.901 39.1191C206.624 35.8084 203.677 32.861 200.366 33.584L186.585 36.5938C182.992 37.3783 181.689 41.8248 184.289 44.4248L195.06 55.1962C197.66 57.7961 202.107 56.4925 202.891 52.9003Z" stroke="black" stroke-opacity="0.69" stroke-width="1.3"/>
<path d="M232 87.194C234.778 88.0793 235.706 91.5428 233.743 93.6981L224.246 104.128C222.116 106.467 218.243 105.525 217.425 102.47L213.482 87.7563C212.663 84.7012 215.547 81.9494 218.56 82.91L232 87.194Z" fill="#FFF964"/>
<path d="M224.726 104.566L234.224 94.1358C236.505 91.6301 235.426 87.6039 232.198 86.5747L218.758 82.2907C215.255 81.174 211.902 84.3729 212.854 87.9245L216.797 102.639C217.748 106.19 222.251 107.284 224.726 104.566Z" stroke="black" stroke-opacity="0.69" stroke-width="1.3"/>
<path d="M233.743 147.696C235.706 149.852 234.778 153.315 232 154.2L218.561 158.484C215.547 159.445 212.663 156.693 213.482 153.638L217.425 138.924C218.243 135.869 222.116 134.928 224.246 137.266L233.743 147.696Z" fill="#FFF964"/>
<path d="M218.758 159.104L232.198 154.82C235.426 153.79 236.505 149.764 234.224 147.259L224.727 136.829C222.251 134.11 217.748 135.204 216.797 138.756L212.854 153.47C211.903 157.021 215.255 160.22 218.758 159.104Z" stroke="black" stroke-opacity="0.69" stroke-width="1.3"/>
<path d="M205.266 200.504C205.888 203.352 203.352 205.888 200.504 205.266L186.723 202.256C183.633 201.581 182.512 197.756 184.748 195.52L195.52 184.748C197.756 182.512 201.581 183.633 202.256 186.723L205.266 200.504Z" fill="#FFF964"/>
<path d="M186.585 202.891L200.366 205.901C203.676 206.624 206.624 203.676 205.901 200.366L202.891 186.585C202.106 182.992 197.66 181.689 195.06 184.289L184.289 195.06C181.689 197.66 182.992 202.107 186.585 202.891Z" stroke="black" stroke-opacity="0.69" stroke-width="1.3"/>
<path d="M154.2 232C153.315 234.778 149.852 235.706 147.696 233.743L137.266 224.246C134.928 222.116 135.869 218.243 138.924 217.425L153.638 213.482C156.693 212.663 159.445 215.547 158.484 218.561L154.2 232Z" fill="#FFF964"/>
<path d="M136.829 224.727L147.259 234.224C149.764 236.505 153.79 235.426 154.82 232.198L159.104 218.758C160.22 215.255 157.021 211.903 153.47 212.854L138.756 216.797C135.204 217.748 134.11 222.251 136.829 224.727Z" stroke="black" stroke-opacity="0.69" stroke-width="1.3"/>
<path d="M93.6983 233.743C91.5429 235.706 88.0795 234.778 87.1941 232L82.9101 218.561C81.9495 215.547 84.7013 212.663 87.7564 213.482L102.47 217.425C105.526 218.243 106.467 222.116 104.128 224.246L93.6983 233.743Z" fill="#FFF964"/>
<path d="M82.2908 218.758L86.5748 232.198C87.604 235.426 91.6303 236.505 94.1359 234.224L104.566 224.727C107.285 222.251 106.19 217.748 102.639 216.797L87.9247 212.854C84.3731 211.903 81.1741 215.255 82.2908 218.758Z" stroke="black" stroke-opacity="0.69" stroke-width="1.3"/>
<path d="M42.4293 205.266C39.5814 205.888 37.046 203.352 37.6679 200.505L40.6777 186.723C41.3526 183.633 45.1775 182.512 47.414 184.748L58.1854 195.52C60.4219 197.756 59.3006 201.581 56.2105 202.256L42.4293 205.266Z" fill="#FFF964"/>
<path d="M40.0427 186.585L37.0329 200.366C36.3099 203.677 39.2573 206.624 42.568 205.901L56.3491 202.891C59.9414 202.107 61.245 197.66 58.645 195.06L47.8736 184.289C45.2737 181.689 40.8272 182.992 40.0427 186.585Z" stroke="black" stroke-opacity="0.69" stroke-width="1.3"/>
<path d="M10.4042 154.2C7.62685 153.315 6.69882 149.852 8.66144 147.696L18.1586 137.266C20.2881 134.928 24.1612 135.869 24.9799 138.924L28.9225 153.638C29.7411 156.693 26.8575 159.445 23.8439 158.484L10.4042 154.2Z" fill="#FFF964"/>
<path d="M17.678 136.829L8.18083 147.259C5.89929 149.764 6.97812 153.79 10.2068 154.82L23.6465 159.104C27.1498 160.22 30.502 157.021 29.5503 153.47L25.6077 138.756C24.6561 135.204 20.1535 134.11 17.678 136.829Z" stroke="black" stroke-opacity="0.69" stroke-width="1.3"/>
<path d="M8.66149 93.6982C6.69887 91.5428 7.62689 88.0793 10.4043 87.194L23.844 82.91C26.8575 81.9494 29.7411 84.7012 28.9225 87.7563L24.9799 102.47C24.1613 105.525 20.2881 106.467 18.1586 104.128L8.66149 93.6982Z" fill="#FFF964"/>
<path d="M23.6466 82.2907L10.2069 86.5747C6.97815 87.6039 5.89933 91.6301 8.18088 94.1358L17.678 104.566C20.1535 107.284 24.6561 106.19 25.6078 102.639L29.5504 87.9246C30.502 84.3729 27.1498 81.174 23.6466 82.2907Z" stroke="black" stroke-opacity="0.69" stroke-width="1.3"/>
<path d="M37.668 38.9803C37.046 36.1324 39.5814 33.5969 42.4293 34.2189L56.2105 37.2287C59.3006 37.9036 60.422 41.7285 58.1855 43.965L47.4141 54.7364C45.1775 56.9729 41.3526 55.8515 40.6777 52.7615L37.668 38.9803Z" fill="#FFF964"/>
<path d="M56.3492 36.5937L42.568 33.5839C39.2573 32.8608 36.3099 35.8083 37.0329 39.119L40.0427 52.9001C40.8273 56.4924 45.2737 57.796 47.8737 55.196L58.6451 44.4246C61.245 41.8247 59.9414 37.3782 56.3492 36.5937Z" stroke="black" stroke-opacity="0.69" stroke-width="1.3"/>
<path d="M87.1939 10.4043C88.0792 7.62691 91.5426 6.69888 93.698 8.6615L104.128 18.1586C106.467 20.2881 105.525 24.1613 102.47 24.9799L87.7562 28.9225C84.701 29.7411 81.9492 26.8575 82.9098 23.844L87.1939 10.4043Z" fill="#FFF964"/>
<path d="M104.566 17.678L94.1356 8.1809C91.63 5.89935 87.6037 6.97818 86.5746 10.2069L82.2905 23.6466C81.1738 27.1498 84.3728 30.502 87.9244 29.5504L102.638 25.6078C106.19 24.6561 107.284 20.1536 104.566 17.678Z" stroke="black" stroke-opacity="0.69" stroke-width="1.3"/>
<path d="M147.696 8.66149C149.852 6.69886 153.315 7.62689 154.2 10.4043L158.484 23.844C159.445 26.8575 156.693 29.7411 153.638 28.9225L138.924 24.9799C135.869 24.1613 134.928 20.2881 137.266 18.1586L147.696 8.66149Z" fill="#FFF964"/>
<path d="M159.104 23.6466L154.82 10.2069C153.79 6.97815 149.764 5.89933 147.259 8.18088L136.829 17.678C134.11 20.1535 135.204 24.6561 138.756 25.6078L153.47 29.5504C157.021 30.502 160.22 27.1498 159.104 23.6466Z" stroke="black" stroke-opacity="0.69" stroke-width="1.3"/>
<ellipse cx="193.562" cy="246.022" rx="81.4045" ry="75.9775" fill="white"/>
<ellipse cx="276.775" cy="246.022" rx="81.4045" ry="75.9775" fill="white"/>
<ellipse cx="356.371" cy="246.022" rx="81.4045" ry="75.9775" fill="white"/>
<ellipse cx="244.213" cy="188.135" rx="81.4045" ry="75.9775" fill="white"/>
<ellipse cx="323.809" cy="213.461" rx="81.4045" ry="75.9775" fill="white"/>
<mask id="path-31-outside-1_33_21" maskUnits="userSpaceOnUse" x="110.157" y="110.157" width="329" height="214" fill="black">
<rect fill="white" x="110.157" y="110.157" width="329" height="214"/>
<path fill-rule="evenodd" clip-rule="evenodd" d="M161.838 176.03C163.158 175.509 164.13 174.355 164.431 172.969C171.961 138.274 204.819 112.157 244.213 112.157C268.35 112.157 290.034 121.962 304.941 137.536C305.918 138.557 307.341 139.027 308.733 138.784C313.618 137.93 318.658 137.483 323.809 137.483C355.514 137.483 382.986 154.4 396.428 179.091C396.81 179.793 397.383 180.373 398.081 180.763C421.856 194.028 437.775 218.29 437.775 246.022C437.775 287.984 401.329 322 356.371 322C342.674 322 329.768 318.843 318.442 313.266C317.264 312.686 315.882 312.686 314.704 313.266C303.378 318.843 290.472 322 276.775 322C262.381 322 248.859 318.513 237.127 312.395C235.9 311.755 234.437 311.755 233.21 312.395C221.478 318.513 207.956 322 193.562 322C148.603 322 112.157 287.984 112.157 246.022C112.157 214.565 132.641 187.573 161.838 176.03Z"/>
</mask>
<path fill-rule="evenodd" clip-rule="evenodd" d="M161.838 176.03C163.158 175.509 164.13 174.355 164.431 172.969C171.961 138.274 204.819 112.157 244.213 112.157C268.35 112.157 290.034 121.962 304.941 137.536C305.918 138.557 307.341 139.027 308.733 138.784C313.618 137.93 318.658 137.483 323.809 137.483C355.514 137.483 382.986 154.4 396.428 179.091C396.81 179.793 397.383 180.373 398.081 180.763C421.856 194.028 437.775 218.29 437.775 246.022C437.775 287.984 401.329 322 356.371 322C342.674 322 329.768 318.843 318.442 313.266C317.264 312.686 315.882 312.686 314.704 313.266C303.378 318.843 290.472 322 276.775 322C262.381 322 248.859 318.513 237.127 312.395C235.9 311.755 234.437 311.755 233.21 312.395C221.478 318.513 207.956 322 193.562 322C148.603 322 112.157 287.984 112.157 246.022C112.157 214.565 132.641 187.573 161.838 176.03Z" fill="white"/>
<path d="M237.127 312.395L237.728 311.242L237.127 312.395ZM233.21 312.395L232.609 311.242L233.21 312.395ZM396.428 179.091L395.286 179.713L396.428 179.091ZM398.081 180.763L397.447 181.898L398.081 180.763ZM318.442 313.266L317.867 314.432L318.442 313.266ZM314.704 313.266L314.13 312.1L314.704 313.266ZM304.941 137.536L304.002 138.435L304.941 137.536ZM308.733 138.784L308.956 140.064L308.733 138.784ZM164.431 172.969L165.701 173.245L164.431 172.969ZM161.838 176.03L162.316 177.239L161.838 176.03ZM244.213 110.857C204.256 110.857 170.83 137.355 163.16 172.693L165.701 173.245C173.092 139.194 205.383 113.457 244.213 113.457V110.857ZM305.88 136.637C290.727 120.806 268.705 110.857 244.213 110.857V113.457C267.996 113.457 289.34 123.117 304.002 138.435L305.88 136.637ZM323.809 136.183C318.583 136.183 313.468 136.636 308.509 137.503L308.956 140.064C313.768 139.223 318.733 138.783 323.809 138.783V136.183ZM397.569 178.469C383.894 153.348 355.976 136.183 323.809 136.183V138.783C355.052 138.783 382.079 155.452 395.286 179.713L397.569 178.469ZM397.447 181.898C420.856 194.959 436.475 218.81 436.475 246.022H439.075C439.075 217.77 422.856 193.097 398.714 179.627L397.447 181.898ZM436.475 246.022C436.475 287.183 400.697 320.7 356.371 320.7V323.3C401.961 323.3 439.075 288.785 439.075 246.022H436.475ZM356.371 320.7C342.875 320.7 330.165 317.59 319.016 312.1L317.867 314.432C329.371 320.096 342.473 323.3 356.371 323.3V320.7ZM276.775 323.3C290.672 323.3 303.775 320.096 315.279 314.432L314.13 312.1C302.981 317.59 290.271 320.7 276.775 320.7V323.3ZM236.525 313.547C248.442 319.762 262.17 323.3 276.775 323.3V320.7C262.592 320.7 249.276 317.264 237.728 311.242L236.525 313.547ZM193.562 323.3C208.167 323.3 221.895 319.762 233.812 313.547L232.609 311.242C221.061 317.264 207.745 320.7 193.562 320.7V323.3ZM110.857 246.022C110.857 288.785 147.971 323.3 193.562 323.3V320.7C149.235 320.7 113.457 287.183 113.457 246.022H110.857ZM161.36 174.821C131.725 186.537 110.857 213.972 110.857 246.022H113.457C113.457 215.158 133.557 188.608 162.316 177.239L161.36 174.821ZM237.728 311.242C236.125 310.406 234.212 310.406 232.609 311.242L233.812 313.547C234.661 313.104 235.676 313.104 236.525 313.547L237.728 311.242ZM395.286 179.713C395.785 180.629 396.534 181.388 397.447 181.898L398.714 179.627C398.232 179.358 397.834 178.956 397.569 178.469L395.286 179.713ZM319.016 312.1C317.476 311.342 315.67 311.342 314.13 312.1L315.279 314.432C316.094 314.031 317.052 314.031 317.867 314.432L319.016 312.1ZM304.002 138.435C305.277 139.768 307.136 140.382 308.956 140.064L308.509 137.503C307.546 137.671 306.559 137.346 305.88 136.637L304.002 138.435ZM163.16 172.693C162.951 173.66 162.273 174.461 161.36 174.821L162.316 177.239C164.043 176.557 165.309 175.051 165.701 173.245L163.16 172.693Z" fill="black" mask="url(#path-31-outside-1_33_21)"/>
<path d="M244.213 264.762C289.488 264.762 326.268 230.497 326.268 188.135C326.268 145.773 289.488 111.507 244.213 111.507C198.939 111.507 162.159 145.773 162.159 188.135C162.159 230.497 198.939 264.762 244.213 264.762Z" fill="white" stroke="url(#paint0_linear_33_21)" stroke-width="1.3"/>
<path d="M193.562 322.65C238.836 322.65 275.616 288.384 275.616 246.022C275.616 203.661 238.836 169.395 193.562 169.395C148.287 169.395 111.507 203.661 111.507 246.022C111.507 288.384 148.287 322.65 193.562 322.65Z" fill="white" stroke="url(#paint1_linear_33_21)" stroke-width="1.3"/>
<path d="M276.775 322.65C322.05 322.65 358.83 288.384 358.83 246.022C358.83 203.661 322.05 169.395 276.775 169.395C231.501 169.395 194.721 203.661 194.721 246.022C194.721 288.384 231.501 322.65 276.775 322.65Z" fill="white" stroke="url(#paint2_linear_33_21)" stroke-width="1.3"/>
<ellipse cx="356.371" cy="246.022" rx="81.4045" ry="75.9775" fill="white"/>
<path d="M356.371 322.65C401.645 322.65 438.425 288.384 438.425 246.022C438.425 203.661 401.645 169.395 356.371 169.395C311.096 169.395 274.316 203.661 274.316 246.022C274.316 288.384 311.096 322.65 356.371 322.65Z" stroke="url(#paint3_linear_33_21)" stroke-opacity="0.88" stroke-width="1.3"/>
<defs>
<linearGradient id="paint0_linear_33_21" x1="144.719" y1="130.247" x2="345.517" y2="135.674" gradientUnits="userSpaceOnUse">
<stop/>
<stop offset="1" stop-opacity="0"/>
</linearGradient>
<linearGradient id="paint1_linear_33_21" x1="112.157" y1="280.393" x2="256.876" y2="276.775" gradientUnits="userSpaceOnUse">
<stop stop-opacity="0.54"/>
<stop offset="0.884367" stop-opacity="0"/>
</linearGradient>
<linearGradient id="paint2_linear_33_21" x1="336.472" y1="322" x2="274.966" y2="206.225" gradientUnits="userSpaceOnUse">
<stop stop-opacity="0.3"/>
<stop offset="1" stop-opacity="0"/>
</linearGradient>
<linearGradient id="paint3_linear_33_21" x1="437.775" y1="269.539" x2="433.56" y2="280.687" gradientUnits="userSpaceOnUse">
<stop stop-opacity="0.35"/>
<stop offset="1" stop-opacity="0"/>
</linearGradient>
</defs>
</svg>
