<svg width="337" height="314" viewBox="0 0 337 314" fill="none" xmlns="http://www.w3.org/2000/svg">
<path d="M140.298 303.142C140.408 302.895 140.759 302.895 140.868 303.142L141.659 304.924C141.727 305.075 141.901 305.148 142.056 305.088L143.875 304.388C144.128 304.291 144.376 304.539 144.279 304.791L143.578 306.61C143.519 306.765 143.591 306.94 143.743 307.007L145.524 307.798C145.771 307.908 145.771 308.259 145.524 308.369L143.743 309.159C143.591 309.227 143.519 309.402 143.578 309.557L144.279 311.376C144.376 311.628 144.128 311.876 143.875 311.779L142.056 311.079C141.901 311.019 141.727 311.091 141.659 311.243L140.868 313.024C140.759 313.272 140.408 313.272 140.298 313.024L139.507 311.243C139.44 311.091 139.265 311.019 139.11 311.079L137.291 311.779C137.038 311.876 136.79 311.628 136.888 311.376L137.588 309.557C137.648 309.402 137.575 309.227 137.423 309.159L135.642 308.369C135.395 308.259 135.395 307.908 135.642 307.798L137.423 307.007C137.575 306.94 137.648 306.765 137.588 306.61L136.888 304.791C136.79 304.539 137.038 304.291 137.291 304.388L139.11 305.088C139.265 305.148 139.44 305.075 139.507 304.924L140.298 303.142Z" fill="#00A3FF"/>
<path d="M141.888 304.822L141.097 303.041C140.899 302.596 140.267 302.596 140.069 303.041L139.278 304.822C139.265 304.852 139.23 304.867 139.2 304.855L137.381 304.154C136.926 303.979 136.479 304.426 136.654 304.881L137.355 306.7C137.366 306.731 137.352 306.765 137.322 306.779L135.541 307.57C135.095 307.767 135.095 308.399 135.541 308.597L137.322 309.388C137.352 309.401 137.366 309.436 137.355 309.467L136.654 311.286C136.479 311.74 136.926 312.187 137.381 312.012L139.2 311.312C139.23 311.3 139.265 311.314 139.278 311.345L140.069 313.126C140.267 313.571 140.899 313.571 141.097 313.126L141.888 311.345C141.901 311.314 141.936 311.3 141.967 311.312L143.785 312.012C144.24 312.187 144.687 311.74 144.512 311.286L143.812 309.467C143.8 309.436 143.814 309.401 143.844 309.388L145.626 308.597C146.071 308.399 146.071 307.767 145.626 307.57L143.844 306.779C143.814 306.765 143.8 306.731 143.812 306.7L144.512 304.881C144.687 304.426 144.24 303.979 143.785 304.154L141.967 304.855C141.936 304.867 141.901 304.852 141.888 304.822Z" stroke="black" stroke-opacity="0.73" stroke-width="0.5"/>
<path d="M125.409 273.364C125.519 273.117 125.87 273.117 125.98 273.364L126.771 275.146C126.838 275.298 127.013 275.37 127.168 275.31L128.987 274.61C129.239 274.513 129.487 274.761 129.39 275.013L128.69 276.832C128.63 276.987 128.703 277.162 128.854 277.229L130.636 278.02C130.883 278.13 130.883 278.481 130.636 278.591L128.854 279.382C128.703 279.449 128.63 279.624 128.69 279.779L129.39 281.598C129.487 281.85 129.239 282.098 128.987 282.001L127.168 281.301C127.013 281.241 126.838 281.313 126.771 281.465L125.98 283.247C125.87 283.494 125.519 283.494 125.409 283.247L124.619 281.465C124.551 281.313 124.376 281.241 124.221 281.301L122.402 282.001C122.15 282.098 121.902 281.85 121.999 281.598L122.699 279.779C122.759 279.624 122.687 279.449 122.535 279.382L120.754 278.591C120.506 278.481 120.506 278.13 120.754 278.02L122.535 277.229C122.687 277.162 122.759 276.987 122.699 276.832L121.999 275.013C121.902 274.761 122.15 274.513 122.402 274.61L124.221 275.31C124.376 275.37 124.551 275.298 124.619 275.146L125.409 273.364Z" fill="#00A3FF"/>
<path d="M126.999 275.044L126.208 273.263C126.011 272.818 125.379 272.818 125.181 273.263L124.39 275.044C124.377 275.074 124.342 275.089 124.311 275.077L122.492 274.377C122.038 274.202 121.591 274.648 121.766 275.103L122.466 276.922C122.478 276.953 122.464 276.988 122.433 277.001L120.652 277.792C120.207 277.99 120.207 278.621 120.652 278.819L122.433 279.61C122.464 279.624 122.478 279.658 122.466 279.689L121.766 281.508C121.591 281.963 122.038 282.409 122.492 282.234L124.311 281.534C124.342 281.522 124.377 281.537 124.39 281.567L125.181 283.348C125.379 283.793 126.011 283.793 126.208 283.348L126.999 281.567C127.013 281.537 127.047 281.522 127.078 281.534L128.897 282.234C129.352 282.409 129.799 281.963 129.623 281.508L128.923 279.689C128.911 279.658 128.926 279.624 128.956 279.61L130.737 278.819C131.182 278.621 131.182 277.99 130.737 277.792L128.956 277.001C128.926 276.988 128.911 276.953 128.923 276.922L129.623 275.103C129.799 274.648 129.352 274.202 128.897 274.377L127.078 275.077C127.047 275.089 127.013 275.074 126.999 275.044Z" stroke="black" stroke-opacity="0.73" stroke-width="0.5"/>
<path d="M84.4651 288.253C84.5749 288.006 84.9257 288.006 85.0355 288.253L85.8264 290.035C85.8939 290.187 86.0686 290.259 86.2237 290.199L88.0426 289.499C88.295 289.402 88.543 289.65 88.4459 289.902L87.7456 291.721C87.6859 291.876 87.7582 292.051 87.9102 292.118L89.6914 292.909C89.9386 293.019 89.9386 293.37 89.6914 293.48L87.9102 294.271C87.7582 294.338 87.6859 294.513 87.7456 294.668L88.4459 296.487C88.543 296.739 88.295 296.987 88.0426 296.89L86.2237 296.19C86.0686 296.13 85.8939 296.202 85.8264 296.354L85.0355 298.136C84.9257 298.383 84.5749 298.383 84.4651 298.136L83.6742 296.354C83.6068 296.202 83.432 296.13 83.2769 296.19L81.4581 296.89C81.2057 296.987 80.9576 296.739 81.0548 296.487L81.7551 294.668C81.8148 294.513 81.7424 294.338 81.5905 294.271L79.8092 293.48C79.562 293.37 79.562 293.019 79.8092 292.909L81.5905 292.118C81.7424 292.051 81.8148 291.876 81.7551 291.721L81.0548 289.902C80.9576 289.65 81.2057 289.402 81.4581 289.499L83.2769 290.199C83.432 290.259 83.6068 290.187 83.6742 290.035L84.4651 288.253Z" fill="#00A3FF"/>
<path d="M86.0549 289.933L85.264 288.152C85.0663 287.707 84.4344 287.707 84.2367 288.152L83.4457 289.933C83.4323 289.963 83.3976 289.978 83.3667 289.966L81.5479 289.266C81.0933 289.091 80.6464 289.537 80.8215 289.992L81.5218 291.811C81.5336 291.842 81.5192 291.876 81.489 291.89L79.7078 292.681C79.2625 292.878 79.2625 293.51 79.7078 293.708L81.489 294.499C81.5192 294.512 81.5336 294.547 81.5218 294.578L80.8215 296.397C80.6464 296.851 81.0933 297.298 81.5479 297.123L83.3667 296.423C83.3976 296.411 83.4323 296.426 83.4457 296.456L84.2367 298.237C84.4344 298.682 85.0663 298.682 85.264 298.237L86.0549 296.456C86.0683 296.426 86.1031 296.411 86.1339 296.423L87.9527 297.123C88.4074 297.298 88.8542 296.851 88.6792 296.397L87.9789 294.578C87.967 294.547 87.9814 294.512 88.0116 294.499L89.7929 293.708C90.2381 293.51 90.2381 292.878 89.7929 292.681L88.0116 291.89C87.9814 291.876 87.967 291.842 87.9789 291.811L88.6792 289.992C88.8542 289.537 88.4074 289.091 87.9527 289.266L86.1339 289.966C86.1031 289.978 86.0683 289.963 86.0549 289.933Z" stroke="black" stroke-opacity="0.73" stroke-width="0.5"/>
<path d="M62.1317 254.753C62.2414 254.506 62.5922 254.506 62.702 254.753L63.4929 256.535C63.5604 256.687 63.7351 256.759 63.8902 256.699L65.7091 255.999C65.9615 255.902 66.2095 256.15 66.1124 256.402L65.4121 258.221C65.3524 258.376 65.4247 258.551 65.5767 258.618L67.3579 259.409C67.6051 259.519 67.6051 259.87 67.3579 259.98L65.5767 260.771C65.4247 260.838 65.3524 261.013 65.4121 261.168L66.1124 262.987C66.2095 263.239 65.9615 263.487 65.7091 263.39L63.8902 262.69C63.7351 262.63 63.5604 262.702 63.4929 262.854L62.702 264.636C62.5922 264.883 62.2414 264.883 62.1317 264.636L61.3407 262.854C61.2733 262.702 61.0985 262.63 60.9434 262.69L59.1246 263.39C58.8722 263.487 58.6241 263.239 58.7213 262.987L59.4216 261.168C59.4813 261.013 59.4089 260.838 59.257 260.771L57.4757 259.98C57.2285 259.87 57.2285 259.519 57.4757 259.409L59.257 258.618C59.4089 258.551 59.4813 258.376 59.4216 258.221L58.7213 256.402C58.6241 256.15 58.8722 255.902 59.1246 255.999L60.9434 256.699C61.0985 256.759 61.2733 256.687 61.3407 256.535L62.1317 254.753Z" fill="#00A3FF"/>
<path d="M63.7214 256.433L62.9305 254.652C62.7328 254.207 62.1009 254.207 61.9032 254.652L61.1122 256.433C61.0988 256.463 61.0641 256.478 61.0332 256.466L59.2144 255.766C58.7598 255.591 58.313 256.037 58.488 256.492L59.1883 258.311C59.2001 258.342 59.1857 258.376 59.1555 258.39L57.3743 259.181C56.929 259.378 56.929 260.01 57.3743 260.208L59.1555 260.999C59.1857 261.012 59.2001 261.047 59.1883 261.078L58.488 262.897C58.313 263.351 58.7598 263.798 59.2144 263.623L61.0332 262.923C61.0641 262.911 61.0988 262.926 61.1122 262.956L61.9032 264.737C62.1009 265.182 62.7328 265.182 62.9305 264.737L63.7214 262.956C63.7348 262.926 63.7696 262.911 63.8004 262.923L65.6192 263.623C66.0739 263.798 66.5207 263.351 66.3457 262.897L65.6454 261.078C65.6335 261.047 65.6479 261.012 65.6781 260.999L67.4594 260.208C67.9046 260.01 67.9046 259.378 67.4594 259.181L65.6781 258.39C65.6479 258.376 65.6335 258.342 65.6454 258.311L66.3457 256.492C66.5207 256.037 66.0739 255.591 65.6192 255.766L63.8004 256.466C63.7696 256.478 63.7348 256.463 63.7214 256.433Z" stroke="black" stroke-opacity="0.73" stroke-width="0.5"/>
<path d="M170.076 269.642C170.186 269.395 170.536 269.395 170.646 269.642L171.437 271.423C171.504 271.575 171.679 271.648 171.834 271.588L173.653 270.888C173.906 270.791 174.154 271.039 174.056 271.291L173.356 273.11C173.296 273.265 173.369 273.44 173.521 273.507L175.302 274.298C175.549 274.408 175.549 274.759 175.302 274.868L173.521 275.659C173.369 275.727 173.296 275.902 173.356 276.057L174.056 277.876C174.154 278.128 173.906 278.376 173.653 278.279L171.834 277.579C171.679 277.519 171.504 277.591 171.437 277.743L170.646 279.524C170.536 279.772 170.186 279.772 170.076 279.524L169.285 277.743C169.217 277.591 169.043 277.519 168.888 277.579L167.069 278.279C166.816 278.376 166.568 278.128 166.665 277.876L167.366 276.057C167.425 275.902 167.353 275.727 167.201 275.659L165.42 274.868C165.173 274.759 165.173 274.408 165.42 274.298L167.201 273.507C167.353 273.44 167.425 273.265 167.366 273.11L166.665 271.291C166.568 271.039 166.816 270.791 167.069 270.888L168.888 271.588C169.043 271.648 169.217 271.575 169.285 271.423L170.076 269.642Z" fill="#00A3FF"/>
<path d="M171.666 271.322L170.875 269.541C170.677 269.096 170.045 269.096 169.847 269.541L169.056 271.322C169.043 271.352 169.008 271.367 168.977 271.355L167.159 270.654C166.704 270.479 166.257 270.926 166.432 271.381L167.132 273.2C167.144 273.231 167.13 273.265 167.1 273.279L165.318 274.07C164.873 274.267 164.873 274.899 165.318 275.097L167.1 275.888C167.13 275.901 167.144 275.936 167.132 275.967L166.432 277.786C166.257 278.24 166.704 278.687 167.159 278.512L168.977 277.812C169.008 277.8 169.043 277.814 169.056 277.845L169.847 279.626C170.045 280.071 170.677 280.071 170.875 279.626L171.666 277.845C171.679 277.814 171.714 277.8 171.745 277.812L173.563 278.512C174.018 278.687 174.465 278.24 174.29 277.786L173.589 275.967C173.578 275.936 173.592 275.901 173.622 275.888L175.403 275.097C175.849 274.899 175.849 274.267 175.403 274.07L173.622 273.279C173.592 273.265 173.578 273.231 173.589 273.2L174.29 271.381C174.465 270.926 174.018 270.479 173.563 270.654L171.745 271.355C171.714 271.367 171.679 271.352 171.666 271.322Z" stroke="black" stroke-opacity="0.73" stroke-width="0.5"/>
<path d="M207.298 277.087C207.408 276.839 207.759 276.839 207.869 277.087L208.66 278.868C208.727 279.02 208.902 279.092 209.057 279.032L210.876 278.332C211.128 278.235 211.376 278.483 211.279 278.736L210.579 280.554C210.519 280.709 210.591 280.884 210.743 280.952L212.525 281.743C212.772 281.852 212.772 282.203 212.525 282.313L210.743 283.104C210.591 283.171 210.519 283.346 210.579 283.501L211.279 285.32C211.376 285.572 211.128 285.82 210.876 285.723L209.057 285.023C208.902 284.963 208.727 285.036 208.66 285.188L207.869 286.969C207.759 287.216 207.408 287.216 207.298 286.969L206.507 285.188C206.44 285.036 206.265 284.963 206.11 285.023L204.291 285.723C204.039 285.82 203.791 285.572 203.888 285.32L204.588 283.501C204.648 283.346 204.576 283.171 204.424 283.104L202.642 282.313C202.395 282.203 202.395 281.852 202.642 281.743L204.424 280.952C204.576 280.884 204.648 280.709 204.588 280.554L203.888 278.736C203.791 278.483 204.039 278.235 204.291 278.332L206.11 279.032C206.265 279.092 206.44 279.02 206.507 278.868L207.298 277.087Z" fill="#00A3FF"/>
<path d="M208.888 278.766L208.097 276.985C207.9 276.54 207.268 276.54 207.07 276.985L206.279 278.766C206.266 278.797 206.231 278.811 206.2 278.799L204.381 278.099C203.927 277.924 203.48 278.371 203.655 278.825L204.355 280.644C204.367 280.675 204.352 280.71 204.322 280.723L202.541 281.514C202.096 281.712 202.096 282.344 202.541 282.541L204.322 283.332C204.352 283.346 204.367 283.381 204.355 283.411L203.655 285.23C203.48 285.685 203.927 286.132 204.381 285.957L206.2 285.256C206.231 285.244 206.266 285.259 206.279 285.289L207.07 287.07C207.268 287.516 207.9 287.516 208.097 287.07L208.888 285.289C208.902 285.259 208.936 285.244 208.967 285.256L210.786 285.957C211.241 286.132 211.687 285.685 211.512 285.23L210.812 283.411C210.8 283.381 210.815 283.346 210.845 283.332L212.626 282.541C213.071 282.344 213.071 281.712 212.626 281.514L210.845 280.723C210.815 280.71 210.8 280.675 210.812 280.644L211.512 278.825C211.687 278.371 211.241 277.924 210.786 278.099L208.967 278.799C208.936 278.811 208.902 278.797 208.888 278.766Z" stroke="black" stroke-opacity="0.73" stroke-width="0.5"/>
<mask id="path-13-inside-1_38_208" fill="white">
<path fill-rule="evenodd" clip-rule="evenodd" d="M82.81 232.125L100.716 176.871L88.2179 233.593C88.1953 233.696 88.1674 233.796 88.1346 233.893L86.6118 241.727C86.2386 243.647 84.3157 244.849 82.4261 244.342C80.5365 243.836 79.472 241.834 80.109 239.984L82.7739 232.245C82.785 232.205 82.797 232.165 82.81 232.125Z"/>
</mask>
<path fill-rule="evenodd" clip-rule="evenodd" d="M82.81 232.125L100.716 176.871L88.2179 233.593C88.1953 233.696 88.1674 233.796 88.1346 233.893L86.6118 241.727C86.2386 243.647 84.3157 244.849 82.4261 244.342C80.5365 243.836 79.472 241.834 80.109 239.984L82.7739 232.245C82.785 232.205 82.797 232.165 82.81 232.125Z" fill="#00A3FF"/>
<path d="M100.716 176.871L100.24 176.716L101.204 176.978L100.716 176.871ZM82.81 232.125L82.3343 231.971L82.3343 231.971L82.81 232.125ZM88.2179 233.593L87.7296 233.486L87.7296 233.486L88.2179 233.593ZM88.1346 233.893L87.6438 233.797L87.6502 233.764L87.661 233.732L88.1346 233.893ZM86.6118 241.727L87.1026 241.822L87.1026 241.822L86.6118 241.727ZM80.109 239.984L80.5817 240.147L80.5817 240.147L80.109 239.984ZM82.7739 232.245L83.2558 232.378L83.2517 232.393L83.2466 232.408L82.7739 232.245ZM101.192 177.025L83.2856 232.279L82.3343 231.971L100.24 176.716L101.192 177.025ZM87.7296 233.486L100.228 176.763L101.204 176.978L88.7062 233.701L87.7296 233.486ZM87.661 233.732C87.688 233.653 87.7109 233.57 87.7296 233.486L88.7062 233.701C88.6797 233.821 88.6469 233.939 88.6082 234.053L87.661 233.732ZM86.121 241.632L87.6438 233.797L88.6254 233.988L87.1026 241.822L86.121 241.632ZM82.5555 243.86C84.1652 244.291 85.8031 243.267 86.121 241.632L87.1026 241.822C86.6741 244.027 84.4663 245.407 82.2967 244.825L82.5555 243.86ZM80.5817 240.147C80.0392 241.723 80.9459 243.428 82.5555 243.86L82.2967 244.825C80.1271 244.244 78.9049 241.945 79.6362 239.822L80.5817 240.147ZM83.2466 232.408L80.5817 240.147L79.6362 239.822L82.3011 232.082L83.2466 232.408ZM83.2856 232.279C83.2749 232.312 83.265 232.345 83.2558 232.378L82.2919 232.112C82.305 232.065 82.3191 232.018 82.3343 231.971L83.2856 232.279Z" fill="black" fill-opacity="0.68" mask="url(#path-13-inside-1_38_208)"/>
<mask id="path-15-inside-2_38_208" fill="white">
<path fill-rule="evenodd" clip-rule="evenodd" d="M131.199 228.403L149.105 173.148L136.607 229.871C136.585 229.973 136.557 230.072 136.524 230.169L135.001 238.005C134.628 239.925 132.705 241.127 130.816 240.62C128.926 240.114 127.861 238.112 128.498 236.262L131.162 228.525C131.174 228.484 131.186 228.443 131.199 228.403Z"/>
</mask>
<path fill-rule="evenodd" clip-rule="evenodd" d="M131.199 228.403L149.105 173.148L136.607 229.871C136.585 229.973 136.557 230.072 136.524 230.169L135.001 238.005C134.628 239.925 132.705 241.127 130.816 240.62C128.926 240.114 127.861 238.112 128.498 236.262L131.162 228.525C131.174 228.484 131.186 228.443 131.199 228.403Z" fill="#00A3FF"/>
<path d="M149.105 173.148L148.63 172.994L149.594 173.256L149.105 173.148ZM131.199 228.403L131.675 228.557L131.675 228.557L131.199 228.403ZM136.607 229.871L136.119 229.763L136.119 229.763L136.607 229.871ZM136.524 230.169L136.033 230.074L136.04 230.041L136.051 230.009L136.524 230.169ZM135.001 238.005L135.492 238.1L135.492 238.1L135.001 238.005ZM128.498 236.262L128.026 236.099L128.026 236.099L128.498 236.262ZM131.162 228.525L131.645 228.658L131.64 228.673L131.635 228.688L131.162 228.525ZM149.581 173.302L131.675 228.557L130.724 228.248L148.63 172.994L149.581 173.302ZM136.119 229.763L148.617 173.041L149.594 173.256L137.095 229.979L136.119 229.763ZM136.051 230.009C136.077 229.93 136.1 229.848 136.119 229.763L137.095 229.979C137.069 230.098 137.036 230.215 136.998 230.329L136.051 230.009ZM134.51 237.909L136.033 230.074L137.015 230.265L135.492 238.1L134.51 237.909ZM130.945 240.137C132.555 240.569 134.192 239.545 134.51 237.909L135.492 238.1C135.063 240.305 132.856 241.685 130.686 241.103L130.945 240.137ZM128.971 236.425C128.429 238.001 129.335 239.706 130.945 240.137L130.686 241.103C128.516 240.522 127.294 238.223 128.026 236.099L128.971 236.425ZM131.635 228.688L128.971 236.425L128.026 236.099L130.69 228.363L131.635 228.688ZM131.675 228.557C131.664 228.591 131.654 228.624 131.645 228.658L130.68 228.393C130.694 228.345 130.708 228.296 130.724 228.248L131.675 228.557Z" fill="black" fill-opacity="0.68" mask="url(#path-15-inside-2_38_208)"/>
<mask id="path-17-inside-3_38_208" fill="white">
<path fill-rule="evenodd" clip-rule="evenodd" d="M172.144 235.847L190.05 180.593L177.551 237.315C177.529 237.417 177.501 237.517 177.469 237.614L175.946 245.449C175.572 247.369 173.649 248.571 171.76 248.065C169.87 247.558 168.806 245.556 169.443 243.707L172.107 235.97C172.118 235.929 172.13 235.888 172.144 235.847Z"/>
</mask>
<path fill-rule="evenodd" clip-rule="evenodd" d="M172.144 235.847L190.05 180.593L177.551 237.315C177.529 237.417 177.501 237.517 177.469 237.614L175.946 245.449C175.572 247.369 173.649 248.571 171.76 248.065C169.87 247.558 168.806 245.556 169.443 243.707L172.107 235.97C172.118 235.929 172.13 235.888 172.144 235.847Z" fill="#00A3FF"/>
<path d="M190.05 180.593L189.574 180.439L190.538 180.7L190.05 180.593ZM172.144 235.847L172.619 236.001L172.619 236.001L172.144 235.847ZM177.551 237.315L177.063 237.208L177.063 237.208L177.551 237.315ZM177.469 237.614L176.978 237.518L176.984 237.485L176.995 237.454L177.469 237.614ZM175.946 245.449L176.436 245.544L176.436 245.544L175.946 245.449ZM169.443 243.707L168.97 243.544L168.97 243.544L169.443 243.707ZM172.107 235.97L172.589 236.103L172.585 236.118L172.58 236.133L172.107 235.97ZM190.525 180.747L172.619 236.001L171.668 235.693L189.574 180.439L190.525 180.747ZM177.063 237.208L189.561 180.485L190.538 180.7L178.04 237.423L177.063 237.208ZM176.995 237.454C177.022 237.374 177.045 237.292 177.063 237.208L178.04 237.423C178.013 237.543 177.981 237.66 177.942 237.774L176.995 237.454ZM175.455 245.354L176.978 237.518L177.959 237.709L176.436 245.544L175.455 245.354ZM171.889 247.582C173.499 248.013 175.137 246.989 175.455 245.354L176.436 245.544C176.008 247.749 173.8 249.129 171.63 248.548L171.889 247.582ZM169.915 243.869C169.373 245.445 170.28 247.15 171.889 247.582L171.63 248.548C169.461 247.966 168.239 245.668 168.97 243.544L169.915 243.869ZM172.58 236.133L169.915 243.869L168.97 243.544L171.634 235.807L172.58 236.133ZM172.619 236.001C172.608 236.035 172.598 236.069 172.589 236.103L171.625 235.837C171.638 235.789 171.652 235.741 171.668 235.693L172.619 236.001Z" fill="black" fill-opacity="0.68" mask="url(#path-17-inside-3_38_208)"/>
<mask id="path-19-inside-4_38_208" fill="white">
<path fill-rule="evenodd" clip-rule="evenodd" d="M220.532 228.403L238.438 173.148L225.94 229.871C225.918 229.973 225.89 230.073 225.857 230.17L224.334 238.005C223.961 239.925 222.038 241.127 220.149 240.62C218.259 240.114 217.194 238.112 217.831 236.262L220.496 228.523C220.507 228.483 220.519 228.443 220.532 228.403Z"/>
</mask>
<path fill-rule="evenodd" clip-rule="evenodd" d="M220.532 228.403L238.438 173.148L225.94 229.871C225.918 229.973 225.89 230.073 225.857 230.17L224.334 238.005C223.961 239.925 222.038 241.127 220.149 240.62C218.259 240.114 217.194 238.112 217.831 236.262L220.496 228.523C220.507 228.483 220.519 228.443 220.532 228.403Z" fill="#00A3FF"/>
<path d="M238.438 173.148L237.963 172.994L238.927 173.256L238.438 173.148ZM220.532 228.403L221.008 228.557L221.008 228.557L220.532 228.403ZM225.94 229.871L225.452 229.763L225.452 229.763L225.94 229.871ZM225.857 230.17L225.366 230.075L225.373 230.042L225.383 230.01L225.857 230.17ZM224.334 238.005L224.825 238.1L224.825 238.1L224.334 238.005ZM217.831 236.262L217.359 236.099L217.831 236.262ZM220.496 228.523L220.978 228.656L220.974 228.671L220.969 228.686L220.496 228.523ZM238.914 173.303L221.008 228.557L220.057 228.249L237.963 172.994L238.914 173.303ZM225.452 229.763L237.95 173.041L238.927 173.256L226.429 229.979L225.452 229.763ZM225.383 230.01C225.41 229.93 225.433 229.848 225.452 229.763L226.429 229.979C226.402 230.099 226.369 230.216 226.331 230.331L225.383 230.01ZM223.843 237.909L225.366 230.075L226.348 230.266L224.825 238.1L223.843 237.909ZM220.278 240.137C221.888 240.569 223.525 239.545 223.843 237.909L224.825 238.1C224.396 240.305 222.189 241.685 220.019 241.103L220.278 240.137ZM218.304 236.425C217.762 238.001 218.668 239.706 220.278 240.137L220.019 241.103C217.849 240.522 216.627 238.223 217.359 236.099L218.304 236.425ZM220.969 228.686L218.304 236.425L217.359 236.099L220.024 228.36L220.969 228.686ZM221.008 228.557C220.997 228.59 220.987 228.623 220.978 228.656L220.014 228.39C220.027 228.343 220.042 228.296 220.057 228.249L221.008 228.557Z" fill="black" fill-opacity="0.68" mask="url(#path-19-inside-4_38_208)"/>
<mask id="path-21-inside-5_38_208" fill="white">
<path fill-rule="evenodd" clip-rule="evenodd" d="M257.754 239.569L275.66 184.315L263.162 241.038C263.14 241.14 263.112 241.24 263.079 241.337L261.556 249.171C261.183 251.092 259.26 252.293 257.37 251.787C255.481 251.281 254.416 249.279 255.053 247.429L257.718 239.69C257.729 239.65 257.741 239.609 257.754 239.569Z"/>
</mask>
<path fill-rule="evenodd" clip-rule="evenodd" d="M257.754 239.569L275.66 184.315L263.162 241.038C263.14 241.14 263.112 241.24 263.079 241.337L261.556 249.171C261.183 251.092 259.26 252.293 257.37 251.787C255.481 251.281 254.416 249.279 255.053 247.429L257.718 239.69C257.729 239.65 257.741 239.609 257.754 239.569Z" fill="#00A3FF"/>
<path d="M275.66 184.315L275.185 184.161L276.149 184.423L275.66 184.315ZM257.754 239.569L258.23 239.723L258.23 239.723L257.754 239.569ZM263.162 241.038L262.674 240.93L262.674 240.93L263.162 241.038ZM263.079 241.337L262.588 241.242L262.595 241.209L262.605 241.177L263.079 241.337ZM261.556 249.171L261.065 249.076L261.065 249.076L261.556 249.171ZM255.053 247.429L254.581 247.266L255.053 247.429ZM257.718 239.69L258.2 239.823L258.196 239.838L258.191 239.853L257.718 239.69ZM276.136 184.469L258.23 239.723L257.279 239.415L275.185 184.161L276.136 184.469ZM262.674 240.93L275.172 184.207L276.149 184.423L263.65 241.145L262.674 240.93ZM262.605 241.177C262.632 241.097 262.655 241.015 262.674 240.93L263.65 241.145C263.624 241.266 263.591 241.383 263.553 241.497L262.605 241.177ZM261.065 249.076L262.588 241.242L263.57 241.432L262.047 249.267L261.065 249.076ZM257.5 251.304C259.109 251.735 260.747 250.712 261.065 249.076L262.047 249.267C261.618 251.472 259.411 252.851 257.241 252.27L257.5 251.304ZM255.526 247.592C254.984 249.167 255.89 250.873 257.5 251.304L257.241 252.27C255.071 251.689 253.849 249.39 254.581 247.266L255.526 247.592ZM258.191 239.853L255.526 247.592L254.581 247.266L257.245 239.527L258.191 239.853ZM258.23 239.723C258.219 239.757 258.209 239.79 258.2 239.823L257.236 239.557C257.249 239.509 257.263 239.462 257.279 239.415L258.23 239.723Z" fill="black" fill-opacity="0.68" mask="url(#path-21-inside-5_38_208)"/>
<mask id="path-23-inside-6_38_208" fill="white">
<path fill-rule="evenodd" clip-rule="evenodd" d="M56.7547 220.958L74.6607 165.704L62.1625 222.427C62.1401 222.529 62.1123 222.628 62.0796 222.725L60.5567 230.56C60.1834 232.481 58.2606 233.682 56.3709 233.176C54.4813 232.669 53.4169 230.668 54.0538 228.818L56.7179 221.081C56.7292 221.04 56.7414 220.999 56.7547 220.958Z"/>
</mask>
<path fill-rule="evenodd" clip-rule="evenodd" d="M56.7547 220.958L74.6607 165.704L62.1625 222.427C62.1401 222.529 62.1123 222.628 62.0796 222.725L60.5567 230.56C60.1834 232.481 58.2606 233.682 56.3709 233.176C54.4813 232.669 53.4169 230.668 54.0538 228.818L56.7179 221.081C56.7292 221.04 56.7414 220.999 56.7547 220.958Z" fill="#00A3FF"/>
<path d="M74.6607 165.704L74.1851 165.55L75.149 165.812L74.6607 165.704ZM56.7547 220.958L57.2303 221.112L57.2303 221.112L56.7547 220.958ZM62.1625 222.427L61.6742 222.319L61.6742 222.319L62.1625 222.427ZM62.0796 222.725L61.5888 222.629L61.5952 222.596L61.6059 222.565L62.0796 222.725ZM60.5567 230.56L60.0658 230.465L60.0658 230.465L60.5567 230.56ZM54.0538 228.818L54.5266 228.981L54.5266 228.981L54.0538 228.818ZM56.7179 221.081L57.2 221.214L57.1958 221.229L57.1906 221.244L56.7179 221.081ZM75.1364 165.858L57.2303 221.112L56.279 220.804L74.1851 165.55L75.1364 165.858ZM61.6742 222.319L74.1724 165.596L75.149 165.812L62.6508 222.534L61.6742 222.319ZM61.6059 222.565C61.6328 222.485 61.6557 222.403 61.6742 222.319L62.6508 222.534C62.6244 222.654 62.5918 222.771 62.5533 222.885L61.6059 222.565ZM60.0658 230.465L61.5888 222.629L62.5705 222.82L61.0475 230.656L60.0658 230.465ZM56.5004 232.693C58.11 233.124 59.7479 232.101 60.0658 230.465L61.0475 230.656C60.6189 232.861 58.4112 234.24 56.2415 233.659L56.5004 232.693ZM54.5266 228.981C53.984 230.556 54.8907 232.262 56.5004 232.693L56.2415 233.659C54.0719 233.077 52.8497 230.779 53.581 228.655L54.5266 228.981ZM57.1906 221.244L54.5266 228.981L53.581 228.655L56.2451 220.918L57.1906 221.244ZM57.2303 221.112C57.2194 221.146 57.2093 221.18 57.2 221.214L56.2358 220.948C56.2491 220.9 56.2635 220.852 56.279 220.804L57.2303 221.112Z" fill="black" fill-opacity="0.68" mask="url(#path-23-inside-6_38_208)"/>
<mask id="path-25-inside-7_38_208" fill="white">
<path fill-rule="evenodd" clip-rule="evenodd" d="M231.699 254.458L249.605 199.204L237.107 255.927C237.084 256.029 237.057 256.129 237.024 256.226L235.501 264.06C235.128 265.981 233.205 267.182 231.315 266.676C229.426 266.169 228.361 264.168 228.998 262.318L231.663 254.579C231.674 254.538 231.686 254.498 231.699 254.458Z"/>
</mask>
<path fill-rule="evenodd" clip-rule="evenodd" d="M231.699 254.458L249.605 199.204L237.107 255.927C237.084 256.029 237.057 256.129 237.024 256.226L235.501 264.06C235.128 265.981 233.205 267.182 231.315 266.676C229.426 266.169 228.361 264.168 228.998 262.318L231.663 254.579C231.674 254.538 231.686 254.498 231.699 254.458Z" fill="#00A3FF"/>
<path d="M249.605 199.204L249.13 199.05L250.093 199.312L249.605 199.204ZM231.699 254.458L232.175 254.612L232.175 254.612L231.699 254.458ZM237.107 255.927L236.619 255.819L236.619 255.819L237.107 255.927ZM237.024 256.226L236.533 256.13L236.539 256.097L236.55 256.066L237.024 256.226ZM235.501 264.06L235.992 264.156L235.992 264.156L235.501 264.06ZM228.998 262.318L228.525 262.155L228.998 262.318ZM231.663 254.579L232.145 254.712L232.141 254.727L232.136 254.741L231.663 254.579ZM250.081 199.358L232.175 254.612L231.223 254.304L249.13 199.05L250.081 199.358ZM236.619 255.819L249.117 199.096L250.093 199.312L237.595 256.034L236.619 255.819ZM236.55 256.066C236.577 255.986 236.6 255.904 236.619 255.819L237.595 256.034C237.569 256.154 237.536 256.272 237.497 256.386L236.55 256.066ZM235.01 263.965L236.533 256.13L237.515 256.321L235.992 264.156L235.01 263.965ZM231.445 266.193C233.054 266.624 234.692 265.601 235.01 263.965L235.992 264.156C235.563 266.361 233.356 267.74 231.186 267.159L231.445 266.193ZM229.471 262.481C228.928 264.056 229.835 265.762 231.445 266.193L231.186 267.159C229.016 266.577 227.794 264.279 228.525 262.155L229.471 262.481ZM232.136 254.741L229.471 262.481L228.525 262.155L231.19 254.416L232.136 254.741ZM232.175 254.612C232.164 254.645 232.154 254.679 232.145 254.712L231.181 254.446C231.194 254.398 231.208 254.351 231.224 254.304L232.175 254.612Z" fill="black" fill-opacity="0.68" mask="url(#path-25-inside-7_38_208)"/>
<mask id="path-27-inside-8_38_208" fill="white">
<path fill-rule="evenodd" clip-rule="evenodd" d="M194.476 247.014L212.383 191.76L199.884 248.482C199.862 248.585 199.834 248.684 199.801 248.781L198.278 256.616C197.905 258.536 195.982 259.738 194.093 259.231C192.203 258.725 191.139 256.723 191.775 254.873L194.44 247.134C194.451 247.094 194.464 247.054 194.476 247.014Z"/>
</mask>
<path fill-rule="evenodd" clip-rule="evenodd" d="M194.476 247.014L212.383 191.76L199.884 248.482C199.862 248.585 199.834 248.684 199.801 248.781L198.278 256.616C197.905 258.536 195.982 259.738 194.093 259.231C192.203 258.725 191.139 256.723 191.775 254.873L194.44 247.134C194.451 247.094 194.464 247.054 194.476 247.014Z" fill="#00A3FF"/>
<path d="M212.383 191.76L211.907 191.605L212.871 191.867L212.383 191.76ZM194.476 247.014L194.952 247.168L194.952 247.168L194.476 247.014ZM199.884 248.482L199.396 248.375L199.396 248.375L199.884 248.482ZM199.801 248.781L199.31 248.686L199.317 248.653L199.327 248.621L199.801 248.781ZM198.278 256.616L198.769 256.711L198.769 256.711L198.278 256.616ZM191.775 254.873L191.303 254.711L191.303 254.711L191.775 254.873ZM194.44 247.134L194.922 247.267L194.918 247.282L194.913 247.297L194.44 247.134ZM212.858 191.914L194.952 247.168L194.001 246.86L211.907 191.605L212.858 191.914ZM199.396 248.375L211.894 191.652L212.871 191.867L200.373 248.59L199.396 248.375ZM199.327 248.621C199.354 248.541 199.377 248.459 199.396 248.375L200.373 248.59C200.346 248.71 200.313 248.827 200.275 248.942L199.327 248.621ZM197.788 256.52L199.31 248.686L200.292 248.877L198.769 256.711L197.788 256.52ZM194.222 258.748C195.832 259.18 197.47 258.156 197.788 256.52L198.769 256.711C198.341 258.916 196.133 260.296 193.963 259.714L194.222 258.748ZM192.248 255.036C191.706 256.612 192.612 258.317 194.222 258.748L193.963 259.714C191.794 259.133 190.571 256.834 191.303 254.711L192.248 255.036ZM194.913 247.297L192.248 255.036L191.303 254.711L193.968 246.971L194.913 247.297ZM194.952 247.168C194.941 247.201 194.931 247.234 194.922 247.267L193.958 247.001C193.971 246.954 193.986 246.907 194.001 246.86L194.952 247.168Z" fill="black" fill-opacity="0.68" mask="url(#path-27-inside-8_38_208)"/>
<mask id="path-29-inside-9_38_208" fill="white">
<path fill-rule="evenodd" clip-rule="evenodd" d="M146.088 250.736L163.994 195.482L151.496 252.204C151.473 252.307 151.445 252.407 151.412 252.504L149.89 260.338C149.516 262.258 147.594 263.46 145.704 262.954C143.814 262.447 142.75 260.445 143.387 258.596L146.052 250.856C146.063 250.816 146.075 250.776 146.088 250.736Z"/>
</mask>
<path fill-rule="evenodd" clip-rule="evenodd" d="M146.088 250.736L163.994 195.482L151.496 252.204C151.473 252.307 151.445 252.407 151.412 252.504L149.89 260.338C149.516 262.258 147.594 263.46 145.704 262.954C143.814 262.447 142.75 260.445 143.387 258.596L146.052 250.856C146.063 250.816 146.075 250.776 146.088 250.736Z" fill="#00A3FF"/>
<path d="M163.994 195.482L163.518 195.328L164.482 195.589L163.994 195.482ZM146.088 250.736L146.563 250.89L146.563 250.89L146.088 250.736ZM151.496 252.204L151.007 252.097L151.007 252.097L151.496 252.204ZM151.412 252.504L150.922 252.408L150.928 252.375L150.939 252.343L151.412 252.504ZM149.89 260.338L149.399 260.243L149.399 260.243L149.89 260.338ZM143.387 258.596L142.914 258.433L143.387 258.596ZM146.052 250.856L146.534 250.99L146.53 251.004L146.524 251.019L146.052 250.856ZM164.47 195.636L146.563 250.89L145.612 250.582L163.518 195.328L164.47 195.636ZM151.007 252.097L163.506 195.374L164.482 195.589L151.984 252.312L151.007 252.097ZM150.939 252.343C150.966 252.264 150.989 252.181 151.007 252.097L151.984 252.312C151.957 252.432 151.925 252.55 151.886 252.664L150.939 252.343ZM149.399 260.243L150.922 252.408L151.903 252.599L150.38 260.433L149.399 260.243ZM145.833 262.471C147.443 262.902 149.081 261.878 149.399 260.243L150.38 260.433C149.952 262.638 147.744 264.018 145.575 263.437L145.833 262.471ZM143.86 258.758C143.317 260.334 144.224 262.039 145.833 262.471L145.575 263.437C143.405 262.855 142.183 260.557 142.914 258.433L143.86 258.758ZM146.524 251.019L143.86 258.758L142.914 258.433L145.579 250.694L146.524 251.019ZM146.563 250.89C146.553 250.923 146.543 250.956 146.534 250.99L145.57 250.723C145.583 250.676 145.597 250.629 145.612 250.582L146.563 250.89Z" fill="black" fill-opacity="0.68" mask="url(#path-29-inside-9_38_208)"/>
<mask id="path-31-inside-10_38_208" fill="white">
<path fill-rule="evenodd" clip-rule="evenodd" d="M101.421 254.458L119.327 199.204L106.829 255.927C106.806 256.029 106.778 256.129 106.746 256.226L105.223 264.06C104.85 265.981 102.927 267.182 101.037 266.676C99.1476 266.169 98.0831 264.168 98.72 262.318L101.385 254.579C101.396 254.538 101.408 254.498 101.421 254.458Z"/>
</mask>
<path fill-rule="evenodd" clip-rule="evenodd" d="M101.421 254.458L119.327 199.204L106.829 255.927C106.806 256.029 106.778 256.129 106.746 256.226L105.223 264.06C104.85 265.981 102.927 267.182 101.037 266.676C99.1476 266.169 98.0831 264.168 98.72 262.318L101.385 254.579C101.396 254.538 101.408 254.498 101.421 254.458Z" fill="#00A3FF"/>
<path d="M119.327 199.204L118.851 199.05L119.815 199.312L119.327 199.204ZM101.421 254.458L101.897 254.612L101.897 254.612L101.421 254.458ZM106.829 255.927L106.341 255.819L106.341 255.819L106.829 255.927ZM106.746 256.226L106.255 256.13L106.261 256.097L106.272 256.066L106.746 256.226ZM105.223 264.06L105.714 264.156L105.714 264.156L105.223 264.06ZM98.72 262.318L98.2473 262.155L98.72 262.318ZM101.385 254.579L101.867 254.712L101.863 254.727L101.858 254.741L101.385 254.579ZM119.803 199.358L101.897 254.612L100.945 254.304L118.851 199.05L119.803 199.358ZM106.341 255.819L118.839 199.096L119.815 199.312L107.317 256.034L106.341 255.819ZM106.272 256.066C106.299 255.986 106.322 255.904 106.341 255.819L107.317 256.034C107.291 256.154 107.258 256.272 107.219 256.386L106.272 256.066ZM104.732 263.965L106.255 256.13L107.236 256.321L105.714 264.156L104.732 263.965ZM101.167 266.193C102.776 266.624 104.414 265.601 104.732 263.965L105.714 264.156C105.285 266.361 103.077 267.74 100.908 267.159L101.167 266.193ZM99.1928 262.481C98.6503 264.056 99.557 265.762 101.167 266.193L100.908 267.159C98.7382 266.577 97.516 264.279 98.2473 262.155L99.1928 262.481ZM101.858 254.741L99.1928 262.481L98.2473 262.155L100.912 254.416L101.858 254.741ZM101.897 254.612C101.886 254.645 101.876 254.679 101.867 254.712L100.903 254.446C100.916 254.398 100.93 254.351 100.945 254.304L101.897 254.612Z" fill="black" fill-opacity="0.68" mask="url(#path-31-inside-10_38_208)"/>
<ellipse cx="84.75" cy="138.722" rx="83.75" ry="78.1667" fill="white"/>
<ellipse cx="170.361" cy="138.722" rx="83.75" ry="78.1667" fill="white"/>
<ellipse cx="252.25" cy="138.722" rx="83.75" ry="78.1667" fill="white"/>
<ellipse cx="136.861" cy="79.1667" rx="83.75" ry="78.1667" fill="white"/>
<ellipse cx="218.75" cy="105.222" rx="83.75" ry="78.1667" fill="white"/>
<mask id="path-38-outside-11_38_208" maskUnits="userSpaceOnUse" x="0" y="0" width="337" height="218" fill="black">
<rect fill="white" width="337" height="218"/>
<path fill-rule="evenodd" clip-rule="evenodd" d="M54.3167 65.8765C61.0774 29.0366 95.4613 1 136.861 1C162.569 1 185.572 11.811 200.935 28.8277C206.676 27.6669 212.636 27.0556 218.75 27.0556C251.843 27.0556 280.453 44.9699 294.055 70.975C319.126 84.481 336 109.762 336 138.722C336 181.892 298.504 216.889 252.25 216.889C237.378 216.889 223.412 213.271 211.306 206.927C199.2 213.271 185.233 216.889 170.361 216.889C154.721 216.889 140.082 212.887 127.556 205.922C115.029 212.887 100.39 216.889 84.75 216.889C38.4962 216.889 1 181.892 1 138.722C1 105.572 23.1097 77.2421 54.3167 65.8765Z"/>
</mask>
<path fill-rule="evenodd" clip-rule="evenodd" d="M54.3167 65.8765C61.0774 29.0366 95.4613 1 136.861 1C162.569 1 185.572 11.811 200.935 28.8277C206.676 27.6669 212.636 27.0556 218.75 27.0556C251.843 27.0556 280.453 44.9699 294.055 70.975C319.126 84.481 336 109.762 336 138.722C336 181.892 298.504 216.889 252.25 216.889C237.378 216.889 223.412 213.271 211.306 206.927C199.2 213.271 185.233 216.889 170.361 216.889C154.721 216.889 140.082 212.887 127.556 205.922C115.029 212.887 100.39 216.889 84.75 216.889C38.4962 216.889 1 181.892 1 138.722C1 105.572 23.1097 77.2421 54.3167 65.8765Z" fill="white"/>
<path d="M54.3167 65.8765L54.6589 66.8161L55.1969 66.6202L55.3003 66.057L54.3167 65.8765ZM200.935 28.8277L200.193 29.4979L200.574 29.9208L201.133 29.8079L200.935 28.8277ZM294.055 70.975L293.169 71.4385L293.311 71.71L293.581 71.8554L294.055 70.975ZM211.306 206.927L211.77 206.041L211.306 205.798L210.841 206.041L211.306 206.927ZM127.556 205.922L128.042 205.048L127.556 204.777L127.07 205.048L127.556 205.922ZM136.861 0C95.0194 0 60.1881 28.3423 53.3331 65.696L55.3003 66.057C61.9667 29.7309 95.9031 2 136.861 2V0ZM201.677 28.1576C186.124 10.9303 162.851 0 136.861 0V2C162.287 2 185.02 12.6918 200.193 29.4979L201.677 28.1576ZM218.75 26.0556C212.57 26.0556 206.543 26.6736 200.737 27.8476L201.133 29.8079C206.809 28.6602 212.703 28.0556 218.75 28.0556V26.0556ZM294.941 70.5115C281.161 44.1661 252.203 26.0556 218.75 26.0556V28.0556C251.483 28.0556 279.745 45.7737 293.169 71.4385L294.941 70.5115ZM293.581 71.8554C318.364 85.2061 335 110.169 335 138.722H337C337 109.356 319.889 83.7559 294.529 70.0946L293.581 71.8554ZM335 138.722C335 181.276 298.018 215.889 252.25 215.889V217.889C298.99 217.889 337 182.509 337 138.722H335ZM252.25 215.889C237.541 215.889 223.734 212.311 211.77 206.041L210.841 207.812C223.089 214.231 237.215 217.889 252.25 217.889V215.889ZM170.361 217.889C185.396 217.889 199.522 214.231 211.77 207.812L210.841 206.041C198.877 212.311 185.07 215.889 170.361 215.889V217.889ZM127.07 206.796C139.743 213.843 154.549 217.889 170.361 217.889V215.889C154.893 215.889 140.421 211.932 128.042 205.048L127.07 206.796ZM84.75 217.889C100.562 217.889 115.368 213.843 128.042 206.796L127.07 205.048C114.69 211.932 100.219 215.889 84.75 215.889V217.889ZM0 138.722C0 182.509 38.01 217.889 84.75 217.889V215.889C38.9823 215.889 2 181.276 2 138.722H0ZM53.9745 64.9369C22.4192 76.4293 0 105.104 0 138.722H2C2 106.04 23.8002 78.0548 54.6589 66.8161L53.9745 64.9369Z" fill="black" mask="url(#path-38-outside-11_38_208)"/>
<path d="M136.861 157.833C183.358 157.833 221.111 122.645 221.111 79.1667C221.111 35.6883 183.358 0.499999 136.861 0.499999C90.3641 0.499999 52.6111 35.6883 52.6111 79.1667C52.6111 122.645 90.3641 157.833 136.861 157.833Z" fill="white" stroke="url(#paint0_linear_38_208)"/>
<path d="M84.75 217.389C131.247 217.389 169 182.201 169 138.722C169 95.2439 131.247 60.0556 84.75 60.0556C38.2531 60.0556 0.5 95.2439 0.5 138.722C0.5 182.201 38.2531 217.389 84.75 217.389Z" fill="white" stroke="url(#paint1_linear_38_208)"/>
<path d="M170.361 217.389C216.858 217.389 254.611 182.201 254.611 138.722C254.611 95.2439 216.858 60.0556 170.361 60.0556C123.864 60.0556 86.1113 95.2439 86.1113 138.722C86.1113 182.201 123.864 217.389 170.361 217.389Z" fill="white" stroke="url(#paint2_linear_38_208)"/>
<ellipse cx="252.25" cy="138.722" rx="83.75" ry="78.1667" fill="white"/>
<path d="M252.25 217.389C298.747 217.389 336.5 182.201 336.5 138.722C336.5 95.2439 298.747 60.0556 252.25 60.0556C205.753 60.0556 168 95.2439 168 138.722C168 182.201 205.753 217.389 252.25 217.389Z" stroke="url(#paint3_linear_38_208)" stroke-opacity="0.88"/>
<defs>
<linearGradient id="paint0_linear_38_208" x1="34.5" y1="19.6111" x2="241.083" y2="25.1944" gradientUnits="userSpaceOnUse">
<stop/>
<stop offset="1" stop-opacity="0"/>
</linearGradient>
<linearGradient id="paint1_linear_38_208" x1="1" y1="174.083" x2="149.889" y2="170.361" gradientUnits="userSpaceOnUse">
<stop stop-opacity="0.54"/>
<stop offset="0.884367" stop-opacity="0"/>
</linearGradient>
<linearGradient id="paint2_linear_38_208" x1="231.778" y1="216.889" x2="168.5" y2="97.7778" gradientUnits="userSpaceOnUse">
<stop stop-opacity="0.3"/>
<stop offset="1" stop-opacity="0"/>
</linearGradient>
<linearGradient id="paint3_linear_38_208" x1="336" y1="162.917" x2="331.52" y2="174.656" gradientUnits="userSpaceOnUse">
<stop stop-opacity="0.35"/>
<stop offset="1" stop-opacity="0"/>
</linearGradient>
</defs>
</svg>
