<svg width="328" height="288" viewBox="0 0 328 288" fill="none" xmlns="http://www.w3.org/2000/svg">
<mask id="path-1-inside-1_38_109" fill="white">
<path fill-rule="evenodd" clip-rule="evenodd" d="M87.8564 222.293L105.281 168.523L93.119 223.722C93.0974 223.82 93.0707 223.916 93.0394 224.009L91.5567 231.637C91.1935 233.506 89.3223 234.675 87.4834 234.183C85.6446 233.69 84.6087 231.742 85.2285 229.942L87.8188 222.419C87.8303 222.377 87.8428 222.335 87.8564 222.293Z"/>
</mask>
<path fill-rule="evenodd" clip-rule="evenodd" d="M87.8564 222.293L105.281 168.523L93.119 223.722C93.0974 223.82 93.0707 223.916 93.0394 224.009L91.5567 231.637C91.1935 233.506 89.3223 234.675 87.4834 234.183C85.6446 233.69 84.6087 231.742 85.2285 229.942L87.8188 222.419C87.8303 222.377 87.8428 222.335 87.8564 222.293Z" fill="#00A3FF"/>
<path d="M105.281 168.523L104.806 168.369L105.77 168.631L105.281 168.523ZM87.8564 222.293L87.3808 222.139L87.3808 222.139L87.8564 222.293ZM93.119 223.722L92.6307 223.615L92.6307 223.615L93.119 223.722ZM93.0394 224.009L92.5486 223.914L92.5549 223.881L92.5655 223.85L93.0394 224.009ZM91.5567 231.637L92.0475 231.733L92.0475 231.733L91.5567 231.637ZM85.2285 229.942L85.7013 230.104L85.7013 230.104L85.2285 229.942ZM87.8188 222.419L88.3012 222.551L88.2969 222.566L88.2916 222.582L87.8188 222.419ZM105.757 168.677L88.332 222.447L87.3808 222.139L104.806 168.369L105.757 168.677ZM92.6307 223.615L104.793 168.416L105.77 168.631L93.6073 223.83L92.6307 223.615ZM92.5655 223.85C92.5911 223.774 92.6129 223.695 92.6307 223.615L93.6073 223.83C93.5818 223.945 93.5503 224.059 93.5133 224.169L92.5655 223.85ZM91.0659 231.542L92.5486 223.914L93.5302 224.105L92.0475 231.733L91.0659 231.542ZM87.6129 233.7C89.1717 234.117 90.758 233.126 91.0659 231.542L92.0475 231.733C91.629 233.886 89.4729 235.233 87.354 234.666L87.6129 233.7ZM85.7013 230.104C85.1759 231.63 86.054 233.282 87.6129 233.7L87.354 234.666C85.2352 234.098 84.0416 231.853 84.7558 229.779L85.7013 230.104ZM88.2916 222.582L85.7013 230.104L84.7558 229.779L87.3461 222.256L88.2916 222.582ZM88.332 222.447C88.3209 222.482 88.3106 222.516 88.3012 222.551L87.3364 222.288C87.35 222.238 87.3647 222.188 87.3808 222.139L88.332 222.447Z" fill="black" fill-opacity="0.68" mask="url(#path-1-inside-1_38_109)"/>
<mask id="path-3-inside-2_38_109" fill="white">
<path fill-rule="evenodd" clip-rule="evenodd" d="M134.945 211.427L152.37 157.657L140.208 212.856C140.186 212.954 140.159 213.051 140.128 213.144L138.645 220.771C138.282 222.639 136.411 223.809 134.572 223.316C132.733 222.823 131.697 220.875 132.317 219.075L134.909 211.549C134.92 211.508 134.932 211.467 134.945 211.427Z"/>
</mask>
<path fill-rule="evenodd" clip-rule="evenodd" d="M134.945 211.427L152.37 157.657L140.208 212.856C140.186 212.954 140.159 213.051 140.128 213.144L138.645 220.771C138.282 222.639 136.411 223.809 134.572 223.316C132.733 222.823 131.697 220.875 132.317 219.075L134.909 211.549C134.92 211.508 134.932 211.467 134.945 211.427Z" fill="#00A3FF"/>
<path d="M152.37 157.657L151.895 157.503L152.859 157.764L152.37 157.657ZM134.945 211.427L135.421 211.581L135.421 211.581L134.945 211.427ZM140.208 212.856L139.72 212.748L139.72 212.748L140.208 212.856ZM140.128 213.144L139.637 213.049L139.643 213.016L139.654 212.984L140.128 213.144ZM138.645 220.771L138.155 220.675L138.155 220.675L138.645 220.771ZM132.317 219.075L131.845 218.912L131.845 218.912L132.317 219.075ZM134.909 211.549L135.391 211.681L135.387 211.697L135.382 211.712L134.909 211.549ZM152.846 157.811L135.421 211.581L134.47 211.272L151.895 157.503L152.846 157.811ZM139.72 212.748L151.882 157.549L152.859 157.764L140.696 212.963L139.72 212.748ZM139.654 212.984C139.68 212.908 139.702 212.829 139.72 212.748L140.696 212.963C140.671 213.08 140.639 213.193 140.602 213.304L139.654 212.984ZM138.155 220.675L139.637 213.049L140.619 213.24L139.136 220.866L138.155 220.675ZM134.702 222.833C136.26 223.251 137.847 222.26 138.155 220.675L139.136 220.866C138.718 223.019 136.562 224.367 134.443 223.799L134.702 222.833ZM132.79 219.238C132.265 220.764 133.143 222.415 134.702 222.833L134.443 223.799C132.324 223.231 131.13 220.986 131.845 218.912L132.79 219.238ZM135.382 211.712L132.79 219.238L131.845 218.912L134.436 211.386L135.382 211.712ZM135.421 211.581C135.41 211.614 135.4 211.648 135.391 211.681L134.427 211.417C134.44 211.369 134.454 211.32 134.47 211.272L135.421 211.581Z" fill="black" fill-opacity="0.68" mask="url(#path-3-inside-2_38_109)"/>
<mask id="path-5-inside-3_38_109" fill="white">
<path fill-rule="evenodd" clip-rule="evenodd" d="M174.79 218.671L192.215 164.901L180.052 220.1C180.031 220.199 180.004 220.295 179.972 220.389L178.49 228.015C178.127 229.884 176.255 231.053 174.417 230.56C172.578 230.068 171.542 228.12 172.162 226.32L174.753 218.793C174.764 218.753 174.777 218.712 174.79 218.671Z"/>
</mask>
<path fill-rule="evenodd" clip-rule="evenodd" d="M174.79 218.671L192.215 164.901L180.052 220.1C180.031 220.199 180.004 220.295 179.972 220.389L178.49 228.015C178.127 229.884 176.255 231.053 174.417 230.56C172.578 230.068 171.542 228.12 172.162 226.32L174.753 218.793C174.764 218.753 174.777 218.712 174.79 218.671Z" fill="#00A3FF"/>
<path d="M192.215 164.901L191.739 164.747L192.703 165.009L192.215 164.901ZM174.79 218.671L174.314 218.517L174.314 218.517L174.79 218.671ZM180.052 220.1L179.564 219.992L179.564 219.992L180.052 220.1ZM179.972 220.389L179.481 220.293L179.488 220.261L179.498 220.229L179.972 220.389ZM178.49 228.015L177.999 227.92L177.999 227.92L178.49 228.015ZM172.162 226.32L171.689 226.157L171.689 226.157L172.162 226.32ZM174.753 218.793L175.235 218.926L175.231 218.941L175.226 218.956L174.753 218.793ZM192.69 165.055L175.265 218.825L174.314 218.517L191.739 164.747L192.69 165.055ZM179.564 219.992L191.726 164.794L192.703 165.009L180.541 220.208L179.564 219.992ZM179.498 220.229C179.524 220.152 179.546 220.073 179.564 219.992L180.541 220.208C180.515 220.324 180.483 220.438 180.446 220.549L179.498 220.229ZM177.999 227.92L179.481 220.293L180.463 220.484L178.981 228.111L177.999 227.92ZM174.546 230.077C176.105 230.495 177.691 229.504 177.999 227.92L178.981 228.111C178.562 230.264 176.406 231.611 174.287 231.043L174.546 230.077ZM172.634 226.482C172.109 228.008 172.987 229.66 174.546 230.077L174.287 231.043C172.168 230.476 170.975 228.231 171.689 226.157L172.634 226.482ZM175.226 218.956L172.634 226.482L171.689 226.157L174.28 218.631L175.226 218.956ZM175.265 218.825C175.255 218.859 175.245 218.892 175.235 218.926L174.271 218.661C174.284 218.613 174.299 218.565 174.314 218.517L175.265 218.825Z" fill="black" fill-opacity="0.68" mask="url(#path-5-inside-3_38_109)"/>
<mask id="path-7-inside-4_38_109" fill="white">
<path fill-rule="evenodd" clip-rule="evenodd" d="M221.879 211.427L239.304 157.657L227.141 212.856C227.119 212.954 227.093 213.051 227.061 213.144L225.579 220.771C225.215 222.639 223.344 223.809 221.505 223.316C219.667 222.823 218.631 220.875 219.25 219.075L221.842 211.549C221.853 211.508 221.865 211.467 221.879 211.427Z"/>
</mask>
<path fill-rule="evenodd" clip-rule="evenodd" d="M221.879 211.427L239.304 157.657L227.141 212.856C227.119 212.954 227.093 213.051 227.061 213.144L225.579 220.771C225.215 222.639 223.344 223.809 221.505 223.316C219.667 222.823 218.631 220.875 219.25 219.075L221.842 211.549C221.853 211.508 221.865 211.467 221.879 211.427Z" fill="#00A3FF"/>
<path d="M239.304 157.657L238.828 157.503L239.792 157.764L239.304 157.657ZM221.879 211.427L222.354 211.581L222.354 211.581L221.879 211.427ZM227.141 212.856L226.653 212.748L226.653 212.748L227.141 212.856ZM227.061 213.144L226.57 213.049L226.577 213.016L226.587 212.984L227.061 213.144ZM225.579 220.771L225.088 220.675L225.088 220.675L225.579 220.771ZM219.25 219.075L218.778 218.912L218.778 218.912L219.25 219.075ZM221.842 211.549L222.324 211.681L222.32 211.697L222.315 211.712L221.842 211.549ZM239.779 157.811L222.354 211.581L221.403 211.272L238.828 157.503L239.779 157.811ZM226.653 212.748L238.815 157.549L239.792 157.764L227.629 212.963L226.653 212.748ZM226.587 212.984C226.613 212.908 226.635 212.829 226.653 212.748L227.629 212.963C227.604 213.08 227.572 213.193 227.535 213.304L226.587 212.984ZM225.088 220.675L226.57 213.049L227.552 213.24L226.069 220.866L225.088 220.675ZM221.635 222.833C223.194 223.251 224.78 222.26 225.088 220.675L226.069 220.866C225.651 223.019 223.495 224.367 221.376 223.799L221.635 222.833ZM219.723 219.238C219.198 220.764 220.076 222.415 221.635 222.833L221.376 223.799C219.257 223.231 218.064 220.986 218.778 218.912L219.723 219.238ZM222.315 211.712L219.723 219.238L218.778 218.912L221.369 211.386L222.315 211.712ZM222.354 211.581C222.343 211.614 222.333 211.648 222.324 211.681L221.36 211.417C221.373 211.369 221.387 211.32 221.403 211.272L222.354 211.581Z" fill="black" fill-opacity="0.68" mask="url(#path-7-inside-4_38_109)"/>
<mask id="path-9-inside-5_38_109" fill="white">
<path fill-rule="evenodd" clip-rule="evenodd" d="M205.5 233.666C206.34 231.355 209.801 232.303 209.346 234.719L207.883 242.48C207.81 242.863 207.659 243.21 207.449 243.508C207.057 244.067 206.889 244.927 207.077 245.583C207.196 245.996 207.23 246.46 207.157 246.967C206.886 248.822 205.058 250.025 203.247 249.54C201.437 249.055 200.455 247.098 201.149 245.357C201.341 244.873 201.608 244.485 201.924 244.184C202.419 243.713 202.709 242.887 202.653 242.206C202.623 241.839 202.669 241.459 202.804 241.088L205.5 233.666Z"/>
</mask>
<path fill-rule="evenodd" clip-rule="evenodd" d="M205.5 233.666C206.34 231.355 209.801 232.303 209.346 234.719L207.883 242.48C207.81 242.863 207.659 243.21 207.449 243.508C207.057 244.067 206.889 244.927 207.077 245.583C207.196 245.996 207.23 246.46 207.157 246.967C206.886 248.822 205.058 250.025 203.247 249.54C201.437 249.055 200.455 247.098 201.149 245.357C201.341 244.873 201.608 244.485 201.924 244.184C202.419 243.713 202.709 242.887 202.653 242.206C202.623 241.839 202.669 241.459 202.804 241.088L205.5 233.666Z" fill="#00A3FF"/>
<path d="M209.346 234.719L209.837 234.812L209.837 234.812L209.346 234.719ZM205.5 233.666L205.03 233.495L205.03 233.495L205.5 233.666ZM207.883 242.48L208.374 242.572L208.374 242.572L207.883 242.48ZM207.157 246.967L206.662 246.895L206.662 246.895L207.157 246.967ZM201.149 245.357L201.613 245.542L201.613 245.542L201.149 245.357ZM202.804 241.088L202.334 240.918L202.334 240.918L202.804 241.088ZM208.854 234.626C209.196 232.814 206.6 232.103 205.97 233.836L205.03 233.495C206.08 230.606 210.406 231.791 209.837 234.812L208.854 234.626ZM207.391 242.387L208.854 234.626L209.837 234.812L208.374 242.572L207.391 242.387ZM207.04 243.221C207.21 242.98 207.332 242.699 207.391 242.387L208.374 242.572C208.288 243.027 208.108 243.441 207.859 243.796L207.04 243.221ZM206.662 246.895C206.726 246.454 206.694 246.062 206.597 245.721L207.558 245.446C207.697 245.93 207.735 246.466 207.651 247.039L206.662 246.895ZM203.377 249.057C204.898 249.465 206.435 248.453 206.662 246.895L207.651 247.039C207.338 249.19 205.218 250.585 203.118 250.023L203.377 249.057ZM201.613 245.542C201.03 247.005 201.855 248.649 203.377 249.057L203.118 250.023C201.018 249.46 199.88 247.191 200.684 245.172L201.613 245.542ZM202.269 244.546C202.008 244.794 201.78 245.122 201.613 245.542L200.684 245.172C200.902 244.625 201.209 244.175 201.579 243.822L202.269 244.546ZM203.274 241.259C203.164 241.561 203.127 241.868 203.152 242.164L202.155 242.247C202.119 241.809 202.174 241.357 202.334 240.918L203.274 241.259ZM205.97 233.836L203.274 241.259L202.334 240.918L205.03 233.495L205.97 233.836ZM201.579 243.822C201.957 243.462 202.2 242.788 202.155 242.247L203.152 242.164C203.219 242.985 202.881 243.963 202.269 244.546L201.579 243.822ZM207.859 243.796C207.546 244.241 207.414 244.945 207.558 245.446L206.597 245.721C206.364 244.909 206.567 243.894 207.04 243.221L207.859 243.796Z" fill="black" fill-opacity="0.68" mask="url(#path-9-inside-5_38_109)"/>
<mask id="path-11-inside-6_38_109" fill="white">
<path fill-rule="evenodd" clip-rule="evenodd" d="M151.167 240.91C152.007 238.599 155.468 239.547 155.012 241.963L153.549 249.724C153.477 250.107 153.326 250.455 153.116 250.753C152.723 251.312 152.556 252.171 152.744 252.828C152.862 253.241 152.897 253.704 152.823 254.211C152.553 256.066 150.725 257.269 148.914 256.784C147.103 256.299 146.122 254.343 146.815 252.601C147.008 252.118 147.275 251.729 147.591 251.428C148.086 250.957 148.376 250.131 148.32 249.45C148.29 249.083 148.336 248.703 148.471 248.333L151.167 240.91Z"/>
</mask>
<path fill-rule="evenodd" clip-rule="evenodd" d="M151.167 240.91C152.007 238.599 155.468 239.547 155.012 241.963L153.549 249.724C153.477 250.107 153.326 250.455 153.116 250.753C152.723 251.312 152.556 252.171 152.744 252.828C152.862 253.241 152.897 253.704 152.823 254.211C152.553 256.066 150.725 257.269 148.914 256.784C147.103 256.299 146.122 254.343 146.815 252.601C147.008 252.118 147.275 251.729 147.591 251.428C148.086 250.957 148.376 250.131 148.32 249.45C148.29 249.083 148.336 248.703 148.471 248.333L151.167 240.91Z" fill="#00A3FF"/>
<path d="M155.012 241.963L155.504 242.056L155.504 242.056L155.012 241.963ZM151.167 240.91L150.697 240.739L150.697 240.739L151.167 240.91ZM153.549 249.724L153.058 249.631L153.549 249.724ZM152.823 254.211L153.318 254.283L152.823 254.211ZM146.815 252.601L147.28 252.786L147.28 252.786L146.815 252.601ZM148.471 248.333L148.941 248.504L148.941 248.504L148.471 248.333ZM147.591 251.428L147.935 251.79L147.591 251.428ZM148.32 249.45L148.818 249.409L148.32 249.45ZM152.744 252.828L153.225 252.69L152.744 252.828ZM154.521 241.871C154.863 240.059 152.267 239.347 151.637 241.081L150.697 240.739C151.747 237.85 156.073 239.036 155.504 242.056L154.521 241.871ZM153.058 249.631L154.521 241.871L155.504 242.056L154.041 249.817L153.058 249.631ZM152.707 250.465C152.877 250.224 152.999 249.943 153.058 249.631L154.041 249.817C153.955 250.272 153.775 250.685 153.525 251.041L152.707 250.465ZM152.328 254.139C152.393 253.699 152.361 253.307 152.263 252.966L153.225 252.69C153.364 253.175 153.401 253.71 153.318 254.283L152.328 254.139ZM149.043 256.301C150.565 256.709 152.101 255.698 152.328 254.139L153.318 254.283C153.005 256.434 150.884 257.83 148.785 257.267L149.043 256.301ZM147.28 252.786C146.697 254.25 147.522 255.894 149.043 256.301L148.785 257.267C146.685 256.705 145.547 254.436 146.351 252.416L147.28 252.786ZM147.935 251.79C147.675 252.039 147.447 252.366 147.28 252.786L146.351 252.416C146.568 251.869 146.875 251.419 147.246 251.066L147.935 251.79ZM148.941 248.504C148.831 248.805 148.794 249.112 148.818 249.409L147.822 249.491C147.786 249.054 147.841 248.602 148.001 248.162L148.941 248.504ZM151.637 241.081L148.941 248.504L148.001 248.162L150.697 240.739L151.637 241.081ZM147.246 251.066C147.623 250.707 147.866 250.033 147.822 249.491L148.818 249.409C148.886 250.229 148.548 251.207 147.935 251.79L147.246 251.066ZM153.525 251.041C153.213 251.485 153.081 252.189 153.225 252.69L152.263 252.966C152.03 252.153 152.234 251.139 152.707 250.465L153.525 251.041Z" fill="black" fill-opacity="0.68" mask="url(#path-11-inside-6_38_109)"/>
<ellipse cx="82.5" cy="135.022" rx="81.5" ry="76.0667" fill="white"/>
<ellipse cx="165.811" cy="135.022" rx="81.5" ry="76.0667" fill="white"/>
<ellipse cx="245.5" cy="135.022" rx="81.5" ry="76.0667" fill="white"/>
<ellipse cx="133.211" cy="77.0667" rx="81.5" ry="76.0667" fill="white"/>
<ellipse cx="212.9" cy="102.422" rx="81.5" ry="76.0667" fill="white"/>
<mask id="path-18-outside-7_38_109" maskUnits="userSpaceOnUse" x="0" y="0" width="328" height="213" fill="black">
<rect fill="white" width="328" height="213"/>
<path fill-rule="evenodd" clip-rule="evenodd" d="M52.8843 64.1336C59.4634 28.2834 92.9235 1 133.211 1C158.229 1 180.613 11.5206 195.563 28.0801C201.15 26.9505 206.951 26.3555 212.9 26.3555C245.104 26.3555 272.945 43.7886 286.182 69.0952C310.58 82.2384 327 106.841 327 135.022C327 177.033 290.511 211.089 245.5 211.089C231.028 211.089 217.436 207.568 205.656 201.394C193.875 207.568 180.284 211.089 165.811 211.089C150.591 211.089 136.345 207.195 124.156 200.416C111.966 207.195 97.72 211.089 82.5 211.089C37.4888 211.089 1 177.033 1 135.022C1 102.763 22.5157 75.1938 52.8843 64.1336Z"/>
</mask>
<path fill-rule="evenodd" clip-rule="evenodd" d="M52.8843 64.1336C59.4634 28.2834 92.9235 1 133.211 1C158.229 1 180.613 11.5206 195.563 28.0801C201.15 26.9505 206.951 26.3555 212.9 26.3555C245.104 26.3555 272.945 43.7886 286.182 69.0952C310.58 82.2384 327 106.841 327 135.022C327 177.033 290.511 211.089 245.5 211.089C231.028 211.089 217.436 207.568 205.656 201.394C193.875 207.568 180.284 211.089 165.811 211.089C150.591 211.089 136.345 207.195 124.156 200.416C111.966 207.195 97.72 211.089 82.5 211.089C37.4888 211.089 1 177.033 1 135.022C1 102.763 22.5157 75.1938 52.8843 64.1336Z" fill="white"/>
<path d="M52.8843 64.1336L53.2265 65.0732L53.7645 64.8773L53.8679 64.3141L52.8843 64.1336ZM195.563 28.0801L194.821 28.7502L195.203 29.1732L195.762 29.0603L195.563 28.0801ZM286.182 69.0952L285.296 69.5586L285.438 69.8302L285.708 69.9755L286.182 69.0952ZM205.656 201.394L206.12 200.509L205.656 200.265L205.191 200.509L205.656 201.394ZM124.156 200.416L124.642 199.542L124.156 199.272L123.67 199.542L124.156 200.416ZM133.211 0C92.4816 0 58.5741 27.5891 51.9007 63.9531L53.8679 64.3141C60.3527 28.9777 93.3653 2 133.211 2V0ZM196.306 27.41C181.165 10.6398 158.511 0 133.211 0V2C157.946 2 180.061 12.4014 194.821 28.7502L196.306 27.41ZM212.9 25.3555C206.884 25.3555 201.017 25.9572 195.365 27.1L195.762 29.0603C201.283 27.9438 207.017 27.3555 212.9 27.3555V25.3555ZM287.068 68.6317C273.653 42.9848 245.464 25.3555 212.9 25.3555V27.3555C244.744 27.3555 272.237 44.5924 285.296 69.5586L287.068 68.6317ZM285.708 69.9755C309.817 82.9635 326 107.247 326 135.022H328C328 106.434 311.342 81.5133 286.656 68.2148L285.708 69.9755ZM326 135.022C326 176.417 290.025 210.089 245.5 210.089V212.089C290.997 212.089 328 177.649 328 135.022H326ZM245.5 210.089C231.191 210.089 217.759 206.608 206.12 200.509L205.191 202.28C217.114 208.528 230.864 212.089 245.5 212.089V210.089ZM165.811 212.089C180.447 212.089 194.197 208.528 206.12 202.28L205.191 200.509C193.553 206.608 180.12 210.089 165.811 210.089V212.089ZM123.67 201.29C136.007 208.151 150.419 212.089 165.811 212.089V210.089C150.763 210.089 136.684 206.239 124.642 199.542L123.67 201.29ZM82.5 212.089C97.8917 212.089 112.304 208.151 124.642 201.29L123.67 199.542C111.627 206.239 97.5484 210.089 82.5 210.089V212.089ZM0 135.022C0 177.649 37.0026 212.089 82.5 212.089V210.089C37.975 210.089 2 176.417 2 135.022H0ZM52.5421 63.1939C21.8252 74.381 0 102.295 0 135.022H2C2 103.231 23.2063 76.0066 53.2265 65.0732L52.5421 63.1939Z" fill="black" mask="url(#path-18-outside-7_38_109)"/>
<path d="M133.211 153.633C178.465 153.633 215.211 119.385 215.211 77.0667C215.211 34.7481 178.465 0.499995 133.211 0.499995C87.9568 0.499995 51.2111 34.7481 51.2111 77.0667C51.2111 119.385 87.9568 153.633 133.211 153.633Z" fill="white" stroke="url(#paint0_linear_38_109)"/>
<path d="M82.5 211.589C127.754 211.589 164.5 177.341 164.5 135.022C164.5 92.7037 127.754 58.4556 82.5 58.4556C37.2457 58.4556 0.5 92.7037 0.5 135.022C0.5 177.341 37.2457 211.589 82.5 211.589Z" fill="white" stroke="url(#paint1_linear_38_109)"/>
<path d="M165.811 211.589C211.065 211.589 247.811 177.341 247.811 135.022C247.811 92.7037 211.065 58.4556 165.811 58.4556C120.557 58.4556 83.8112 92.7037 83.8112 135.022C83.8112 177.341 120.557 211.589 165.811 211.589Z" fill="white" stroke="url(#paint2_linear_38_109)"/>
<ellipse cx="245.5" cy="135.022" rx="81.5" ry="76.0667" fill="white"/>
<path d="M245.5 211.589C290.754 211.589 327.5 177.341 327.5 135.022C327.5 92.7037 290.754 58.4556 245.5 58.4556C200.246 58.4556 163.5 92.7037 163.5 135.022C163.5 177.341 200.246 211.589 245.5 211.589Z" stroke="url(#paint3_linear_38_109)" stroke-opacity="0.88"/>
<path d="M176.393 255.198C176.502 254.951 176.853 254.951 176.963 255.198L177.722 256.907C177.789 257.059 177.964 257.131 178.119 257.071L179.864 256.399C180.116 256.302 180.364 256.55 180.267 256.803L179.595 258.548C179.536 258.703 179.608 258.877 179.76 258.945L181.469 259.704C181.716 259.813 181.716 260.164 181.469 260.274L179.76 261.033C179.608 261.1 179.536 261.275 179.595 261.43L180.267 263.175C180.364 263.427 180.116 263.676 179.864 263.578L178.119 262.907C177.964 262.847 177.789 262.919 177.722 263.071L176.963 264.78C176.853 265.027 176.502 265.027 176.393 264.78L175.634 263.071C175.566 262.919 175.392 262.847 175.236 262.907L173.492 263.578C173.239 263.676 172.991 263.427 173.088 263.175L173.76 261.43C173.82 261.275 173.747 261.1 173.595 261.033L171.887 260.274C171.639 260.164 171.639 259.813 171.887 259.704L173.595 258.945C173.747 258.877 173.82 258.703 173.76 258.548L173.088 256.803C172.991 256.55 173.239 256.302 173.492 256.399L175.236 257.071C175.392 257.131 175.566 257.059 175.634 256.907L176.393 255.198Z" fill="#00A3FF"/>
<path d="M177.95 256.805L177.191 255.096C176.994 254.651 176.362 254.651 176.164 255.096L175.405 256.805C175.392 256.835 175.357 256.85 175.326 256.838L173.581 256.166C173.127 255.991 172.68 256.438 172.855 256.893L173.527 258.637C173.539 258.668 173.524 258.703 173.494 258.716L171.785 259.475C171.34 259.673 171.34 260.305 171.785 260.503L173.494 261.261C173.524 261.275 173.539 261.309 173.527 261.34L172.855 263.085C172.68 263.54 173.127 263.987 173.581 263.812L175.326 263.14C175.357 263.128 175.392 263.142 175.405 263.173L176.164 264.881C176.362 265.327 176.994 265.327 177.191 264.881L177.95 263.173C177.964 263.142 177.998 263.128 178.029 263.14L179.774 263.812C180.229 263.987 180.676 263.54 180.5 263.085L179.829 261.34C179.817 261.309 179.831 261.275 179.861 261.261L181.57 260.503C182.016 260.305 182.016 259.673 181.57 259.475L179.861 258.716C179.831 258.703 179.817 258.668 179.829 258.637L180.5 256.893C180.676 256.438 180.229 255.991 179.774 256.166L178.029 256.838C177.998 256.85 177.964 256.835 177.95 256.805Z" stroke="black" stroke-opacity="0.73" stroke-width="0.5"/>
<path d="M129.304 276.931C129.413 276.684 129.764 276.684 129.874 276.931L130.633 278.64C130.7 278.792 130.875 278.864 131.03 278.805L132.775 278.133C133.027 278.036 133.275 278.284 133.178 278.536L132.507 280.281C132.447 280.436 132.519 280.611 132.671 280.678L134.38 281.437C134.627 281.547 134.627 281.898 134.38 282.007L132.671 282.766C132.519 282.834 132.447 283.008 132.507 283.163L133.178 284.908C133.275 285.161 133.027 285.409 132.775 285.312L131.03 284.64C130.875 284.58 130.7 284.653 130.633 284.804L129.874 286.513C129.764 286.76 129.413 286.76 129.304 286.513L128.545 284.804C128.477 284.653 128.303 284.58 128.148 284.64L126.403 285.312C126.15 285.409 125.902 285.161 125.999 284.908L126.671 283.163C126.731 283.008 126.659 282.834 126.507 282.766L124.798 282.007C124.551 281.898 124.551 281.547 124.798 281.437L126.507 280.678C126.659 280.611 126.731 280.436 126.671 280.281L125.999 278.536C125.902 278.284 126.15 278.036 126.403 278.133L128.148 278.805C128.303 278.864 128.477 278.792 128.545 278.64L129.304 276.931Z" fill="#00A3FF"/>
<path d="M130.861 278.539L130.103 276.83C129.905 276.384 129.273 276.384 129.075 276.83L128.316 278.539C128.303 278.569 128.268 278.583 128.237 278.571L126.493 277.899C126.038 277.724 125.591 278.171 125.766 278.626L126.438 280.371C126.45 280.402 126.435 280.436 126.405 280.45L124.696 281.209C124.251 281.406 124.251 282.038 124.696 282.236L126.405 282.995C126.435 283.008 126.45 283.043 126.438 283.074L125.766 284.819C125.591 285.273 126.038 285.72 126.493 285.545L128.237 284.873C128.268 284.861 128.303 284.876 128.316 284.906L129.075 286.615C129.273 287.06 129.905 287.06 130.103 286.615L130.861 284.906C130.875 284.876 130.909 284.861 130.94 284.873L132.685 285.545C133.14 285.72 133.587 285.273 133.412 284.819L132.74 283.074C132.728 283.043 132.742 283.008 132.773 282.995L134.481 282.236C134.927 282.038 134.927 281.406 134.481 281.209L132.773 280.45C132.742 280.436 132.728 280.402 132.74 280.371L133.412 278.626C133.587 278.171 133.14 277.724 132.685 277.899L130.94 278.571C130.909 278.583 130.875 278.569 130.861 278.539Z" stroke="black" stroke-opacity="0.73" stroke-width="0.5"/>
<path d="M111.193 244.331C111.302 244.084 111.653 244.084 111.763 244.331L112.522 246.04C112.589 246.192 112.764 246.264 112.919 246.205L114.664 245.533C114.916 245.436 115.164 245.684 115.067 245.936L114.395 247.681C114.336 247.836 114.408 248.011 114.56 248.078L116.269 248.837C116.516 248.947 116.516 249.298 116.269 249.407L114.56 250.166C114.408 250.234 114.336 250.408 114.395 250.563L115.067 252.308C115.164 252.561 114.916 252.809 114.664 252.712L112.919 252.04C112.764 251.98 112.589 252.053 112.522 252.204L111.763 253.913C111.653 254.16 111.302 254.16 111.193 253.913L110.434 252.204C110.366 252.053 110.192 251.98 110.037 252.04L108.292 252.712C108.039 252.809 107.791 252.561 107.888 252.308L108.56 250.563C108.62 250.408 108.547 250.234 108.396 250.166L106.687 249.407C106.439 249.298 106.439 248.947 106.687 248.837L108.396 248.078C108.547 248.011 108.62 247.836 108.56 247.681L107.888 245.936C107.791 245.684 108.039 245.436 108.292 245.533L110.037 246.205C110.192 246.264 110.366 246.192 110.434 246.04L111.193 244.331Z" fill="#00A3FF"/>
<path d="M112.75 245.939L111.991 244.23C111.794 243.784 111.162 243.784 110.964 244.23L110.205 245.939C110.192 245.969 110.157 245.983 110.126 245.971L108.381 245.299C107.927 245.124 107.48 245.571 107.655 246.026L108.327 247.771C108.339 247.802 108.324 247.836 108.294 247.85L106.585 248.609C106.14 248.806 106.14 249.438 106.585 249.636L108.294 250.395C108.324 250.408 108.339 250.443 108.327 250.474L107.655 252.219C107.48 252.673 107.927 253.12 108.381 252.945L110.126 252.273C110.157 252.261 110.192 252.276 110.205 252.306L110.964 254.015C111.162 254.46 111.794 254.46 111.991 254.015L112.75 252.306C112.764 252.276 112.798 252.261 112.829 252.273L114.574 252.945C115.029 253.12 115.476 252.673 115.301 252.219L114.629 250.474C114.617 250.443 114.631 250.408 114.661 250.395L116.37 249.636C116.816 249.438 116.816 248.806 116.37 248.609L114.661 247.85C114.631 247.836 114.617 247.802 114.629 247.771L115.301 246.026C115.476 245.571 115.029 245.124 114.574 245.299L112.829 245.971C112.798 245.983 112.764 245.969 112.75 245.939Z" stroke="black" stroke-opacity="0.73" stroke-width="0.5"/>
<defs>
<linearGradient id="paint0_linear_38_109" x1="33.5999" y1="19.1111" x2="234.633" y2="24.5444" gradientUnits="userSpaceOnUse">
<stop/>
<stop offset="1" stop-opacity="0"/>
</linearGradient>
<linearGradient id="paint1_linear_38_109" x1="1" y1="169.433" x2="145.889" y2="165.811" gradientUnits="userSpaceOnUse">
<stop stop-opacity="0.54"/>
<stop offset="0.884367" stop-opacity="0"/>
</linearGradient>
<linearGradient id="paint2_linear_38_109" x1="225.578" y1="211.089" x2="164" y2="95.1778" gradientUnits="userSpaceOnUse">
<stop stop-opacity="0.3"/>
<stop offset="1" stop-opacity="0"/>
</linearGradient>
<linearGradient id="paint3_linear_38_109" x1="327" y1="158.567" x2="322.706" y2="169.866" gradientUnits="userSpaceOnUse">
<stop stop-opacity="0.35"/>
<stop offset="1" stop-opacity="0"/>
</linearGradient>
</defs>
</svg>
