<svg width="428" height="336" viewBox="0 0 428 336" fill="none" xmlns="http://www.w3.org/2000/svg">
<path d="M423.574 154.045C404.036 199.257 366.789 239.653 299.313 239.653C227.16 239.653 168.662 180.918 168.65 108.455C172.668 50.8545 212.097 22.553 229.068 10.8597C231.613 9.10576 235.049 11.0273 234.906 14.1333C232.052 76.2347 259.24 117.664 296.588 139.779C333.899 161.872 381.309 164.664 418.907 149.613C420.339 149.04 421.812 149.448 422.781 150.366C423.746 151.279 424.174 152.657 423.574 154.045Z" fill="#F9FBFB" stroke="black" stroke-width="1.3"/>
<path d="M282.321 23.0957C280.126 20.6584 282.333 16.8368 285.541 17.5187V17.5187C286.975 17.8236 288.443 17.1701 289.177 15.8998V15.8998C290.816 13.0595 295.133 13.977 295.476 17.2388V17.2388C295.629 18.6975 296.704 19.8915 298.139 20.1965V20.1965C301.347 20.8784 301.808 25.267 298.812 26.601V26.601C297.472 27.1976 296.669 28.5891 296.822 30.0478V30.0478C297.165 33.3096 293.133 35.1044 290.939 32.6671V32.6671C289.957 31.5771 288.386 31.2431 287.046 31.8396V31.8396C284.05 33.1736 281.097 29.8942 282.737 27.0539V27.0539C283.47 25.7837 283.302 24.1857 282.321 23.0957V23.0957Z" fill="#FFEDAC"/>
<path d="M283.3 27.3789C284.174 25.8648 283.974 23.96 282.804 22.6608C281.031 20.6914 282.813 17.6035 285.405 18.1545C287.116 18.518 288.865 17.7389 289.739 16.2248C291.065 13.9298 294.552 14.6712 294.829 17.3067C295.012 19.0455 296.294 20.4688 298.004 20.8323C300.596 21.3833 300.969 24.9293 298.548 26.0072C296.95 26.7183 295.993 28.377 296.175 30.1158C296.452 32.7513 293.195 34.2016 291.422 32.2322C290.252 30.9329 288.379 30.5347 286.781 31.2458C284.361 32.3237 281.975 29.6739 283.3 27.3789Z" stroke="black" stroke-opacity="0.77" stroke-width="1.3"/>
<path d="M344.509 113.511C341.234 113.34 340.091 109.077 342.842 107.291V107.291C344.072 106.492 344.648 104.992 344.268 103.575V103.575C343.42 100.407 347.12 98.004 349.669 100.068V100.068C350.809 100.991 352.414 101.075 353.644 100.276V100.276C356.394 98.4901 359.824 101.267 358.648 104.329V104.329C358.123 105.698 358.539 107.25 359.679 108.173V108.173C362.227 110.237 360.646 114.357 357.371 114.186V114.186C355.906 114.109 354.558 114.984 354.033 116.353V116.353C352.857 119.415 348.451 119.184 347.602 116.016V116.016C347.222 114.599 345.974 113.588 344.509 113.511V113.511Z" fill="#FFEDAC"/>
<path d="M348.23 115.848C347.777 114.159 346.289 112.954 344.543 112.862C341.896 112.724 340.974 109.28 343.196 107.836C344.662 106.884 345.349 105.096 344.896 103.407C344.21 100.847 347.201 98.9055 349.26 100.573C350.619 101.673 352.532 101.774 353.998 100.821C356.22 99.3782 358.991 101.622 358.042 104.096C357.415 105.728 357.911 107.578 359.27 108.679C361.329 110.346 360.051 113.675 357.405 113.536C355.659 113.445 354.053 114.488 353.426 116.12C352.476 118.594 348.916 118.408 348.23 115.848Z" stroke="black" stroke-opacity="0.77" stroke-width="1.3"/>
<path d="M387.842 50.4812C384.567 50.3095 383.425 46.047 386.176 44.2608V44.2608C387.406 43.4619 387.981 41.9619 387.602 40.5451V40.5451C386.753 37.3771 390.454 34.9737 393.003 37.0377V37.0377C394.143 37.9608 395.747 38.0449 396.977 37.246V37.246C399.728 35.4598 403.157 38.2369 401.982 41.2987V41.2987C401.456 42.668 401.872 44.2201 403.012 45.1431V45.1431C405.561 47.2071 403.979 51.3269 400.704 51.1552V51.1552C399.24 51.0785 397.892 51.9536 397.366 53.3229V53.3229C396.191 56.3848 391.784 56.1538 390.935 52.9859V52.9859C390.556 51.5691 389.307 50.5579 387.842 50.4812V50.4812Z" fill="#FFEDAC"/>
<path d="M391.563 52.8176C391.111 51.1289 389.622 49.9235 387.876 49.832C385.23 49.6933 384.307 46.2492 386.53 44.8059C387.996 43.8537 388.682 42.0656 388.23 40.3769C387.544 37.8171 390.534 35.8751 392.594 37.5429C393.952 38.6431 395.865 38.7434 397.331 37.7912C399.554 36.3478 402.325 38.5918 401.375 41.0658C400.749 42.698 401.244 44.548 402.603 45.6483C404.663 47.316 403.385 50.6448 400.738 50.5061C398.992 50.4146 397.386 51.4577 396.76 53.09C395.81 55.564 392.249 55.3774 391.563 52.8176Z" stroke="black" stroke-opacity="0.77" stroke-width="1.3"/>
<ellipse cx="84.3026" cy="257.737" rx="82.3026" ry="76.8158" fill="white"/>
<ellipse cx="168.434" cy="257.737" rx="82.3026" ry="76.8158" fill="white"/>
<ellipse cx="248.908" cy="257.737" rx="82.3026" ry="76.8158" fill="white"/>
<ellipse cx="135.513" cy="199.211" rx="82.3026" ry="76.8158" fill="white"/>
<ellipse cx="215.987" cy="224.816" rx="82.3026" ry="76.8158" fill="white"/>
<mask id="path-13-outside-1_38_47" maskUnits="userSpaceOnUse" x="0" y="120.395" width="333" height="216" fill="black">
<rect fill="white" y="120.395" width="333" height="216"/>
<path fill-rule="evenodd" clip-rule="evenodd" d="M54.3953 186.15C61.0392 149.947 94.8287 122.395 135.513 122.395C160.777 122.395 183.382 133.019 198.48 149.742C204.121 148.601 209.979 148 215.987 148C248.508 148 276.624 165.605 289.99 191.161C314.629 204.433 331.211 229.278 331.211 257.737C331.211 300.161 294.362 334.553 248.908 334.553C234.293 334.553 220.568 330.997 208.671 324.762C196.774 330.997 183.049 334.553 168.434 334.553C153.064 334.553 138.678 330.62 126.368 323.775C114.058 330.62 99.6725 334.553 84.3026 334.553C38.8481 334.553 2 300.161 2 257.737C2 225.16 23.7276 197.319 54.3953 186.15Z"/>
</mask>
<path fill-rule="evenodd" clip-rule="evenodd" d="M54.3953 186.15C61.0392 149.947 94.8287 122.395 135.513 122.395C160.777 122.395 183.382 133.019 198.48 149.742C204.121 148.601 209.979 148 215.987 148C248.508 148 276.624 165.605 289.99 191.161C314.629 204.433 331.211 229.278 331.211 257.737C331.211 300.161 294.362 334.553 248.908 334.553C234.293 334.553 220.568 330.997 208.671 324.762C196.774 330.997 183.049 334.553 168.434 334.553C153.064 334.553 138.678 330.62 126.368 323.775C114.058 330.62 99.6725 334.553 84.3026 334.553C38.8481 334.553 2 300.161 2 257.737C2 225.16 23.7276 197.319 54.3953 186.15Z" fill="white"/>
<path d="M54.3953 186.15L54.8401 187.372L55.5396 187.117L55.6739 186.385L54.3953 186.15ZM198.48 149.742L197.515 150.613L198.011 151.163L198.737 151.016L198.48 149.742ZM289.99 191.161L288.838 191.763L289.023 192.116L289.374 192.305L289.99 191.161ZM208.671 324.762L209.274 323.611L208.671 323.295L208.068 323.611L208.671 324.762ZM126.368 323.775L127 322.639L126.368 322.287L125.737 322.639L126.368 323.775ZM135.513 121.095C94.2543 121.095 59.8831 149.044 53.1166 185.915L55.6739 186.385C62.1952 150.849 95.4031 123.695 135.513 123.695V121.095ZM199.444 148.87C184.1 131.874 161.144 121.095 135.513 121.095V123.695C160.41 123.695 182.664 134.164 197.515 150.613L199.444 148.87ZM215.987 146.7C209.892 146.7 203.948 147.31 198.222 148.467L198.737 151.016C204.295 149.892 210.066 149.3 215.987 149.3V146.7ZM291.142 190.558C277.544 164.56 248.976 146.7 215.987 146.7V149.3C248.04 149.3 275.703 166.65 288.838 191.763L291.142 190.558ZM289.374 192.305C313.637 205.376 329.911 229.806 329.911 257.737H332.511C332.511 228.749 315.62 203.491 290.607 190.016L289.374 192.305ZM329.911 257.737C329.911 299.36 293.73 333.253 248.908 333.253V335.853C294.994 335.853 332.511 300.962 332.511 257.737H329.911ZM248.908 333.253C234.505 333.253 220.987 329.749 209.274 323.611L208.068 325.914C220.149 332.245 234.081 335.853 248.908 335.853V333.253ZM168.434 335.853C183.261 335.853 197.193 332.245 209.274 325.914L208.068 323.611C196.355 329.749 182.837 333.253 168.434 333.253V335.853ZM125.737 324.911C138.238 331.863 152.841 335.853 168.434 335.853V333.253C153.287 333.253 139.119 329.378 127 322.639L125.737 324.911ZM84.3026 335.853C99.8957 335.853 114.499 331.863 127 324.911L125.737 322.639C113.618 329.378 99.4494 333.253 84.3026 333.253V335.853ZM0.7 257.737C0.7 300.962 38.2161 335.853 84.3026 335.853V333.253C39.4802 333.253 3.3 299.36 3.3 257.737H0.7ZM53.9504 184.929C22.8299 196.263 0.7 224.552 0.7 257.737H3.3C3.3 225.768 24.6253 198.376 54.8401 187.372L53.9504 184.929Z" fill="black" mask="url(#path-13-outside-1_38_47)"/>
<path d="M135.513 276.676C181.284 276.676 218.466 242.035 218.466 199.211C218.466 156.386 181.284 121.745 135.513 121.745C89.7426 121.745 52.5604 156.386 52.5604 199.211C52.5604 242.035 89.7426 276.676 135.513 276.676Z" fill="white" stroke="url(#paint0_linear_38_47)" stroke-width="1.3"/>
<path d="M84.3026 335.203C130.073 335.203 167.255 300.562 167.255 257.737C167.255 214.912 130.073 180.271 84.3026 180.271C38.5321 180.271 1.35 214.912 1.35 257.737C1.35 300.562 38.5321 335.203 84.3026 335.203Z" fill="white" stroke="url(#paint1_linear_38_47)" stroke-width="1.3"/>
<path d="M168.434 335.203C214.205 335.203 251.387 300.562 251.387 257.737C251.387 214.912 214.205 180.271 168.434 180.271C122.664 180.271 85.4816 214.912 85.4816 257.737C85.4816 300.562 122.664 335.203 168.434 335.203Z" fill="white" stroke="url(#paint2_linear_38_47)" stroke-width="1.3"/>
<ellipse cx="248.908" cy="257.737" rx="82.3026" ry="76.8158" fill="white"/>
<path d="M248.908 335.203C294.678 335.203 331.86 300.562 331.86 257.737C331.86 214.912 294.678 180.271 248.908 180.271C203.137 180.271 165.955 214.912 165.955 257.737C165.955 300.562 203.137 335.203 248.908 335.203Z" stroke="url(#paint3_linear_38_47)" stroke-opacity="0.88" stroke-width="1.3"/>
<defs>
<linearGradient id="paint0_linear_38_47" x1="34.921" y1="140.684" x2="237.934" y2="146.171" gradientUnits="userSpaceOnUse">
<stop/>
<stop offset="1" stop-opacity="0"/>
</linearGradient>
<linearGradient id="paint1_linear_38_47" x1="2" y1="292.487" x2="148.316" y2="288.829" gradientUnits="userSpaceOnUse">
<stop stop-opacity="0.54"/>
<stop offset="0.884367" stop-opacity="0"/>
</linearGradient>
<linearGradient id="paint2_linear_38_47" x1="228.789" y1="334.553" x2="166.605" y2="217.5" gradientUnits="userSpaceOnUse">
<stop stop-opacity="0.3"/>
<stop offset="1" stop-opacity="0"/>
</linearGradient>
<linearGradient id="paint3_linear_38_47" x1="331.21" y1="281.513" x2="326.821" y2="293.024" gradientUnits="userSpaceOnUse">
<stop stop-opacity="0.35"/>
<stop offset="1" stop-opacity="0"/>
</linearGradient>
</defs>
</svg>
