<svg width="350" height="350" viewBox="0 0 350 350" fill="none" xmlns="http://www.w3.org/2000/svg">
<circle cx="174.299" cy="174.299" r="125.149" fill="#FFF964" stroke="black" stroke-width="1.3"/>
<path d="M292.754 75.918L296.937 56.7631C297.971 52.0284 293.756 47.8133 289.021 48.8474L269.867 53.0307C264.729 54.1527 262.865 60.5116 266.583 64.2299L281.555 79.2014C285.273 82.9196 291.632 81.0553 292.754 75.918Z" fill="#FFF964" stroke="black" stroke-width="1.3"/>
<path d="M324.539 150.481L337.739 135.984C341.002 132.401 339.459 126.643 334.842 125.171L316.161 119.216C311.151 117.619 306.357 122.194 307.718 127.273L313.198 147.725C314.559 152.804 320.998 154.369 324.539 150.481Z" fill="#FFF964" stroke="black" stroke-width="1.3"/>
<path d="M316.161 229.325L334.842 223.37C339.459 221.899 341.002 216.141 337.739 212.557L324.539 198.06C320.998 194.172 314.559 195.737 313.198 200.816L307.718 221.268C306.357 226.347 311.151 230.922 316.161 229.325Z" fill="#FFF964" stroke="black" stroke-width="1.3"/>
<path d="M269.867 292.754L289.021 296.937C293.756 297.971 297.971 293.756 296.937 289.021L292.754 269.866C291.632 264.729 285.273 262.865 281.555 266.583L266.583 281.555C262.865 285.273 264.729 291.632 269.867 292.754Z" fill="#FFF964" stroke="black" stroke-width="1.3"/>
<path d="M198.06 324.539L212.557 337.739C216.141 341.002 221.899 339.459 223.37 334.842L229.325 316.161C230.922 311.151 226.347 306.357 221.268 307.718L200.817 313.198C195.737 314.559 194.172 320.998 198.06 324.539Z" fill="#FFF964" stroke="black" stroke-width="1.3"/>
<path d="M119.216 316.161L125.171 334.842C126.643 339.459 132.401 341.002 135.984 337.739L150.481 324.539C154.369 320.998 152.804 314.559 147.725 313.198L127.273 307.718C122.194 306.357 117.619 311.151 119.216 316.161Z" fill="#FFF964" stroke="black" stroke-width="1.3"/>
<path d="M58.0107 269.867L53.8274 289.021C52.7933 293.756 57.0084 297.971 61.7431 296.937L80.898 292.754C86.0353 291.632 87.8996 285.273 84.1814 281.555L69.2099 266.583C65.4916 262.865 59.1327 264.729 58.0107 269.867Z" fill="#FFF964" stroke="black" stroke-width="1.3"/>
<path d="M25.4615 198.06L12.2611 212.557C8.99826 216.141 10.5411 221.899 15.1585 223.37L33.8388 229.325C38.8488 230.922 43.6428 226.347 42.2818 221.268L36.8019 200.816C35.4409 195.737 29.0018 194.172 25.4615 198.06Z" fill="#FFF964" stroke="black" stroke-width="1.3"/>
<path d="M33.8388 119.216L15.1584 125.171C10.5411 126.643 8.99822 132.401 12.2611 135.984L25.4614 150.481C29.0017 154.369 35.4409 152.804 36.8018 147.725L42.2818 127.273C43.6428 122.194 38.8488 117.619 33.8388 119.216Z" fill="#FFF964" stroke="black" stroke-width="1.3"/>
<path d="M80.8979 53.0307L61.743 48.8473C57.0083 47.8132 52.7932 52.0284 53.8273 56.7631L58.0107 75.9179C59.1326 81.0552 65.4916 82.9195 69.2098 79.2013L84.1813 64.2298C87.8995 60.5116 86.0352 54.1526 80.8979 53.0307Z" fill="#FFF964" stroke="black" stroke-width="1.3"/>
<path d="M150.481 25.4615L135.984 12.2611C132.401 8.99826 126.643 10.5411 125.171 15.1585L119.216 33.8388C117.619 38.8488 122.194 43.6428 127.273 42.2818L147.725 36.8019C152.804 35.4409 154.369 29.0018 150.481 25.4615Z" fill="#FFF964" stroke="black" stroke-width="1.3"/>
<path d="M229.325 33.8388L223.37 15.1584C221.899 10.5411 216.141 8.99822 212.557 12.2611L198.06 25.4614C194.172 29.0017 195.737 35.4409 200.816 36.8018L221.268 42.2818C226.347 43.6428 230.922 38.8488 229.325 33.8388Z" fill="#FFF964" stroke="black" stroke-width="1.3"/>
</svg>
