<svg width="260" height="241" viewBox="0 0 260 241" fill="none" xmlns="http://www.w3.org/2000/svg">
<path d="M255.574 154.045C236.036 199.257 198.789 239.653 131.313 239.653C59.16 239.653 0.662168 180.918 0.650002 108.455C4.66801 50.8545 44.0972 22.553 61.0678 10.8597C63.6133 9.10576 67.049 11.0273 66.9063 14.1333C64.0525 76.2347 91.2402 117.664 128.588 139.779C165.899 161.872 213.309 164.664 250.907 149.613C252.339 149.04 253.812 149.448 254.781 150.366C255.746 151.279 256.174 152.657 255.574 154.045Z" fill="#F9FBFB" stroke="black" stroke-width="1.3"/>
<path d="M114.321 23.0957C112.126 20.6584 114.333 16.8368 117.541 17.5187V17.5187C118.975 17.8236 120.443 17.1701 121.177 15.8998V15.8998C122.816 13.0595 127.133 13.977 127.476 17.2388V17.2388C127.629 18.6975 128.704 19.8915 130.139 20.1965V20.1965C133.347 20.8784 133.808 25.267 130.812 26.601V26.601C129.472 27.1976 128.669 28.5891 128.822 30.0478V30.0478C129.165 33.3096 125.133 35.1044 122.939 32.6671V32.6671C121.957 31.5771 120.386 31.2431 119.046 31.8396V31.8396C116.05 33.1736 113.097 29.8942 114.737 27.0539V27.0539C115.47 25.7837 115.302 24.1857 114.321 23.0957V23.0957Z" fill="#FFEDAC"/>
<path d="M115.3 27.3789C116.174 25.8648 115.974 23.96 114.804 22.6608C113.031 20.6914 114.813 17.6035 117.405 18.1545C119.116 18.518 120.865 17.7389 121.739 16.2248C123.065 13.9298 126.552 14.6712 126.829 17.3067C127.012 19.0455 128.294 20.4688 130.004 20.8323C132.596 21.3833 132.969 24.9293 130.548 26.0072C128.95 26.7183 127.993 28.377 128.175 30.1158C128.452 32.7513 125.195 34.2016 123.422 32.2322C122.252 30.9329 120.379 30.5347 118.781 31.2458C116.361 32.3237 113.975 29.6739 115.3 27.3789Z" stroke="black" stroke-opacity="0.77" stroke-width="1.3"/>
<path d="M176.509 113.511C173.234 113.34 172.091 109.077 174.842 107.291V107.291C176.072 106.492 176.648 104.992 176.268 103.575V103.575C175.42 100.407 179.12 98.004 181.669 100.068V100.068C182.809 100.991 184.414 101.075 185.644 100.276V100.276C188.394 98.4901 191.824 101.267 190.648 104.329V104.329C190.123 105.698 190.539 107.25 191.679 108.173V108.173C194.227 110.237 192.646 114.357 189.371 114.186V114.186C187.906 114.109 186.558 114.984 186.033 116.353V116.353C184.857 119.415 180.451 119.184 179.602 116.016V116.016C179.222 114.599 177.974 113.588 176.509 113.511V113.511Z" fill="#FFEDAC"/>
<path d="M180.23 115.848C179.777 114.159 178.289 112.954 176.543 112.862C173.896 112.724 172.974 109.28 175.196 107.836C176.662 106.884 177.349 105.096 176.896 103.407C176.21 100.847 179.201 98.9054 181.26 100.573C182.619 101.673 184.532 101.774 185.998 100.821C188.22 99.3781 190.991 101.622 190.042 104.096C189.415 105.728 189.911 107.578 191.27 108.679C193.329 110.346 192.051 113.675 189.405 113.536C187.659 113.445 186.053 114.488 185.426 116.12C184.476 118.594 180.916 118.408 180.23 115.848Z" stroke="black" stroke-opacity="0.77" stroke-width="1.3"/>
<path d="M219.842 50.4812C216.567 50.3095 215.425 46.047 218.176 44.2608V44.2608C219.406 43.4619 219.981 41.9619 219.602 40.5451V40.5451C218.753 37.3771 222.454 34.9737 225.003 37.0377V37.0377C226.143 37.9608 227.747 38.0449 228.977 37.246V37.246C231.728 35.4598 235.157 38.2369 233.982 41.2987V41.2987C233.456 42.668 233.872 44.2201 235.012 45.1431V45.1431C237.561 47.2071 235.979 51.3269 232.704 51.1552V51.1552C231.24 51.0785 229.892 51.9536 229.366 53.3229V53.3229C228.191 56.3848 223.784 56.1538 222.935 52.9859V52.9859C222.556 51.5691 221.307 50.5579 219.842 50.4812V50.4812Z" fill="#FFEDAC"/>
<path d="M223.563 52.8176C223.111 51.1289 221.622 49.9235 219.876 49.832C217.23 49.6933 216.307 46.2492 218.53 44.8059C219.996 43.8537 220.682 42.0656 220.23 40.3769C219.544 37.8171 222.534 35.8751 224.594 37.5429C225.952 38.6431 227.865 38.7434 229.331 37.7912C231.554 36.3478 234.325 38.5918 233.375 41.0658C232.749 42.698 233.244 44.548 234.603 45.6483C236.663 47.316 235.385 50.6448 232.738 50.5061C230.992 50.4146 229.386 51.4577 228.76 53.09C227.81 55.564 224.249 55.3774 223.563 52.8176Z" stroke="black" stroke-opacity="0.77" stroke-width="1.3"/>
</svg>
