<svg width="323" height="209" viewBox="0 0 323 209" fill="none" xmlns="http://www.w3.org/2000/svg">
<ellipse cx="81.25" cy="132.967" rx="80.25" ry="74.9" fill="white"/>
<ellipse cx="163.283" cy="132.967" rx="80.25" ry="74.9" fill="white"/>
<ellipse cx="241.75" cy="132.967" rx="80.25" ry="74.9" fill="white"/>
<ellipse cx="131.183" cy="75.9" rx="80.25" ry="74.9" fill="white"/>
<ellipse cx="209.65" cy="100.867" rx="80.25" ry="74.9" fill="white"/>
<mask id="path-6-outside-1_38_1052" maskUnits="userSpaceOnUse" x="0" y="0" width="323" height="209" fill="black">
<rect fill="white" width="323" height="209"/>
<path fill-rule="evenodd" clip-rule="evenodd" d="M52.0886 63.1652C58.5668 27.8649 91.5136 1 131.183 1C155.817 1 177.858 11.3592 192.579 27.6648C198.081 26.5525 203.792 25.9667 209.65 25.9667C241.36 25.9667 268.774 43.1324 281.808 68.0508C305.832 80.9924 322 105.217 322 132.967C322 174.333 286.071 207.867 241.75 207.867C227.5 207.867 214.117 204.4 202.517 198.321C190.917 204.4 177.534 207.867 163.283 207.867C148.297 207.867 134.27 204.032 122.267 197.358C110.264 204.032 96.2366 207.867 81.25 207.867C36.9291 207.867 1 174.333 1 132.967C1 101.202 22.1857 74.0558 52.0886 63.1652Z"/>
</mask>
<path fill-rule="evenodd" clip-rule="evenodd" d="M52.0886 63.1652C58.5668 27.8649 91.5136 1 131.183 1C155.817 1 177.858 11.3592 192.579 27.6648C198.081 26.5525 203.792 25.9667 209.65 25.9667C241.36 25.9667 268.774 43.1324 281.808 68.0508C305.832 80.9924 322 105.217 322 132.967C322 174.333 286.071 207.867 241.75 207.867C227.5 207.867 214.117 204.4 202.517 198.321C190.917 204.4 177.534 207.867 163.283 207.867C148.297 207.867 134.27 204.032 122.267 197.358C110.264 204.032 96.2366 207.867 81.25 207.867C36.9291 207.867 1 174.333 1 132.967C1 101.202 22.1857 74.0558 52.0886 63.1652Z" fill="white"/>
<path d="M52.0886 63.1652L52.4308 64.1049L52.9688 63.9089L53.0721 63.3457L52.0886 63.1652ZM192.579 27.6648L191.837 28.3349L192.219 28.7579L192.778 28.645L192.579 27.6648ZM281.808 68.0508L280.922 68.5142L281.064 68.7858L281.334 68.9311L281.808 68.0508ZM202.517 198.321L202.981 197.435L202.517 197.192L202.052 197.435L202.517 198.321ZM122.267 197.358L122.753 196.484L122.267 196.214L121.781 196.484L122.267 197.358ZM131.183 0C91.0718 0 57.6775 27.1706 51.105 62.9847L53.0721 63.3457C59.456 28.5592 91.9555 2 131.183 2V0ZM193.322 26.9947C178.411 10.4785 156.099 0 131.183 0V2C155.535 2 177.306 12.24 191.837 28.3349L193.322 26.9947ZM209.65 24.9667C203.725 24.9667 197.947 25.5592 192.381 26.6846L192.778 28.645C198.214 27.5458 203.859 26.9667 209.65 26.9667V24.9667ZM282.694 67.5873C269.483 42.3285 241.72 24.9667 209.65 24.9667V26.9667C241 26.9667 268.066 43.9362 280.922 68.5142L282.694 67.5873ZM281.334 68.9311C305.069 81.7175 321 105.624 321 132.967H323C323 104.811 306.594 80.2673 282.282 67.1704L281.334 68.9311ZM321 132.967C321 173.717 285.585 206.867 241.75 206.867V208.867C286.557 208.867 323 174.949 323 132.967H321ZM241.75 206.867C227.663 206.867 214.439 203.44 202.981 197.435L202.052 199.206C213.794 205.36 227.336 208.867 241.75 208.867V206.867ZM163.283 208.867C177.697 208.867 191.239 205.36 202.981 199.206L202.052 197.435C190.594 203.44 177.371 206.867 163.283 206.867V208.867ZM121.781 198.232C133.931 204.988 148.125 208.867 163.283 208.867V206.867C148.468 206.867 134.608 203.077 122.753 196.484L121.781 198.232ZM81.25 208.867C96.4083 208.867 110.602 204.988 122.753 198.232L121.781 196.484C109.925 203.077 96.0649 206.867 81.25 206.867V208.867ZM0 132.967C0 174.949 36.443 208.867 81.25 208.867V206.867C37.4153 206.867 2 173.717 2 132.967H0ZM51.7464 62.2256C21.4952 73.2431 0 100.734 0 132.967H2C2 101.67 22.8763 74.8686 52.4308 64.1049L51.7464 62.2256Z" fill="black" mask="url(#path-6-outside-1_38_1052)"/>
<path d="M131.183 151.3C175.747 151.3 211.933 117.574 211.933 75.9C211.933 34.2258 175.747 0.5 131.183 0.5C86.6194 0.5 50.4333 34.2258 50.4333 75.9C50.4333 117.574 86.6194 151.3 131.183 151.3Z" fill="white" stroke="url(#paint0_linear_38_1052)"/>
<path d="M81.25 208.367C125.814 208.367 162 174.641 162 132.967C162 91.2924 125.814 57.5667 81.25 57.5667C36.6861 57.5667 0.5 91.2924 0.5 132.967C0.5 174.641 36.6861 208.367 81.25 208.367Z" fill="white" stroke="url(#paint1_linear_38_1052)"/>
<path d="M163.283 208.367C207.847 208.367 244.033 174.641 244.033 132.967C244.033 91.2924 207.847 57.5667 163.283 57.5667C118.719 57.5667 82.5333 91.2924 82.5333 132.967C82.5333 174.641 118.719 208.367 163.283 208.367Z" fill="white" stroke="url(#paint2_linear_38_1052)"/>
<ellipse cx="241.75" cy="132.967" rx="80.25" ry="74.9" fill="white"/>
<path d="M241.75 208.367C286.314 208.367 322.5 174.641 322.5 132.967C322.5 91.2924 286.314 57.5667 241.75 57.5667C197.186 57.5667 161 91.2924 161 132.967C161 174.641 197.186 208.367 241.75 208.367Z" stroke="url(#paint3_linear_38_1052)" stroke-opacity="0.88"/>
<defs>
<linearGradient id="paint0_linear_38_1052" x1="33.1" y1="18.8333" x2="231.05" y2="24.1833" gradientUnits="userSpaceOnUse">
<stop/>
<stop offset="1" stop-opacity="0"/>
</linearGradient>
<linearGradient id="paint1_linear_38_1052" x1="1" y1="166.85" x2="143.667" y2="163.283" gradientUnits="userSpaceOnUse">
<stop stop-opacity="0.54"/>
<stop offset="0.884367" stop-opacity="0"/>
</linearGradient>
<linearGradient id="paint2_linear_38_1052" x1="222.133" y1="207.867" x2="161.5" y2="93.7333" gradientUnits="userSpaceOnUse">
<stop stop-opacity="0.3"/>
<stop offset="1" stop-opacity="0"/>
</linearGradient>
<linearGradient id="paint3_linear_38_1052" x1="322" y1="156.15" x2="317.752" y2="167.315" gradientUnits="userSpaceOnUse">
<stop stop-opacity="0.35"/>
<stop offset="1" stop-opacity="0"/>
</linearGradient>
</defs>
</svg>
