<svg width="323" height="353" viewBox="0 0 323 353" fill="none" xmlns="http://www.w3.org/2000/svg">
<mask id="path-1-outside-1_38_995" maskUnits="userSpaceOnUse" x="201.088" y="192.6" width="38" height="84" fill="black">
<rect fill="white" x="201.088" y="192.6" width="38" height="84"/>
<path fill-rule="evenodd" clip-rule="evenodd" d="M221.14 193.6C220.714 193.6 220.334 193.87 220.195 194.272L206.884 232.638C206.659 233.288 207.141 233.966 207.829 233.966H216.968L203.15 273.825C202.754 274.967 204.346 275.701 204.957 274.659L235.197 223.115C235.588 222.448 235.107 221.609 234.334 221.609L224.833 221.609L237.846 195.04C238.172 194.375 237.688 193.6 236.948 193.6H221.14Z"/>
</mask>
<path fill-rule="evenodd" clip-rule="evenodd" d="M221.14 193.6C220.714 193.6 220.334 193.87 220.195 194.272L206.884 232.638C206.659 233.288 207.141 233.966 207.829 233.966H216.968L203.15 273.825C202.754 274.967 204.346 275.701 204.957 274.659L235.197 223.115C235.588 222.448 235.107 221.609 234.334 221.609L224.833 221.609L237.846 195.04C238.172 194.375 237.688 193.6 236.948 193.6H221.14Z" fill="#FFF48C"/>
<path d="M220.195 194.272L221.14 194.6L221.14 194.6L220.195 194.272ZM206.884 232.638L207.829 232.966L207.829 232.966L206.884 232.638ZM216.968 233.966L217.913 234.293L218.373 232.966H216.968V233.966ZM203.15 273.825L202.205 273.498L202.205 273.498L203.15 273.825ZM204.957 274.659L204.095 274.153L204.095 274.153L204.957 274.659ZM235.197 223.115L234.334 222.609L234.334 222.609L235.197 223.115ZM234.334 221.609L234.334 222.609H234.334V221.609ZM224.833 221.609L223.935 221.169L223.23 222.609L224.833 222.609L224.833 221.609ZM237.846 195.04L236.948 194.6L236.948 194.6L237.846 195.04ZM221.14 194.6L221.14 194.6V192.6C220.288 192.6 219.529 193.14 219.25 193.944L221.14 194.6ZM207.829 232.966L221.14 194.6L219.25 193.944L205.939 232.31L207.829 232.966ZM207.829 232.966L207.829 232.966L205.939 232.31C205.489 233.61 206.454 234.966 207.829 234.966V232.966ZM216.968 232.966H207.829V234.966H216.968V232.966ZM204.095 274.153L217.913 234.293L216.023 233.638L202.205 273.498L204.095 274.153ZM204.095 274.153C204.087 274.166 204.082 274.173 204.08 274.175C204.077 274.178 204.078 274.177 204.081 274.175C204.084 274.173 204.088 274.17 204.093 274.167C204.099 274.164 204.104 274.163 204.109 274.161C204.118 274.159 204.121 274.16 204.117 274.16C204.113 274.159 204.105 274.158 204.095 274.153C204.085 274.149 204.079 274.143 204.076 274.141C204.073 274.138 204.076 274.14 204.08 274.148C204.082 274.152 204.084 274.158 204.085 274.163C204.087 274.169 204.087 274.174 204.088 274.178C204.088 274.182 204.087 274.182 204.088 274.179C204.088 274.176 204.09 274.167 204.095 274.153L202.205 273.498C201.414 275.781 204.597 277.249 205.82 275.165L204.095 274.153ZM234.334 222.609L204.095 274.153L205.82 275.165L236.059 223.621L234.334 222.609ZM234.334 222.609L234.334 222.609L236.059 223.621C236.841 222.288 235.88 220.609 234.334 220.609V222.609ZM224.833 222.609L234.334 222.609L234.334 220.609L224.833 220.609L224.833 222.609ZM236.948 194.6L223.935 221.169L225.731 222.049L238.744 195.48L236.948 194.6ZM236.948 194.6L236.948 194.6L238.744 195.48C239.395 194.151 238.428 192.6 236.948 192.6V194.6ZM221.14 194.6H236.948V192.6H221.14V194.6Z" fill="black" fill-opacity="0.76" mask="url(#path-1-outside-1_38_995)"/>
<mask id="path-3-outside-2_38_995" maskUnits="userSpaceOnUse" x="104.78" y="164.067" width="83" height="189" fill="black">
<rect fill="white" x="104.78" y="164.067" width="83" height="189"/>
<path fill-rule="evenodd" clip-rule="evenodd" d="M148.82 165.067C148.394 165.067 148.015 165.336 147.875 165.739L118.253 251.122C118.027 251.772 118.51 252.45 119.197 252.45H140.619L106.842 349.882C106.447 351.023 108.038 351.757 108.65 350.715L181.109 227.206C181.5 226.539 181.019 225.7 180.246 225.7L157.644 225.7L186.637 166.507C186.962 165.842 186.479 165.067 185.739 165.067H148.82Z"/>
</mask>
<path fill-rule="evenodd" clip-rule="evenodd" d="M148.82 165.067C148.394 165.067 148.015 165.336 147.875 165.739L118.253 251.122C118.027 251.772 118.51 252.45 119.197 252.45H140.619L106.842 349.882C106.447 351.023 108.038 351.757 108.65 350.715L181.109 227.206C181.5 226.539 181.019 225.7 180.246 225.7L157.644 225.7L186.637 166.507C186.962 165.842 186.479 165.067 185.739 165.067H148.82Z" fill="#FFF48C"/>
<path d="M147.875 165.739L146.931 165.411L146.931 165.411L147.875 165.739ZM118.253 251.122L119.197 251.45L119.197 251.45L118.253 251.122ZM140.619 252.45L141.563 252.778L142.024 251.45H140.619V252.45ZM106.842 349.882L105.897 349.554L105.897 349.554L106.842 349.882ZM108.65 350.715L107.787 350.209L107.787 350.209L108.65 350.715ZM181.109 227.206L180.246 226.7L180.246 226.7L181.109 227.206ZM180.246 225.7L180.246 226.7H180.246V225.7ZM157.644 225.7L156.746 225.26L156.041 226.7L157.644 226.7L157.644 225.7ZM186.637 166.507L187.535 166.946L187.535 166.946L186.637 166.507ZM148.82 166.067L148.82 166.067V164.067C147.968 164.067 147.21 164.606 146.931 165.411L148.82 166.067ZM119.197 251.45L148.82 166.067L146.931 165.411L117.308 250.794L119.197 251.45ZM119.197 251.45L119.197 251.45L117.308 250.794C116.857 252.094 117.822 253.45 119.197 253.45V251.45ZM140.619 251.45H119.197V253.45H140.619V251.45ZM107.787 350.209L141.563 252.778L139.674 252.122L105.897 349.554L107.787 350.209ZM107.787 350.209C107.779 350.222 107.774 350.229 107.772 350.232C107.77 350.234 107.77 350.233 107.773 350.231C107.776 350.229 107.78 350.226 107.786 350.223C107.791 350.221 107.796 350.219 107.801 350.218C107.81 350.215 107.813 350.216 107.809 350.216C107.805 350.215 107.797 350.214 107.787 350.209C107.777 350.205 107.771 350.2 107.768 350.197C107.765 350.194 107.768 350.196 107.772 350.204C107.774 350.209 107.776 350.214 107.777 350.219C107.779 350.225 107.78 350.23 107.78 350.234C107.78 350.238 107.78 350.239 107.78 350.235C107.781 350.232 107.782 350.223 107.787 350.209L105.897 349.554C105.106 351.837 108.29 353.305 109.512 351.221L107.787 350.209ZM180.246 226.7L107.787 350.209L109.512 351.221L181.971 227.712L180.246 226.7ZM180.246 226.7L180.246 226.7L181.971 227.712C182.753 226.379 181.792 224.7 180.246 224.7V226.7ZM157.644 226.7L180.246 226.7L180.246 224.7L157.644 224.7L157.644 226.7ZM185.739 166.067L156.746 225.26L158.542 226.14L187.535 166.946L185.739 166.067ZM185.739 166.067L185.739 166.067L187.535 166.946C188.186 165.618 187.218 164.067 185.739 164.067V166.067ZM148.82 166.067H185.739V164.067H148.82V166.067Z" fill="black" fill-opacity="0.76" mask="url(#path-3-outside-2_38_995)"/>
<mask id="path-5-inside-3_38_995" fill="white">
<path fill-rule="evenodd" clip-rule="evenodd" d="M75.8244 236.733L92.9821 183.787L81.0062 238.14C80.9847 238.237 80.9581 238.333 80.9268 238.425L79.4675 245.933C79.1098 247.773 77.2673 248.925 75.4567 248.44C73.646 247.954 72.6261 246.036 73.2364 244.264L75.7892 236.85C75.8 236.811 75.8117 236.772 75.8244 236.733Z"/>
</mask>
<path fill-rule="evenodd" clip-rule="evenodd" d="M75.8244 236.733L92.9821 183.787L81.0062 238.14C80.9847 238.237 80.9581 238.333 80.9268 238.425L79.4675 245.933C79.1098 247.773 77.2673 248.925 75.4567 248.44C73.646 247.954 72.6261 246.036 73.2364 244.264L75.7892 236.85C75.8 236.811 75.8117 236.772 75.8244 236.733Z" fill="#00A3FF"/>
<path d="M92.9821 183.787L92.5064 183.633L93.4704 183.895L92.9821 183.787ZM75.8244 236.733L76.3 236.887L76.3 236.887L75.8244 236.733ZM81.0062 238.14L80.5179 238.032L80.5179 238.032L81.0062 238.14ZM80.9268 238.425L80.4359 238.33L80.4423 238.297L80.4531 238.265L80.9268 238.425ZM79.4675 245.933L79.9583 246.029L79.9583 246.029L79.4675 245.933ZM73.2364 244.264L72.7636 244.101L72.7636 244.101L73.2364 244.264ZM75.7892 236.85L76.2713 236.983L76.2671 236.998L76.262 237.013L75.7892 236.85ZM93.4577 183.942L76.3 236.887L75.3487 236.578L92.5064 183.633L93.4577 183.942ZM80.5179 238.032L92.4938 183.68L93.4704 183.895L81.4945 238.247L80.5179 238.032ZM80.4531 238.265C80.4786 238.19 80.5003 238.112 80.5179 238.032L81.4945 238.247C81.4691 238.363 81.4376 238.476 81.4004 238.585L80.4531 238.265ZM78.9767 245.838L80.4359 238.33L81.4176 238.521L79.9583 246.029L78.9767 245.838ZM75.5861 247.957C77.1168 248.367 78.6743 247.393 78.9767 245.838L79.9583 246.029C79.5453 248.153 77.4179 249.483 75.3273 248.922L75.5861 247.957ZM73.7091 244.426C73.1932 245.925 74.0554 247.546 75.5861 247.957L75.3273 248.922C73.2366 248.362 72.0589 246.147 72.7636 244.101L73.7091 244.426ZM76.262 237.013L73.7091 244.426L72.7636 244.101L75.3165 236.687L76.262 237.013ZM76.3 236.887C76.2897 236.919 76.2801 236.951 76.2713 236.983L75.3072 236.717C75.3199 236.671 75.3338 236.625 75.3487 236.578L76.3 236.887Z" fill="black" fill-opacity="0.68" mask="url(#path-5-inside-3_38_995)"/>
<mask id="path-7-inside-4_38_995" fill="white">
<path fill-rule="evenodd" clip-rule="evenodd" d="M264.858 229.599L282.015 176.654L270.04 231.006C270.018 231.104 269.991 231.199 269.96 231.292L268.501 238.8C268.143 240.64 266.301 241.791 264.49 241.306C262.679 240.821 261.659 238.903 262.27 237.13L264.823 229.716C264.833 229.677 264.845 229.638 264.858 229.599Z"/>
</mask>
<path fill-rule="evenodd" clip-rule="evenodd" d="M264.858 229.599L282.015 176.654L270.04 231.006C270.018 231.104 269.991 231.199 269.96 231.292L268.501 238.8C268.143 240.64 266.301 241.791 264.49 241.306C262.679 240.821 261.659 238.903 262.27 237.13L264.823 229.716C264.833 229.677 264.845 229.638 264.858 229.599Z" fill="#00A3FF"/>
<path d="M282.015 176.654L281.54 176.5L282.504 176.762L282.015 176.654ZM264.858 229.599L264.382 229.445L264.382 229.445L264.858 229.599ZM270.04 231.006L269.551 230.899L269.551 230.899L270.04 231.006ZM269.96 231.292L269.469 231.197L269.476 231.164L269.486 231.132L269.96 231.292ZM268.501 238.8L268.01 238.704L268.01 238.704L268.501 238.8ZM262.27 237.13L262.742 237.293L262.742 237.293L262.27 237.13ZM264.823 229.716L265.305 229.849L265.3 229.864L265.295 229.879L264.823 229.716ZM282.491 176.808L265.333 229.753L264.382 229.445L281.54 176.5L282.491 176.808ZM269.551 230.899L281.527 176.546L282.504 176.762L270.528 231.114L269.551 230.899ZM269.486 231.132C269.512 231.056 269.534 230.979 269.551 230.899L270.528 231.114C270.502 231.229 270.471 231.342 270.434 231.452L269.486 231.132ZM268.01 238.704L269.469 231.197L270.451 231.387L268.992 238.895L268.01 238.704ZM264.619 240.823C266.15 241.233 267.708 240.26 268.01 238.704L268.992 238.895C268.579 241.02 266.451 242.349 264.361 241.789L264.619 240.823ZM262.742 237.293C262.227 238.791 263.089 240.413 264.619 240.823L264.361 241.789C262.27 241.229 261.092 239.014 261.797 236.967L262.742 237.293ZM265.295 229.879L262.742 237.293L261.797 236.967L264.35 229.554L265.295 229.879ZM265.333 229.753C265.323 229.785 265.313 229.817 265.305 229.849L264.341 229.584C264.353 229.537 264.367 229.491 264.382 229.445L265.333 229.753Z" fill="black" fill-opacity="0.68" mask="url(#path-7-inside-4_38_995)"/>
<mask id="path-9-inside-5_38_995" fill="white">
<path fill-rule="evenodd" clip-rule="evenodd" d="M54.4244 211.766L71.5821 158.821L59.6062 213.173C59.5847 213.271 59.5581 213.366 59.5268 213.459L58.0675 220.967C57.7098 222.807 55.8674 223.958 54.0567 223.473C52.246 222.988 51.2261 221.069 51.8364 219.297L54.3891 211.884C54.3999 211.844 54.4117 211.805 54.4244 211.766Z"/>
</mask>
<path fill-rule="evenodd" clip-rule="evenodd" d="M54.4244 211.766L71.5821 158.821L59.6062 213.173C59.5847 213.271 59.5581 213.366 59.5268 213.459L58.0675 220.967C57.7098 222.807 55.8674 223.958 54.0567 223.473C52.246 222.988 51.2261 221.069 51.8364 219.297L54.3891 211.884C54.3999 211.844 54.4117 211.805 54.4244 211.766Z" fill="#00A3FF"/>
<path d="M71.5821 158.821L71.1064 158.667L72.0704 158.928L71.5821 158.821ZM54.4244 211.766L53.9487 211.612L53.9487 211.612L54.4244 211.766ZM59.6062 213.173L60.0945 213.281L60.0945 213.281L59.6062 213.173ZM59.5268 213.459L59.036 213.363L59.0424 213.33L59.0531 213.299L59.5268 213.459ZM58.0675 220.967L57.5767 220.871L57.5767 220.871L58.0675 220.967ZM51.8364 219.297L52.3091 219.46L51.8364 219.297ZM54.3891 211.884L54.8712 212.016L54.867 212.032L54.8618 212.046L54.3891 211.884ZM72.0577 158.975L54.9 211.92L53.9487 211.612L71.1064 158.667L72.0577 158.975ZM59.118 213.065L71.0938 158.713L72.0704 158.928L60.0945 213.281L59.118 213.065ZM59.0531 213.299C59.0786 213.223 59.1003 213.145 59.118 213.065L60.0945 213.281C60.0691 213.396 60.0376 213.509 60.0005 213.619L59.0531 213.299ZM57.5767 220.871L59.036 213.363L60.0176 213.554L58.5583 221.062L57.5767 220.871ZM54.1861 222.99C55.7168 223.4 57.2743 222.427 57.5767 220.871L58.5583 221.062C58.1453 223.187 56.0179 224.516 53.9273 223.956L54.1861 222.99ZM52.3091 219.46C51.7932 220.958 52.6554 222.58 54.1861 222.99L53.9273 223.956C51.8366 223.396 50.6589 221.181 51.3636 219.134L52.3091 219.46ZM54.8618 212.046L52.3091 219.46L51.3636 219.134L53.9163 211.721L54.8618 212.046ZM54.9 211.92C54.8896 211.952 54.88 211.984 54.8712 212.016L53.907 211.751C53.9198 211.705 53.9337 211.658 53.9487 211.612L54.9 211.92Z" fill="black" fill-opacity="0.68" mask="url(#path-9-inside-5_38_995)"/>
<mask id="path-11-inside-6_38_995" fill="white">
<path fill-rule="evenodd" clip-rule="evenodd" d="M239.891 247.433L257.049 194.487L245.073 248.84C245.051 248.937 245.025 249.033 244.993 249.125L243.534 256.633C243.176 258.473 241.334 259.625 239.523 259.139C237.713 258.654 236.693 256.736 237.303 254.964L239.856 247.55C239.867 247.511 239.878 247.472 239.891 247.433Z"/>
</mask>
<path fill-rule="evenodd" clip-rule="evenodd" d="M239.891 247.433L257.049 194.487L245.073 248.84C245.051 248.937 245.025 249.033 244.993 249.125L243.534 256.633C243.176 258.473 241.334 259.625 239.523 259.139C237.713 258.654 236.693 256.736 237.303 254.964L239.856 247.55C239.867 247.511 239.878 247.472 239.891 247.433Z" fill="#00A3FF"/>
<path d="M257.049 194.487L256.573 194.333L257.537 194.595L257.049 194.487ZM239.891 247.433L240.367 247.587L240.367 247.587L239.891 247.433ZM245.073 248.84L245.561 248.947L245.561 248.947L245.073 248.84ZM244.993 249.125L244.503 249.03L244.509 248.997L244.52 248.965L244.993 249.125ZM243.534 256.633L244.025 256.729L243.534 256.633ZM237.303 254.964L236.83 254.801L236.83 254.801L237.303 254.964ZM239.856 247.55L240.338 247.683L240.334 247.698L240.329 247.713L239.856 247.55ZM257.524 194.642L240.367 247.587L239.415 247.278L256.573 194.333L257.524 194.642ZM244.585 248.732L256.56 194.38L257.537 194.595L245.561 248.947L244.585 248.732ZM244.52 248.965C244.545 248.89 244.567 248.812 244.585 248.732L245.561 248.947C245.536 249.063 245.504 249.176 245.467 249.285L244.52 248.965ZM243.043 256.538L244.503 249.03L245.484 249.221L244.025 256.729L243.043 256.538ZM239.653 258.656C241.183 259.067 242.741 258.093 243.043 256.538L244.025 256.729C243.612 258.853 241.485 260.183 239.394 259.622L239.653 258.656ZM237.776 255.126C237.26 256.625 238.122 258.246 239.653 258.656L239.394 259.622C237.303 259.062 236.126 256.847 236.83 254.801L237.776 255.126ZM240.329 247.713L237.776 255.126L236.83 254.801L239.383 247.387L240.329 247.713ZM240.367 247.587C240.356 247.619 240.347 247.651 240.338 247.683L239.374 247.417C239.387 247.371 239.4 247.325 239.415 247.278L240.367 247.587Z" fill="black" fill-opacity="0.68" mask="url(#path-11-inside-6_38_995)"/>
<mask id="path-13-inside-7_38_995" fill="white">
<path fill-rule="evenodd" clip-rule="evenodd" d="M186.391 236.733L203.549 183.787L191.573 238.14C191.551 238.237 191.525 238.333 191.493 238.425L190.034 245.933C189.676 247.773 187.834 248.925 186.023 248.44C184.213 247.954 183.193 246.036 183.803 244.264L186.356 236.85C186.367 236.811 186.378 236.772 186.391 236.733Z"/>
</mask>
<path fill-rule="evenodd" clip-rule="evenodd" d="M186.391 236.733L203.549 183.787L191.573 238.14C191.551 238.237 191.525 238.333 191.493 238.425L190.034 245.933C189.676 247.773 187.834 248.925 186.023 248.44C184.213 247.954 183.193 246.036 183.803 244.264L186.356 236.85C186.367 236.811 186.378 236.772 186.391 236.733Z" fill="#00A3FF"/>
<path d="M203.549 183.787L203.073 183.633L204.037 183.895L203.549 183.787ZM186.391 236.733L185.915 236.578L185.915 236.578L186.391 236.733ZM191.573 238.14L191.085 238.032L191.085 238.032L191.573 238.14ZM191.493 238.425L191.003 238.33L191.009 238.297L191.02 238.265L191.493 238.425ZM190.034 245.933L189.543 245.838L189.543 245.838L190.034 245.933ZM183.803 244.264L183.33 244.101L183.33 244.101L183.803 244.264ZM186.356 236.85L186.838 236.983L186.834 236.998L186.829 237.013L186.356 236.85ZM204.024 183.942L186.867 236.887L185.915 236.578L203.073 183.633L204.024 183.942ZM191.085 238.032L203.06 183.68L204.037 183.895L192.061 238.247L191.085 238.032ZM191.02 238.265C191.045 238.19 191.067 238.112 191.085 238.032L192.061 238.247C192.036 238.363 192.004 238.476 191.967 238.585L191.02 238.265ZM189.543 245.838L191.003 238.33L191.984 238.521L190.525 246.029L189.543 245.838ZM186.153 247.957C187.683 248.367 189.241 247.393 189.543 245.838L190.525 246.029C190.112 248.153 187.985 249.483 185.894 248.922L186.153 247.957ZM184.276 244.426C183.76 245.925 184.622 247.546 186.153 247.957L185.894 248.922C183.803 248.362 182.626 246.147 183.33 244.101L184.276 244.426ZM186.829 237.013L184.276 244.426L183.33 244.101L185.883 236.687L186.829 237.013ZM186.867 236.887C186.856 236.919 186.847 236.951 186.838 236.983L185.874 236.717C185.887 236.671 185.9 236.625 185.915 236.578L186.867 236.887Z" fill="black" fill-opacity="0.68" mask="url(#path-13-inside-7_38_995)"/>
<mask id="path-15-inside-8_38_995" fill="white">
<path fill-rule="evenodd" clip-rule="evenodd" d="M100.791 233.166L117.949 180.221L105.973 234.573C105.951 234.671 105.925 234.766 105.893 234.859L104.434 242.367C104.076 244.207 102.234 245.358 100.423 244.873C98.6127 244.388 97.5927 242.469 98.203 240.697L100.756 233.283C100.767 233.244 100.778 233.205 100.791 233.166Z"/>
</mask>
<path fill-rule="evenodd" clip-rule="evenodd" d="M100.791 233.166L117.949 180.221L105.973 234.573C105.951 234.671 105.925 234.766 105.893 234.859L104.434 242.367C104.076 244.207 102.234 245.358 100.423 244.873C98.6127 244.388 97.5927 242.469 98.203 240.697L100.756 233.283C100.767 233.244 100.778 233.205 100.791 233.166Z" fill="#00A3FF"/>
<path d="M117.949 180.221L117.473 180.067L118.437 180.328L117.949 180.221ZM100.791 233.166L100.315 233.012L100.315 233.012L100.791 233.166ZM105.973 234.573L105.485 234.465L105.485 234.465L105.973 234.573ZM105.893 234.859L105.403 234.763L105.409 234.73L105.42 234.699L105.893 234.859ZM104.434 242.367L104.925 242.462L104.925 242.462L104.434 242.367ZM98.203 240.697L98.6758 240.86L98.6758 240.86L98.203 240.697ZM100.756 233.283L101.238 233.416L101.234 233.431L101.229 233.446L100.756 233.283ZM118.424 180.375L101.267 233.32L100.315 233.012L117.473 180.067L118.424 180.375ZM105.485 234.465L117.46 180.113L118.437 180.328L106.461 234.681L105.485 234.465ZM105.42 234.699C105.445 234.623 105.467 234.545 105.485 234.465L106.461 234.681C106.436 234.796 106.404 234.909 106.367 235.019L105.42 234.699ZM103.943 242.271L105.403 234.763L106.384 234.954L104.925 242.462L103.943 242.271ZM100.553 244.39C102.083 244.8 103.641 243.827 103.943 242.271L104.925 242.462C104.512 244.587 102.385 245.916 100.294 245.356L100.553 244.39ZM98.6758 240.86C98.1599 242.358 99.0221 243.98 100.553 244.39L100.294 245.356C98.2033 244.796 97.0256 242.581 97.7303 240.534L98.6758 240.86ZM101.229 233.446L98.6758 240.86L97.7303 240.534L100.283 233.12L101.229 233.446ZM101.267 233.32C101.256 233.352 101.247 233.384 101.238 233.416L100.274 233.15C100.287 233.104 100.3 233.058 100.315 233.012L101.267 233.32Z" fill="black" fill-opacity="0.68" mask="url(#path-15-inside-8_38_995)"/>
<mask id="path-17-inside-9_38_995" fill="white">
<path fill-rule="evenodd" clip-rule="evenodd" d="M198.668 255.419C199.508 253.108 202.969 254.056 202.514 256.472L201.143 263.743C201.073 264.113 200.929 264.449 200.729 264.738C200.34 265.3 200.172 266.161 200.356 266.819C200.468 267.221 200.5 267.67 200.428 268.161C200.162 269.987 198.362 271.172 196.579 270.695C194.796 270.217 193.829 268.291 194.512 266.576C194.699 266.107 194.956 265.73 195.26 265.436C195.752 264.961 196.043 264.133 195.992 263.452C195.966 263.097 196.013 262.731 196.142 262.373L198.668 255.419Z"/>
</mask>
<path fill-rule="evenodd" clip-rule="evenodd" d="M198.668 255.419C199.508 253.108 202.969 254.056 202.514 256.472L201.143 263.743C201.073 264.113 200.929 264.449 200.729 264.738C200.34 265.3 200.172 266.161 200.356 266.819C200.468 267.221 200.5 267.67 200.428 268.161C200.162 269.987 198.362 271.172 196.579 270.695C194.796 270.217 193.829 268.291 194.512 266.576C194.699 266.107 194.956 265.73 195.26 265.436C195.752 264.961 196.043 264.133 195.992 263.452C195.966 263.097 196.013 262.731 196.142 262.373L198.668 255.419Z" fill="#00A3FF"/>
<path d="M202.514 256.472L202.022 256.38L202.022 256.38L202.514 256.472ZM198.668 255.419L198.199 255.248L198.199 255.248L198.668 255.419ZM201.143 263.743L201.634 263.835L201.634 263.835L201.143 263.743ZM200.428 268.161L199.933 268.089L200.428 268.161ZM194.512 266.576L194.977 266.761L194.977 266.761L194.512 266.576ZM196.142 262.373L195.673 262.202L195.673 262.202L196.142 262.373ZM195.26 265.436L195.608 265.795L195.26 265.436ZM200.729 264.738L201.14 265.023L200.729 264.738ZM202.022 256.38C202.364 254.567 199.768 253.856 199.138 255.59L198.199 255.248C199.248 252.359 203.574 253.544 203.005 256.565L202.022 256.38ZM200.652 263.65L202.022 256.38L203.005 256.565L201.634 263.835L200.652 263.65ZM200.317 264.454C200.478 264.221 200.595 263.95 200.652 263.65L201.634 263.835C201.551 264.275 201.379 264.676 201.14 265.023L200.317 264.454ZM199.933 268.089C199.995 267.663 199.966 267.284 199.874 266.954L200.837 266.685C200.969 267.157 201.004 267.677 200.923 268.233L199.933 268.089ZM196.708 270.212C198.202 270.612 199.71 269.619 199.933 268.089L200.923 268.233C200.614 270.356 198.521 271.733 196.449 271.178L196.708 270.212ZM194.977 266.761C194.405 268.197 195.215 269.811 196.708 270.212L196.449 271.178C194.378 270.622 193.254 268.384 194.048 266.391L194.977 266.761ZM195.608 265.795C195.357 266.037 195.138 266.355 194.977 266.761L194.048 266.391C194.259 265.86 194.555 265.422 194.913 265.076L195.608 265.795ZM196.612 262.544C196.507 262.834 196.47 263.129 196.491 263.415L195.494 263.488C195.462 263.065 195.518 262.628 195.673 262.202L196.612 262.544ZM199.138 255.59L196.612 262.544L195.673 262.202L198.199 255.248L199.138 255.59ZM194.913 265.076C195.29 264.712 195.534 264.033 195.494 263.488L196.491 263.415C196.551 264.233 196.214 265.209 195.608 265.795L194.913 265.076ZM201.14 265.023C200.83 265.472 200.697 266.181 200.837 266.685L199.874 266.954C199.648 266.142 199.851 265.129 200.317 264.454L201.14 265.023Z" fill="black" fill-opacity="0.68" mask="url(#path-17-inside-9_38_995)"/>
<mask id="path-19-inside-10_38_995" fill="white">
<path fill-rule="evenodd" clip-rule="evenodd" d="M166.568 276.819C167.408 274.508 170.869 275.456 170.414 277.872L169.043 285.143C168.973 285.513 168.829 285.849 168.629 286.138C168.241 286.701 168.072 287.561 168.256 288.219C168.368 288.621 168.4 289.07 168.328 289.561C168.062 291.387 166.262 292.572 164.479 292.095C162.696 291.617 161.73 289.691 162.412 287.976C162.599 287.507 162.856 287.13 163.16 286.836C163.652 286.361 163.943 285.533 163.892 284.852C163.866 284.497 163.913 284.131 164.042 283.773L166.568 276.819Z"/>
</mask>
<path fill-rule="evenodd" clip-rule="evenodd" d="M166.568 276.819C167.408 274.508 170.869 275.456 170.414 277.872L169.043 285.143C168.973 285.513 168.829 285.849 168.629 286.138C168.241 286.701 168.072 287.561 168.256 288.219C168.368 288.621 168.4 289.07 168.328 289.561C168.062 291.387 166.262 292.572 164.479 292.095C162.696 291.617 161.73 289.691 162.412 287.976C162.599 287.507 162.856 287.13 163.16 286.836C163.652 286.361 163.943 285.533 163.892 284.852C163.866 284.497 163.913 284.131 164.042 283.773L166.568 276.819Z" fill="#00A3FF"/>
<path d="M170.414 277.872L169.922 277.78L169.922 277.78L170.414 277.872ZM166.568 276.819L167.038 276.99L167.038 276.99L166.568 276.819ZM169.043 285.143L169.534 285.235L169.534 285.235L169.043 285.143ZM168.328 289.561L168.823 289.633L168.328 289.561ZM162.412 287.976L161.948 287.791L161.948 287.791L162.412 287.976ZM164.042 283.773L163.573 283.602L163.573 283.602L164.042 283.773ZM163.16 286.836L163.508 287.195L163.16 286.836ZM163.892 284.852L164.391 284.815L163.892 284.852ZM168.629 286.138L169.04 286.423L168.629 286.138ZM168.256 288.219L168.738 288.085L168.256 288.219ZM169.922 277.78C170.264 275.967 167.668 275.256 167.038 276.99L166.099 276.648C167.148 273.759 171.474 274.944 170.905 277.965L169.922 277.78ZM168.552 285.05L169.922 277.78L170.905 277.965L169.534 285.235L168.552 285.05ZM168.217 285.854C168.378 285.621 168.495 285.35 168.552 285.05L169.534 285.235C169.451 285.675 169.279 286.076 169.04 286.423L168.217 285.854ZM167.833 289.489C167.895 289.063 167.866 288.684 167.774 288.354L168.738 288.085C168.869 288.557 168.904 289.077 168.823 289.633L167.833 289.489ZM164.608 291.612C166.102 292.012 167.61 291.019 167.833 289.489L168.823 289.633C168.514 291.756 166.421 293.133 164.349 292.578L164.608 291.612ZM162.877 288.161C162.305 289.597 163.115 291.211 164.608 291.612L164.349 292.578C162.278 292.022 161.154 289.784 161.948 287.791L162.877 288.161ZM163.508 287.195C163.257 287.437 163.038 287.755 162.877 288.161L161.948 287.791C162.159 287.26 162.455 286.822 162.813 286.476L163.508 287.195ZM164.512 283.944C164.407 284.234 164.37 284.529 164.391 284.815L163.394 284.888C163.362 284.465 163.418 284.028 163.573 283.602L164.512 283.944ZM167.038 276.99L164.512 283.944L163.573 283.602L166.099 276.648L167.038 276.99ZM162.813 286.476C163.19 286.112 163.434 285.433 163.394 284.888L164.391 284.815C164.451 285.633 164.114 286.609 163.508 287.195L162.813 286.476ZM169.04 286.423C168.73 286.872 168.597 287.581 168.738 288.085L167.774 288.354C167.548 287.542 167.751 286.529 168.217 285.854L169.04 286.423Z" fill="black" fill-opacity="0.68" mask="url(#path-19-inside-10_38_995)"/>
<mask id="path-21-inside-11_38_995" fill="white">
<path fill-rule="evenodd" clip-rule="evenodd" d="M88.1018 266.119C88.9413 263.808 92.4025 264.756 91.947 267.172L90.5764 274.443C90.5066 274.813 90.3622 275.149 90.1621 275.438C89.7738 276.001 89.6058 276.861 89.7892 277.519C89.9011 277.921 89.933 278.37 89.8614 278.861C89.5953 280.687 87.795 281.872 86.0122 281.395C84.2294 280.917 83.2628 278.991 83.9455 277.276C84.132 276.807 84.3896 276.43 84.6937 276.136C85.1851 275.661 85.4761 274.833 85.4256 274.152C85.3993 273.797 85.4459 273.431 85.5758 273.073L88.1018 266.119Z"/>
</mask>
<path fill-rule="evenodd" clip-rule="evenodd" d="M88.1018 266.119C88.9413 263.808 92.4025 264.756 91.947 267.172L90.5764 274.443C90.5066 274.813 90.3622 275.149 90.1621 275.438C89.7738 276.001 89.6058 276.861 89.7892 277.519C89.9011 277.921 89.933 278.37 89.8614 278.861C89.5953 280.687 87.795 281.872 86.0122 281.395C84.2294 280.917 83.2628 278.991 83.9455 277.276C84.132 276.807 84.3896 276.43 84.6937 276.136C85.1851 275.661 85.4761 274.833 85.4256 274.152C85.3993 273.797 85.4459 273.431 85.5758 273.073L88.1018 266.119Z" fill="#00A3FF"/>
<path d="M91.947 267.172L92.4384 267.265L92.4384 267.265L91.947 267.172ZM88.1018 266.119L87.6319 265.948L87.6319 265.948L88.1018 266.119ZM90.5764 274.443L91.0678 274.535L91.0678 274.535L90.5764 274.443ZM89.8614 278.861L90.3562 278.933L89.8614 278.861ZM83.9455 277.276L83.481 277.091L83.481 277.091L83.9455 277.276ZM85.5758 273.073L85.1059 272.902L85.1059 272.902L85.5758 273.073ZM85.4256 274.152L85.9242 274.115L85.4256 274.152ZM91.4557 267.08C91.7973 265.267 89.2014 264.556 88.5718 266.29L87.6319 265.948C88.6812 263.059 93.0077 264.244 92.4384 267.265L91.4557 267.08ZM90.0851 274.35L91.4557 267.08L92.4384 267.265L91.0678 274.535L90.0851 274.35ZM89.7507 275.154C89.9118 274.921 90.0285 274.65 90.0851 274.35L91.0678 274.535C90.9848 274.975 90.8126 275.376 90.5735 275.723L89.7507 275.154ZM89.3667 278.789C89.4287 278.363 89.3998 277.984 89.3075 277.654L90.2708 277.385C90.4024 277.857 90.4372 278.377 90.3562 278.933L89.3667 278.789ZM86.1416 280.912C87.6353 281.312 89.1437 280.319 89.3667 278.789L90.3562 278.933C90.0469 281.056 87.9547 282.433 85.8828 281.878L86.1416 280.912ZM84.4101 277.461C83.8381 278.897 84.6479 280.511 86.1416 280.912L85.8828 281.878C83.8109 281.322 82.6876 279.084 83.481 277.091L84.4101 277.461ZM85.0412 276.495C84.7907 276.737 84.5718 277.055 84.4101 277.461L83.481 277.091C83.6923 276.56 83.9885 276.122 84.3463 275.776L85.0412 276.495ZM86.0458 273.244C85.9404 273.534 85.9031 273.829 85.9242 274.115L84.927 274.188C84.8956 273.765 84.9513 273.328 85.1059 272.902L86.0458 273.244ZM88.5718 266.29L86.0458 273.244L85.1059 272.902L87.6319 265.948L88.5718 266.29ZM84.3463 275.776C84.7229 275.412 84.9673 274.733 84.927 274.188L85.9242 274.115C85.9848 274.933 85.6474 275.909 85.0412 276.495L84.3463 275.776ZM90.5735 275.723C90.263 276.172 90.1303 276.881 90.2708 277.385L89.3075 277.654C89.0813 276.842 89.2847 275.829 89.7507 275.154L90.5735 275.723Z" fill="black" fill-opacity="0.68" mask="url(#path-21-inside-11_38_995)"/>
<mask id="path-23-inside-12_38_995" fill="white">
<path fill-rule="evenodd" clip-rule="evenodd" d="M56.0018 241.152C56.8413 238.841 60.3025 239.789 59.847 242.206L58.4764 249.476C58.4067 249.846 58.2622 250.182 58.0621 250.472C57.6739 251.034 57.5058 251.895 57.6892 252.553C57.8011 252.954 57.833 253.404 57.7615 253.894C57.4953 255.721 55.695 256.906 53.9122 256.428C52.1294 255.95 51.1629 254.024 51.8456 252.309C52.0321 251.841 52.2896 251.463 52.5938 251.169C53.0852 250.694 53.3761 249.866 53.3256 249.185C53.2994 248.83 53.3459 248.464 53.4758 248.106L56.0018 241.152Z"/>
</mask>
<path fill-rule="evenodd" clip-rule="evenodd" d="M56.0018 241.152C56.8413 238.841 60.3025 239.789 59.847 242.206L58.4764 249.476C58.4067 249.846 58.2622 250.182 58.0621 250.472C57.6739 251.034 57.5058 251.895 57.6892 252.553C57.8011 252.954 57.833 253.404 57.7615 253.894C57.4953 255.721 55.695 256.906 53.9122 256.428C52.1294 255.95 51.1629 254.024 51.8456 252.309C52.0321 251.841 52.2896 251.463 52.5938 251.169C53.0852 250.694 53.3761 249.866 53.3256 249.185C53.2994 248.83 53.3459 248.464 53.4758 248.106L56.0018 241.152Z" fill="#00A3FF"/>
<path d="M59.847 242.206L59.3557 242.113L59.3557 242.113L59.847 242.206ZM56.0018 241.152L56.4718 241.323L56.4718 241.323L56.0018 241.152ZM58.4764 249.476L58.9678 249.569L58.9678 249.569L58.4764 249.476ZM57.7615 253.894L58.2562 253.966L57.7615 253.894ZM51.8456 252.309L51.381 252.124L51.381 252.124L51.8456 252.309ZM53.4758 248.106L53.0059 247.935L53.0059 247.935L53.4758 248.106ZM53.3256 249.185L53.8242 249.148L53.3256 249.185ZM59.3557 242.113C59.6973 240.301 57.1014 239.59 56.4718 241.323L55.5319 240.981C56.5812 238.093 60.9078 239.278 60.3384 242.298L59.3557 242.113ZM57.9851 249.383L59.3557 242.113L60.3384 242.298L58.9678 249.569L57.9851 249.383ZM57.6507 250.188C57.8118 249.954 57.9285 249.683 57.9851 249.383L58.9678 249.569C58.8848 250.009 58.7127 250.41 58.4735 250.756L57.6507 250.188ZM57.2667 253.822C57.3287 253.397 57.2998 253.018 57.2076 252.687L58.1709 252.418C58.3024 252.891 58.3373 253.41 58.2562 253.966L57.2667 253.822ZM54.0416 255.945C55.5353 256.345 57.0437 255.352 57.2667 253.822L58.2562 253.966C57.9469 256.089 55.8547 257.466 53.7828 256.911L54.0416 255.945ZM52.3101 252.494C51.7381 253.931 52.548 255.545 54.0416 255.945L53.7828 256.911C51.7109 256.356 50.5876 254.117 51.381 252.124L52.3101 252.494ZM52.9412 251.529C52.6907 251.771 52.4718 252.088 52.3101 252.494L51.381 252.124C51.5923 251.594 51.8885 251.155 52.2463 250.809L52.9412 251.529ZM53.9458 248.277C53.8404 248.567 53.8031 248.863 53.8242 249.148L52.827 249.222C52.7956 248.798 52.8514 248.361 53.0059 247.935L53.9458 248.277ZM56.4718 241.323L53.9458 248.277L53.0059 247.935L55.5319 240.981L56.4718 241.323ZM52.2463 250.809C52.6229 250.445 52.8673 249.767 52.827 249.222L53.8242 249.148C53.8848 249.966 53.5474 250.943 52.9412 251.529L52.2463 250.809ZM58.4735 250.756C58.163 251.205 58.0303 251.914 58.1709 252.418L57.2076 252.687C56.9813 251.875 57.1847 250.862 57.6507 250.188L58.4735 250.756Z" fill="black" fill-opacity="0.68" mask="url(#path-23-inside-12_38_995)"/>
<mask id="path-25-inside-13_38_995" fill="white">
<path fill-rule="evenodd" clip-rule="evenodd" d="M120.202 251.852C121.041 249.541 124.502 250.489 124.047 252.906L122.676 260.176C122.607 260.546 122.462 260.882 122.262 261.172C121.874 261.734 121.706 262.595 121.889 263.253C122.001 263.654 122.033 264.104 121.961 264.594C121.695 266.421 119.895 267.606 118.112 267.128C116.329 266.65 115.363 264.724 116.046 263.009C116.232 262.541 116.49 262.163 116.794 261.869C117.285 261.394 117.576 260.566 117.526 259.885C117.499 259.53 117.546 259.164 117.676 258.806L120.202 251.852Z"/>
</mask>
<path fill-rule="evenodd" clip-rule="evenodd" d="M120.202 251.852C121.041 249.541 124.502 250.489 124.047 252.906L122.676 260.176C122.607 260.546 122.462 260.882 122.262 261.172C121.874 261.734 121.706 262.595 121.889 263.253C122.001 263.654 122.033 264.104 121.961 264.594C121.695 266.421 119.895 267.606 118.112 267.128C116.329 266.65 115.363 264.724 116.046 263.009C116.232 262.541 116.49 262.163 116.794 261.869C117.285 261.394 117.576 260.566 117.526 259.885C117.499 259.53 117.546 259.164 117.676 258.806L120.202 251.852Z" fill="#00A3FF"/>
<path d="M124.047 252.906L123.556 252.813L123.556 252.813L124.047 252.906ZM120.202 251.852L120.672 252.023L120.672 252.023L120.202 251.852ZM122.676 260.176L123.168 260.269L123.168 260.269L122.676 260.176ZM121.961 264.594L121.467 264.522L121.467 264.522L121.961 264.594ZM116.046 263.009L115.581 262.824L115.581 262.824L116.046 263.009ZM117.676 258.806L117.206 258.635L117.206 258.635L117.676 258.806ZM121.889 263.253L121.408 263.387L121.889 263.253ZM123.556 252.813C123.897 251.001 121.301 250.29 120.672 252.023L119.732 251.682C120.781 248.793 125.108 249.978 124.538 252.998L123.556 252.813ZM122.185 260.083L123.556 252.813L124.538 252.998L123.168 260.269L122.185 260.083ZM121.851 260.888C122.012 260.654 122.128 260.384 122.185 260.083L123.168 260.269C123.085 260.709 122.913 261.11 122.673 261.456L121.851 260.888ZM121.467 264.522C121.529 264.097 121.5 263.718 121.408 263.387L122.371 263.118C122.502 263.591 122.537 264.11 122.456 264.666L121.467 264.522ZM118.242 266.645C119.735 267.045 121.244 266.052 121.467 264.522L122.456 264.666C122.147 266.789 120.055 268.166 117.983 267.611L118.242 266.645ZM116.51 263.194C115.938 264.631 116.748 266.245 118.242 266.645L117.983 267.611C115.911 267.056 114.788 264.817 115.581 262.824L116.51 263.194ZM117.141 262.229C116.891 262.471 116.672 262.788 116.51 263.194L115.581 262.824C115.792 262.294 116.088 261.855 116.446 261.509L117.141 262.229ZM118.146 258.977C118.04 259.267 118.003 259.563 118.024 259.848L117.027 259.922C116.996 259.498 117.051 259.061 117.206 258.635L118.146 258.977ZM120.672 252.023L118.146 258.977L117.206 258.635L119.732 251.682L120.672 252.023ZM116.446 261.509C116.823 261.145 117.067 260.467 117.027 259.922L118.024 259.848C118.085 260.666 117.747 261.643 117.141 262.229L116.446 261.509ZM122.673 261.456C122.363 261.905 122.23 262.614 122.371 263.118L121.408 263.387C121.181 262.575 121.385 261.562 121.851 260.888L122.673 261.456Z" fill="black" fill-opacity="0.68" mask="url(#path-25-inside-13_38_995)"/>
<ellipse cx="81.25" cy="132.967" rx="80.25" ry="74.9" fill="white"/>
<ellipse cx="163.283" cy="132.967" rx="80.25" ry="74.9" fill="white"/>
<ellipse cx="241.75" cy="132.967" rx="80.25" ry="74.9" fill="white"/>
<ellipse cx="131.183" cy="75.9" rx="80.25" ry="74.9" fill="white"/>
<ellipse cx="209.65" cy="100.867" rx="80.25" ry="74.9" fill="white"/>
<mask id="path-32-outside-14_38_995" maskUnits="userSpaceOnUse" x="0" y="0" width="323" height="209" fill="black">
<rect fill="white" width="323" height="209"/>
<path fill-rule="evenodd" clip-rule="evenodd" d="M52.0886 63.1652C58.5668 27.8649 91.5136 1 131.183 1C155.817 1 177.858 11.3592 192.579 27.6648C198.081 26.5525 203.792 25.9667 209.65 25.9667C241.36 25.9667 268.774 43.1324 281.808 68.0508C305.832 80.9924 322 105.217 322 132.967C322 174.333 286.071 207.867 241.75 207.867C227.5 207.867 214.117 204.4 202.517 198.321C190.917 204.4 177.534 207.867 163.283 207.867C148.297 207.867 134.27 204.032 122.267 197.358C110.264 204.032 96.2366 207.867 81.25 207.867C36.9291 207.867 1 174.333 1 132.967C1 101.202 22.1857 74.0558 52.0886 63.1652Z"/>
</mask>
<path fill-rule="evenodd" clip-rule="evenodd" d="M52.0886 63.1652C58.5668 27.8649 91.5136 1 131.183 1C155.817 1 177.858 11.3592 192.579 27.6648C198.081 26.5525 203.792 25.9667 209.65 25.9667C241.36 25.9667 268.774 43.1324 281.808 68.0508C305.832 80.9924 322 105.217 322 132.967C322 174.333 286.071 207.867 241.75 207.867C227.5 207.867 214.117 204.4 202.517 198.321C190.917 204.4 177.534 207.867 163.283 207.867C148.297 207.867 134.27 204.032 122.267 197.358C110.264 204.032 96.2366 207.867 81.25 207.867C36.9291 207.867 1 174.333 1 132.967C1 101.202 22.1857 74.0558 52.0886 63.1652Z" fill="white"/>
<path d="M52.0886 63.1652L52.4308 64.1049L52.9688 63.9089L53.0721 63.3457L52.0886 63.1652ZM192.579 27.6648L191.837 28.3349L192.219 28.7579L192.778 28.645L192.579 27.6648ZM281.808 68.0508L280.922 68.5142L281.064 68.7858L281.334 68.9311L281.808 68.0508ZM202.517 198.321L202.981 197.435L202.517 197.192L202.052 197.435L202.517 198.321ZM122.267 197.358L122.753 196.484L122.267 196.214L121.781 196.484L122.267 197.358ZM131.183 0C91.0718 0 57.6775 27.1706 51.105 62.9847L53.0721 63.3457C59.456 28.5592 91.9555 2 131.183 2V0ZM193.322 26.9947C178.411 10.4785 156.099 0 131.183 0V2C155.535 2 177.306 12.24 191.837 28.3349L193.322 26.9947ZM209.65 24.9667C203.725 24.9667 197.947 25.5592 192.381 26.6846L192.778 28.645C198.214 27.5458 203.859 26.9667 209.65 26.9667V24.9667ZM282.694 67.5873C269.483 42.3285 241.72 24.9667 209.65 24.9667V26.9667C241 26.9667 268.066 43.9362 280.922 68.5142L282.694 67.5873ZM281.334 68.9311C305.069 81.7175 321 105.624 321 132.967H323C323 104.811 306.594 80.2673 282.282 67.1704L281.334 68.9311ZM321 132.967C321 173.717 285.585 206.867 241.75 206.867V208.867C286.557 208.867 323 174.949 323 132.967H321ZM241.75 206.867C227.663 206.867 214.439 203.44 202.981 197.435L202.052 199.206C213.794 205.36 227.336 208.867 241.75 208.867V206.867ZM163.283 208.867C177.697 208.867 191.239 205.36 202.981 199.206L202.052 197.435C190.594 203.44 177.371 206.867 163.283 206.867V208.867ZM121.781 198.232C133.931 204.988 148.125 208.867 163.283 208.867V206.867C148.468 206.867 134.608 203.077 122.753 196.484L121.781 198.232ZM81.25 208.867C96.4083 208.867 110.602 204.988 122.753 198.232L121.781 196.484C109.925 203.077 96.0649 206.867 81.25 206.867V208.867ZM0 132.967C0 174.949 36.443 208.867 81.25 208.867V206.867C37.4153 206.867 2 173.717 2 132.967H0ZM51.7464 62.2256C21.4952 73.2431 0 100.734 0 132.967H2C2 101.67 22.8763 74.8686 52.4308 64.1049L51.7464 62.2256Z" fill="black" mask="url(#path-32-outside-14_38_995)"/>
<path d="M131.183 151.3C175.747 151.3 211.933 117.574 211.933 75.9C211.933 34.2258 175.747 0.5 131.183 0.5C86.6194 0.5 50.4333 34.2258 50.4333 75.9C50.4333 117.574 86.6194 151.3 131.183 151.3Z" fill="white" stroke="url(#paint0_linear_38_995)"/>
<path d="M81.25 208.367C125.814 208.367 162 174.641 162 132.967C162 91.2924 125.814 57.5667 81.25 57.5667C36.6861 57.5667 0.5 91.2924 0.5 132.967C0.5 174.641 36.6861 208.367 81.25 208.367Z" fill="white" stroke="url(#paint1_linear_38_995)"/>
<path d="M163.283 208.367C207.847 208.367 244.033 174.641 244.033 132.967C244.033 91.2924 207.847 57.5667 163.283 57.5667C118.719 57.5667 82.5333 91.2924 82.5333 132.967C82.5333 174.641 118.719 208.367 163.283 208.367Z" fill="white" stroke="url(#paint2_linear_38_995)"/>
<ellipse cx="241.75" cy="132.967" rx="80.25" ry="74.9" fill="white"/>
<path d="M241.75 208.367C286.314 208.367 322.5 174.641 322.5 132.967C322.5 91.2924 286.314 57.5667 241.75 57.5667C197.186 57.5667 161 91.2924 161 132.967C161 174.641 197.186 208.367 241.75 208.367Z" stroke="url(#paint3_linear_38_995)" stroke-opacity="0.88"/>
<defs>
<linearGradient id="paint0_linear_38_995" x1="33.1" y1="18.8333" x2="231.05" y2="24.1833" gradientUnits="userSpaceOnUse">
<stop/>
<stop offset="1" stop-opacity="0"/>
</linearGradient>
<linearGradient id="paint1_linear_38_995" x1="1" y1="166.85" x2="143.667" y2="163.283" gradientUnits="userSpaceOnUse">
<stop stop-opacity="0.54"/>
<stop offset="0.884367" stop-opacity="0"/>
</linearGradient>
<linearGradient id="paint2_linear_38_995" x1="222.133" y1="207.867" x2="161.5" y2="93.7333" gradientUnits="userSpaceOnUse">
<stop stop-opacity="0.3"/>
<stop offset="1" stop-opacity="0"/>
</linearGradient>
<linearGradient id="paint3_linear_38_995" x1="322" y1="156.15" x2="317.752" y2="167.315" gradientUnits="userSpaceOnUse">
<stop stop-opacity="0.35"/>
<stop offset="1" stop-opacity="0"/>
</linearGradient>
</defs>
</svg>
