<svg width="327" height="297" viewBox="0 0 327 297" fill="none" xmlns="http://www.w3.org/2000/svg">
<mask id="path-1-inside-1_38_148" fill="white">
<path fill-rule="evenodd" clip-rule="evenodd" d="M80.368 232.448L97.7395 178.843L85.6144 233.872C85.5926 233.972 85.5656 234.068 85.5338 234.162L84.0564 241.763C83.6943 243.626 81.8289 244.792 79.9956 244.301C78.1624 243.81 77.1297 241.867 77.7477 240.073L80.3325 232.566C80.3434 232.527 80.3552 232.487 80.368 232.448Z"/>
</mask>
<path fill-rule="evenodd" clip-rule="evenodd" d="M80.368 232.448L97.7395 178.843L85.6144 233.872C85.5926 233.972 85.5656 234.068 85.5338 234.162L84.0564 241.763C83.6943 243.626 81.8289 244.792 79.9956 244.301C78.1624 243.81 77.1297 241.867 77.7477 240.073L80.3325 232.566C80.3434 232.527 80.3552 232.487 80.368 232.448Z" fill="#00A3FF"/>
<path d="M97.7395 178.843L97.2639 178.689L98.2278 178.951L97.7395 178.843ZM80.368 232.448L79.8923 232.294L79.8923 232.294L80.368 232.448ZM85.6144 233.872L86.1027 233.98L86.1027 233.98L85.6144 233.872ZM85.5338 234.162L85.043 234.067L85.0494 234.034L85.0602 234.002L85.5338 234.162ZM84.0564 241.763L83.5656 241.668L83.5656 241.668L84.0564 241.763ZM77.7477 240.073L77.2749 239.91L77.2749 239.91L77.7477 240.073ZM80.3325 232.566L80.8146 232.699L80.8104 232.714L80.8053 232.729L80.3325 232.566ZM98.2151 178.997L80.8436 232.602L79.8923 232.294L97.2639 178.689L98.2151 178.997ZM85.1261 233.765L97.2512 178.735L98.2278 178.951L86.1027 233.98L85.1261 233.765ZM85.0602 234.002C85.0861 233.925 85.1082 233.846 85.1261 233.765L86.1027 233.98C86.0769 234.097 86.0451 234.211 86.0075 234.322L85.0602 234.002ZM83.5656 241.668L85.043 234.067L86.0246 234.257L84.5472 241.859L83.5656 241.668ZM80.125 243.818C81.6783 244.234 83.2588 243.246 83.5656 241.668L84.5472 241.859C84.1298 244.006 81.9795 245.35 79.8662 244.784L80.125 243.818ZM78.2204 240.236C77.6969 241.756 78.5718 243.402 80.125 243.818L79.8662 244.784C77.753 244.217 76.5626 241.979 77.2749 239.91L78.2204 240.236ZM80.8053 232.729L78.2204 240.236L77.2749 239.91L79.8598 232.403L80.8053 232.729ZM80.8436 232.602C80.8331 232.634 80.8235 232.667 80.8146 232.699L79.8505 232.433C79.8634 232.387 79.8773 232.34 79.8923 232.294L80.8436 232.602Z" fill="black" fill-opacity="0.68" mask="url(#path-1-inside-1_38_148)"/>
<mask id="path-3-inside-2_38_148" fill="white">
<path fill-rule="evenodd" clip-rule="evenodd" d="M127.313 221.615L144.684 168.01L132.559 223.039C132.537 223.138 132.51 223.235 132.478 223.329L131.001 230.93C130.639 232.793 128.773 233.959 126.94 233.467C125.107 232.976 124.074 231.034 124.692 229.24L127.277 221.733C127.288 221.693 127.3 221.654 127.313 221.615Z"/>
</mask>
<path fill-rule="evenodd" clip-rule="evenodd" d="M127.313 221.615L144.684 168.01L132.559 223.039C132.537 223.138 132.51 223.235 132.478 223.329L131.001 230.93C130.639 232.793 128.773 233.959 126.94 233.467C125.107 232.976 124.074 231.034 124.692 229.24L127.277 221.733C127.288 221.693 127.3 221.654 127.313 221.615Z" fill="#00A3FF"/>
<path d="M144.684 168.01L144.208 167.855L145.172 168.117L144.684 168.01ZM127.313 221.615L127.788 221.769L127.788 221.769L127.313 221.615ZM132.559 223.039L133.047 223.147L133.047 223.147L132.559 223.039ZM132.478 223.329L131.988 223.233L131.994 223.2L132.005 223.169L132.478 223.329ZM131.001 230.93L130.51 230.835L130.51 230.835L131.001 230.93ZM124.692 229.24L124.219 229.077L124.219 229.077L124.692 229.24ZM127.277 221.733L127.759 221.866L127.755 221.881L127.75 221.895L127.277 221.733ZM145.16 168.164L127.788 221.769L126.837 221.46L144.208 167.855L145.16 168.164ZM132.071 222.931L144.196 167.902L145.172 168.117L133.047 223.147L132.071 222.931ZM132.005 223.169C132.031 223.092 132.053 223.013 132.071 222.931L133.047 223.147C133.022 223.264 132.99 223.378 132.952 223.489L132.005 223.169ZM130.51 230.835L131.988 223.233L132.969 223.424L131.492 231.025L130.51 230.835ZM127.07 232.984C128.623 233.401 130.203 232.413 130.51 230.835L131.492 231.025C131.074 233.173 128.924 234.517 126.811 233.95L127.07 232.984ZM125.165 229.402C124.641 230.923 125.516 232.568 127.07 232.984L126.811 233.95C124.698 233.384 123.507 231.145 124.219 229.077L125.165 229.402ZM127.75 221.895L125.165 229.402L124.219 229.077L126.804 221.57L127.75 221.895ZM127.788 221.769C127.778 221.801 127.768 221.833 127.759 221.866L126.795 221.6C126.808 221.553 126.822 221.507 126.837 221.46L127.788 221.769Z" fill="black" fill-opacity="0.68" mask="url(#path-3-inside-2_38_148)"/>
<mask id="path-5-inside-3_38_148" fill="white">
<path fill-rule="evenodd" clip-rule="evenodd" d="M167.034 228.837L184.406 175.232L172.281 230.261C172.259 230.36 172.232 230.457 172.2 230.551L170.723 238.152C170.361 240.015 168.495 241.181 166.662 240.69C164.829 240.198 163.796 238.256 164.414 236.462L166.999 228.955C167.01 228.915 167.022 228.876 167.034 228.837Z"/>
</mask>
<path fill-rule="evenodd" clip-rule="evenodd" d="M167.034 228.837L184.406 175.232L172.281 230.261C172.259 230.36 172.232 230.457 172.2 230.551L170.723 238.152C170.361 240.015 168.495 241.181 166.662 240.69C164.829 240.198 163.796 238.256 164.414 236.462L166.999 228.955C167.01 228.915 167.022 228.876 167.034 228.837Z" fill="#00A3FF"/>
<path d="M184.406 175.232L183.93 175.078L184.894 175.339L184.406 175.232ZM167.034 228.837L166.559 228.683L166.559 228.683L167.034 228.837ZM172.281 230.261L172.769 230.369L172.769 230.369L172.281 230.261ZM172.2 230.551L171.71 230.456L171.716 230.423L171.727 230.391L172.2 230.551ZM170.723 238.152L171.214 238.248L171.214 238.248L170.723 238.152ZM164.414 236.462L163.941 236.299L163.941 236.299L164.414 236.462ZM166.999 228.955L167.481 229.088L167.477 229.103L167.472 229.118L166.999 228.955ZM184.882 175.386L167.51 228.991L166.559 228.683L183.93 175.078L184.882 175.386ZM171.793 230.154L183.918 175.124L184.894 175.339L172.769 230.369L171.793 230.154ZM171.727 230.391C171.753 230.314 171.775 230.235 171.793 230.154L172.769 230.369C172.743 230.486 172.712 230.6 172.674 230.711L171.727 230.391ZM170.232 238.057L171.71 230.456L172.691 230.646L171.214 238.248L170.232 238.057ZM166.792 240.207C168.345 240.623 169.925 239.635 170.232 238.057L171.214 238.248C170.796 240.395 168.646 241.739 166.533 241.173L166.792 240.207ZM164.887 236.625C164.363 238.145 165.238 239.79 166.792 240.207L166.533 241.173C164.42 240.606 163.229 238.368 163.941 236.299L164.887 236.625ZM167.472 229.118L164.887 236.625L163.941 236.299L166.526 228.792L167.472 229.118ZM167.51 228.991C167.5 229.023 167.49 229.055 167.481 229.088L166.517 228.822C166.53 228.775 166.544 228.729 166.559 228.683L167.51 228.991Z" fill="black" fill-opacity="0.68" mask="url(#path-5-inside-3_38_148)"/>
<mask id="path-7-inside-4_38_148" fill="white">
<path fill-rule="evenodd" clip-rule="evenodd" d="M213.979 221.615L231.351 168.01L219.225 223.039C219.204 223.138 219.177 223.235 219.145 223.329L217.667 230.93C217.305 232.793 215.44 233.959 213.607 233.467C211.773 232.976 210.741 231.034 211.359 229.24L213.944 221.733C213.955 221.693 213.966 221.654 213.979 221.615Z"/>
</mask>
<path fill-rule="evenodd" clip-rule="evenodd" d="M213.979 221.615L231.351 168.01L219.225 223.039C219.204 223.138 219.177 223.235 219.145 223.329L217.667 230.93C217.305 232.793 215.44 233.959 213.607 233.467C211.773 232.976 210.741 231.034 211.359 229.24L213.944 221.733C213.955 221.693 213.966 221.654 213.979 221.615Z" fill="#00A3FF"/>
<path d="M231.351 168.01L230.875 167.855L231.839 168.117L231.351 168.01ZM213.979 221.615L214.455 221.769L214.455 221.769L213.979 221.615ZM219.225 223.039L219.714 223.147L219.714 223.147L219.225 223.039ZM219.145 223.329L218.654 223.233L218.661 223.2L218.671 223.169L219.145 223.329ZM217.667 230.93L217.177 230.835L217.177 230.835L217.667 230.93ZM211.359 229.24L210.886 229.077L210.886 229.077L211.359 229.24ZM213.944 221.733L214.426 221.866L214.421 221.881L214.416 221.895L213.944 221.733ZM231.826 168.164L214.455 221.769L213.503 221.46L230.875 167.855L231.826 168.164ZM218.737 222.931L230.862 167.902L231.839 168.117L219.714 223.147L218.737 222.931ZM218.671 223.169C218.697 223.092 218.719 223.013 218.737 222.931L219.714 223.147C219.688 223.264 219.656 223.378 219.619 223.489L218.671 223.169ZM217.177 230.835L218.654 223.233L219.636 223.424L218.158 231.025L217.177 230.835ZM213.736 232.984C215.289 233.401 216.87 232.413 217.177 230.835L218.158 231.025C217.741 233.173 215.591 234.517 213.477 233.95L213.736 232.984ZM211.831 229.402C211.308 230.923 212.183 232.568 213.736 232.984L213.477 233.95C211.364 233.384 210.174 231.145 210.886 229.077L211.831 229.402ZM214.416 221.895L211.831 229.402L210.886 229.077L213.471 221.57L214.416 221.895ZM214.455 221.769C214.444 221.801 214.435 221.833 214.426 221.866L213.462 221.6C213.474 221.553 213.488 221.507 213.503 221.46L214.455 221.769Z" fill="black" fill-opacity="0.68" mask="url(#path-7-inside-4_38_148)"/>
<mask id="path-9-inside-5_38_148" fill="white">
<path fill-rule="evenodd" clip-rule="evenodd" d="M250.09 232.448L267.462 178.843L255.336 233.872C255.315 233.972 255.288 234.068 255.256 234.162L253.778 241.763C253.416 243.626 251.551 244.792 249.718 244.301C247.884 243.81 246.852 241.867 247.47 240.073L250.055 232.566C250.065 232.527 250.077 232.487 250.09 232.448Z"/>
</mask>
<path fill-rule="evenodd" clip-rule="evenodd" d="M250.09 232.448L267.462 178.843L255.336 233.872C255.315 233.972 255.288 234.068 255.256 234.162L253.778 241.763C253.416 243.626 251.551 244.792 249.718 244.301C247.884 243.81 246.852 241.867 247.47 240.073L250.055 232.566C250.065 232.527 250.077 232.487 250.09 232.448Z" fill="#00A3FF"/>
<path d="M267.462 178.843L266.986 178.689L267.95 178.951L267.462 178.843ZM250.09 232.448L249.614 232.294L249.614 232.294L250.09 232.448ZM255.336 233.872L254.848 233.765L254.848 233.765L255.336 233.872ZM255.256 234.162L254.765 234.067L254.771 234.034L254.782 234.002L255.256 234.162ZM253.778 241.763L254.269 241.859L254.269 241.859L253.778 241.763ZM247.47 240.073L246.997 239.91L246.997 239.91L247.47 240.073ZM250.055 232.566L250.537 232.699L250.532 232.714L250.527 232.729L250.055 232.566ZM267.937 178.997L250.566 232.602L249.614 232.294L266.986 178.689L267.937 178.997ZM254.848 233.765L266.973 178.735L267.95 178.951L255.825 233.98L254.848 233.765ZM254.782 234.002C254.808 233.925 254.83 233.846 254.848 233.765L255.825 233.98C255.799 234.097 255.767 234.211 255.73 234.322L254.782 234.002ZM253.288 241.668L254.765 234.067L255.747 234.258L254.269 241.859L253.288 241.668ZM249.847 243.818C251.4 244.234 252.981 243.246 253.288 241.668L254.269 241.859C253.852 244.006 251.702 245.35 249.588 244.784L249.847 243.818ZM247.942 240.236C247.419 241.756 248.294 243.402 249.847 243.818L249.588 244.784C247.475 244.218 246.285 241.979 246.997 239.91L247.942 240.236ZM250.527 232.729L247.942 240.236L246.997 239.91L249.582 232.403L250.527 232.729ZM250.566 232.602C250.555 232.634 250.546 232.667 250.537 232.699L249.573 232.433C249.585 232.387 249.599 232.34 249.614 232.294L250.566 232.602Z" fill="black" fill-opacity="0.68" mask="url(#path-9-inside-5_38_148)"/>
<mask id="path-11-inside-6_38_148" fill="white">
<path fill-rule="evenodd" clip-rule="evenodd" d="M55.0901 214.392L72.4617 160.787L60.3366 215.817C60.3147 215.916 60.2878 216.013 60.256 216.107L58.7786 223.708C58.4165 225.571 56.551 226.736 54.7178 226.245C52.8846 225.754 51.8519 223.812 52.4698 222.017L55.0547 214.511C55.0656 214.471 55.0774 214.432 55.0901 214.392Z"/>
</mask>
<path fill-rule="evenodd" clip-rule="evenodd" d="M55.0901 214.392L72.4617 160.787L60.3366 215.817C60.3147 215.916 60.2878 216.013 60.256 216.107L58.7786 223.708C58.4165 225.571 56.551 226.736 54.7178 226.245C52.8846 225.754 51.8519 223.812 52.4698 222.017L55.0547 214.511C55.0656 214.471 55.0774 214.432 55.0901 214.392Z" fill="#00A3FF"/>
<path d="M72.4617 160.787L71.986 160.633L72.95 160.895L72.4617 160.787ZM55.0901 214.392L54.6145 214.238L54.6145 214.238L55.0901 214.392ZM60.3366 215.817L59.8483 215.709L59.8483 215.709L60.3366 215.817ZM60.256 216.107L59.7652 216.011L59.7716 215.978L59.7823 215.946L60.256 216.107ZM58.7786 223.708L59.2694 223.803L59.2694 223.803L58.7786 223.708ZM52.4698 222.017L51.9971 221.855L51.9971 221.855L52.4698 222.017ZM55.0547 214.511L55.5367 214.643L55.5326 214.658L55.5275 214.673L55.0547 214.511ZM72.9373 160.942L55.5658 214.546L54.6145 214.238L71.986 160.633L72.9373 160.942ZM59.8483 215.709L71.9734 160.68L72.95 160.895L60.8249 215.924L59.8483 215.709ZM59.7823 215.946C59.8083 215.87 59.8304 215.791 59.8483 215.709L60.8249 215.924C60.7991 216.041 60.7672 216.156 60.7297 216.267L59.7823 215.946ZM58.2878 223.612L59.7652 216.011L60.7468 216.202L59.2694 223.803L58.2878 223.612ZM54.8472 225.762C56.4004 226.178 57.9809 225.191 58.2878 223.612L59.2694 223.803C58.852 225.951 56.7016 227.294 54.5884 226.728L54.8472 225.762ZM52.9426 222.18C52.419 223.701 53.294 225.346 54.8472 225.762L54.5884 226.728C52.4752 226.162 51.2848 223.923 51.9971 221.855L52.9426 222.18ZM55.5275 214.673L52.9426 222.18L51.9971 221.855L54.5819 214.348L55.5275 214.673ZM55.5658 214.546C55.5553 214.579 55.5456 214.611 55.5367 214.643L54.5727 214.378C54.5855 214.331 54.5994 214.285 54.6145 214.238L55.5658 214.546Z" fill="black" fill-opacity="0.68" mask="url(#path-11-inside-6_38_148)"/>
<mask id="path-13-inside-7_38_148" fill="white">
<path fill-rule="evenodd" clip-rule="evenodd" d="M224.812 246.892L242.184 193.287L230.059 248.317C230.037 248.416 230.01 248.513 229.978 248.607L228.501 256.208C228.139 258.071 226.273 259.236 224.44 258.745C222.607 258.254 221.574 256.312 222.192 254.517L224.777 247.011C224.788 246.971 224.8 246.932 224.812 246.892Z"/>
</mask>
<path fill-rule="evenodd" clip-rule="evenodd" d="M224.812 246.892L242.184 193.287L230.059 248.317C230.037 248.416 230.01 248.513 229.978 248.607L228.501 256.208C228.139 258.071 226.273 259.236 224.44 258.745C222.607 258.254 221.574 256.312 222.192 254.517L224.777 247.011C224.788 246.971 224.8 246.932 224.812 246.892Z" fill="#00A3FF"/>
<path d="M242.184 193.287L241.708 193.133L242.672 193.395L242.184 193.287ZM224.812 246.892L224.337 246.738L224.337 246.738L224.812 246.892ZM230.059 248.317L229.571 248.209L229.571 248.209L230.059 248.317ZM229.978 248.607L229.487 248.511L229.494 248.478L229.505 248.446L229.978 248.607ZM228.501 256.208L228.992 256.303L228.992 256.303L228.501 256.208ZM222.192 254.517L221.719 254.355L221.719 254.355L222.192 254.517ZM224.777 247.011L225.259 247.143L225.255 247.158L225.25 247.173L224.777 247.011ZM242.66 193.442L225.288 247.046L224.337 246.738L241.708 193.133L242.66 193.442ZM229.571 248.209L241.696 193.18L242.672 193.395L230.547 248.424L229.571 248.209ZM229.505 248.446C229.531 248.37 229.553 248.291 229.571 248.209L230.547 248.424C230.521 248.541 230.49 248.656 230.452 248.767L229.505 248.446ZM228.01 256.112L229.487 248.511L230.469 248.702L228.992 256.303L228.01 256.112ZM224.57 258.262C226.123 258.678 227.703 257.691 228.01 256.112L228.992 256.303C228.574 258.451 226.424 259.794 224.311 259.228L224.57 258.262ZM222.665 254.68C222.141 256.201 223.016 257.846 224.57 258.262L224.311 259.228C222.197 258.662 221.007 256.423 221.719 254.355L222.665 254.68ZM225.25 247.173L222.665 254.68L221.719 254.355L224.304 246.848L225.25 247.173ZM225.288 247.046C225.278 247.079 225.268 247.111 225.259 247.143L224.295 246.878C224.308 246.831 224.322 246.785 224.337 246.738L225.288 247.046Z" fill="black" fill-opacity="0.68" mask="url(#path-13-inside-7_38_148)"/>
<mask id="path-15-inside-8_38_148" fill="white">
<path fill-rule="evenodd" clip-rule="evenodd" d="M188.701 239.67L206.073 186.065L193.948 241.095C193.926 241.194 193.899 241.29 193.867 241.384L192.39 248.985C192.028 250.849 190.162 252.014 188.329 251.523C186.496 251.032 185.463 249.09 186.081 247.295L188.666 239.788C188.677 239.749 188.688 239.709 188.701 239.67Z"/>
</mask>
<path fill-rule="evenodd" clip-rule="evenodd" d="M188.701 239.67L206.073 186.065L193.948 241.095C193.926 241.194 193.899 241.29 193.867 241.384L192.39 248.985C192.028 250.849 190.162 252.014 188.329 251.523C186.496 251.032 185.463 249.09 186.081 247.295L188.666 239.788C188.677 239.749 188.688 239.709 188.701 239.67Z" fill="#00A3FF"/>
<path d="M206.073 186.065L205.597 185.911L206.561 186.173L206.073 186.065ZM188.701 239.67L189.177 239.824L189.177 239.824L188.701 239.67ZM193.948 241.095L194.436 241.202L194.436 241.202L193.948 241.095ZM193.867 241.384L193.376 241.289L193.383 241.256L193.393 241.224L193.867 241.384ZM192.39 248.985L192.88 249.081L192.88 249.081L192.39 248.985ZM186.081 247.295L185.608 247.132L185.608 247.132L186.081 247.295ZM188.666 239.788L189.148 239.921L189.144 239.936L189.139 239.951L188.666 239.788ZM206.548 186.219L189.177 239.824L188.226 239.516L205.597 185.911L206.548 186.219ZM193.459 240.987L205.584 185.958L206.561 186.173L194.436 241.202L193.459 240.987ZM193.393 241.224C193.419 241.147 193.441 241.068 193.459 240.987L194.436 241.202C194.41 241.319 194.378 241.433 194.341 241.544L193.393 241.224ZM191.899 248.89L193.376 241.289L194.358 241.48L192.88 249.081L191.899 248.89ZM188.458 251.04C190.012 251.456 191.592 250.469 191.899 248.89L192.88 249.081C192.463 251.228 190.313 252.572 188.199 252.006L188.458 251.04ZM186.554 247.458C186.03 248.978 186.905 250.624 188.458 251.04L188.199 252.006C186.086 251.44 184.896 249.201 185.608 247.132L186.554 247.458ZM189.139 239.951L186.554 247.458L185.608 247.132L188.193 239.625L189.139 239.951ZM189.177 239.824C189.166 239.856 189.157 239.889 189.148 239.921L188.184 239.655C188.197 239.609 188.211 239.562 188.226 239.516L189.177 239.824Z" fill="black" fill-opacity="0.68" mask="url(#path-15-inside-8_38_148)"/>
<mask id="path-17-inside-9_38_148" fill="white">
<path fill-rule="evenodd" clip-rule="evenodd" d="M141.757 243.281L159.128 189.676L147.003 244.706C146.981 244.805 146.954 244.901 146.923 244.995L145.445 252.597C145.083 254.46 143.218 255.625 141.384 255.134C139.551 254.643 138.518 252.701 139.136 250.906L141.721 243.4C141.732 243.36 141.744 243.321 141.757 243.281Z"/>
</mask>
<path fill-rule="evenodd" clip-rule="evenodd" d="M141.757 243.281L159.128 189.676L147.003 244.706C146.981 244.805 146.954 244.901 146.923 244.995L145.445 252.597C145.083 254.46 143.218 255.625 141.384 255.134C139.551 254.643 138.518 252.701 139.136 250.906L141.721 243.4C141.732 243.36 141.744 243.321 141.757 243.281Z" fill="#00A3FF"/>
<path d="M159.128 189.676L158.653 189.522L159.616 189.784L159.128 189.676ZM141.757 243.281L142.232 243.435L142.232 243.435L141.757 243.281ZM147.003 244.706L146.515 244.598L146.515 244.598L147.003 244.706ZM146.923 244.995L146.432 244.9L146.438 244.867L146.449 244.835L146.923 244.995ZM145.445 252.597L145.936 252.692L145.936 252.692L145.445 252.597ZM139.136 250.906L138.664 250.743L138.664 250.743L139.136 250.906ZM141.721 243.4L142.203 243.532L142.199 243.548L142.194 243.562L141.721 243.4ZM159.604 189.83L142.232 243.435L141.281 243.127L158.653 189.522L159.604 189.83ZM146.515 244.598L158.64 189.569L159.616 189.784L147.491 244.813L146.515 244.598ZM146.449 244.835C146.475 244.759 146.497 244.679 146.515 244.598L147.491 244.813C147.466 244.93 147.434 245.044 147.396 245.156L146.449 244.835ZM144.954 252.501L146.432 244.9L147.413 245.091L145.936 252.692L144.954 252.501ZM141.514 254.651C143.067 255.067 144.647 254.08 144.954 252.501L145.936 252.692C145.518 254.84 143.368 256.183 141.255 255.617L141.514 254.651ZM139.609 251.069C139.086 252.589 139.96 254.235 141.514 254.651L141.255 255.617C139.142 255.051 137.951 252.812 138.664 250.743L139.609 251.069ZM142.194 243.562L139.609 251.069L138.664 250.743L141.248 243.237L142.194 243.562ZM142.232 243.435C142.222 243.468 142.212 243.5 142.203 243.532L141.239 243.267C141.252 243.22 141.266 243.174 141.281 243.127L142.232 243.435Z" fill="black" fill-opacity="0.68" mask="url(#path-17-inside-9_38_148)"/>
<mask id="path-19-inside-10_38_148" fill="white">
<path fill-rule="evenodd" clip-rule="evenodd" d="M98.4234 246.892L115.795 193.287L103.67 248.317C103.648 248.416 103.621 248.513 103.589 248.607L102.112 256.208C101.75 258.071 99.8843 259.236 98.0511 258.745C96.2178 258.254 95.1852 256.312 95.8031 254.517L98.388 247.01C98.3988 246.971 98.4106 246.932 98.4234 246.892Z"/>
</mask>
<path fill-rule="evenodd" clip-rule="evenodd" d="M98.4234 246.892L115.795 193.287L103.67 248.317C103.648 248.416 103.621 248.513 103.589 248.607L102.112 256.208C101.75 258.071 99.8843 259.236 98.0511 258.745C96.2178 258.254 95.1852 256.312 95.8031 254.517L98.388 247.01C98.3988 246.971 98.4106 246.932 98.4234 246.892Z" fill="#00A3FF"/>
<path d="M115.795 193.287L115.319 193.133L116.283 193.395L115.795 193.287ZM98.4234 246.892L98.899 247.046L98.899 247.046L98.4234 246.892ZM103.67 248.317L104.158 248.424L104.158 248.424L103.67 248.317ZM103.589 248.607L103.098 248.511L103.105 248.478L103.116 248.446L103.589 248.607ZM102.112 256.208L101.621 256.112L101.621 256.112L102.112 256.208ZM95.8031 254.517L95.3303 254.355L95.3303 254.355L95.8031 254.517ZM98.388 247.01L98.87 247.143L98.8658 247.158L98.8607 247.173L98.388 247.01ZM116.271 193.442L98.899 247.046L97.9477 246.738L115.319 193.133L116.271 193.442ZM103.182 248.209L115.307 193.18L116.283 193.395L104.158 248.424L103.182 248.209ZM103.116 248.446C103.142 248.37 103.164 248.291 103.182 248.209L104.158 248.424C104.132 248.541 104.1 248.656 104.063 248.767L103.116 248.446ZM101.621 256.112L103.098 248.511L104.08 248.702L102.603 256.303L101.621 256.112ZM98.1805 258.262C99.7337 258.678 101.314 257.691 101.621 256.112L102.603 256.303C102.185 258.451 100.035 259.794 97.9216 259.228L98.1805 258.262ZM96.2758 254.68C95.7523 256.201 96.6272 257.846 98.1805 258.262L97.9216 259.228C95.8084 258.662 94.618 256.423 95.3303 254.355L96.2758 254.68ZM98.8607 247.173L96.2758 254.68L95.3303 254.355L97.9152 246.848L98.8607 247.173ZM98.899 247.046C98.8886 247.079 98.8789 247.111 98.87 247.143L97.9059 246.878C97.9188 246.831 97.9327 246.785 97.9477 246.738L98.899 247.046Z" fill="black" fill-opacity="0.68" mask="url(#path-19-inside-10_38_148)"/>
<mask id="path-21-inside-11_38_148" fill="white">
<path fill-rule="evenodd" clip-rule="evenodd" d="M201.236 258.301C202.076 255.99 205.537 256.938 205.081 259.354L203.637 267.017C203.565 267.397 203.415 267.742 203.207 268.039C202.815 268.598 202.648 269.458 202.835 270.115C202.952 270.526 202.986 270.986 202.913 271.49C202.643 273.339 200.821 274.539 199.016 274.055C197.211 273.572 196.232 271.621 196.923 269.885C197.115 269.404 197.38 269.018 197.693 268.719C198.187 268.247 198.478 267.42 198.423 266.739C198.394 266.375 198.44 265.998 198.574 265.63L201.236 258.301Z"/>
</mask>
<path fill-rule="evenodd" clip-rule="evenodd" d="M201.236 258.301C202.076 255.99 205.537 256.938 205.081 259.354L203.637 267.017C203.565 267.397 203.415 267.742 203.207 268.039C202.815 268.598 202.648 269.458 202.835 270.115C202.952 270.526 202.986 270.986 202.913 271.49C202.643 273.339 200.821 274.539 199.016 274.055C197.211 273.572 196.232 271.621 196.923 269.885C197.115 269.404 197.38 269.018 197.693 268.719C198.187 268.247 198.478 267.42 198.423 266.739C198.394 266.375 198.44 265.998 198.574 265.63L201.236 258.301Z" fill="#00A3FF"/>
<path d="M205.081 259.354L205.573 259.447L205.081 259.354ZM201.236 258.301L200.766 258.13L200.766 258.13L201.236 258.301ZM203.637 267.017L203.145 266.924L203.145 266.924L203.637 267.017ZM202.913 271.49L203.408 271.562L203.408 271.562L202.913 271.49ZM196.923 269.885L197.388 270.07L197.388 270.07L196.923 269.885ZM198.574 265.63L199.044 265.8L198.574 265.63ZM197.693 268.719L198.039 269.08L197.693 268.719ZM198.423 266.739L197.925 266.779L198.423 266.739ZM203.207 268.039L203.617 268.326L203.207 268.039ZM204.59 259.261C204.932 257.449 202.336 256.738 201.706 258.471L200.766 258.13C201.815 255.241 206.142 256.426 205.573 259.447L204.59 259.261ZM203.145 266.924L204.59 259.261L205.573 259.447L204.128 267.109L203.145 266.924ZM202.798 267.752C202.966 267.513 203.087 267.234 203.145 266.924L204.128 267.109C204.043 267.561 203.865 267.972 203.617 268.326L202.798 267.752ZM202.418 271.418C202.482 270.98 202.451 270.591 202.354 270.252L203.316 269.978C203.453 270.46 203.491 270.992 203.408 271.562L202.418 271.418ZM199.145 273.572C200.661 273.979 202.192 272.971 202.418 271.418L203.408 271.562C203.095 273.707 200.98 275.099 198.886 274.538L199.145 273.572ZM197.388 270.07C196.807 271.528 197.629 273.166 199.145 273.572L198.886 274.538C196.792 273.977 195.657 271.714 196.459 269.7L197.388 270.07ZM198.039 269.08C197.78 269.327 197.554 269.653 197.388 270.07L196.459 269.7C196.675 269.156 196.98 268.709 197.348 268.357L198.039 269.08ZM199.044 265.8C198.935 266.1 198.898 266.405 198.921 266.699L197.925 266.779C197.89 266.345 197.945 265.896 198.104 265.459L199.044 265.8ZM201.706 258.471L199.044 265.8L198.104 265.459L200.766 258.13L201.706 258.471ZM197.348 268.357C197.725 267.997 197.968 267.322 197.925 266.779L198.921 266.699C198.988 267.519 198.65 268.497 198.039 269.08L197.348 268.357ZM203.617 268.326C203.305 268.771 203.173 269.476 203.316 269.978L202.354 270.252C202.123 269.44 202.326 268.426 202.798 267.752L203.617 268.326Z" fill="black" fill-opacity="0.68" mask="url(#path-21-inside-11_38_148)"/>
<mask id="path-23-inside-12_38_148" fill="white">
<path fill-rule="evenodd" clip-rule="evenodd" d="M161.514 261.912C162.353 259.601 165.815 260.549 165.359 262.965L163.915 270.628C163.843 271.008 163.693 271.353 163.485 271.65C163.093 272.21 162.926 273.069 163.113 273.726C163.23 274.137 163.264 274.597 163.191 275.101C162.921 276.95 161.099 278.15 159.294 277.666C157.489 277.183 156.51 275.232 157.201 273.496C157.393 273.016 157.658 272.629 157.971 272.33C158.465 271.858 158.756 271.031 158.701 270.35C158.672 269.986 158.718 269.609 158.852 269.241L161.514 261.912Z"/>
</mask>
<path fill-rule="evenodd" clip-rule="evenodd" d="M161.514 261.912C162.353 259.601 165.815 260.549 165.359 262.965L163.915 270.628C163.843 271.008 163.693 271.353 163.485 271.65C163.093 272.21 162.926 273.069 163.113 273.726C163.23 274.137 163.264 274.597 163.191 275.101C162.921 276.95 161.099 278.15 159.294 277.666C157.489 277.183 156.51 275.232 157.201 273.496C157.393 273.016 157.658 272.629 157.971 272.33C158.465 271.858 158.756 271.031 158.701 270.35C158.672 269.986 158.718 269.609 158.852 269.241L161.514 261.912Z" fill="#00A3FF"/>
<path d="M165.359 262.965L165.851 263.058L165.359 262.965ZM161.514 261.912L161.044 261.741L161.044 261.741L161.514 261.912ZM163.915 270.628L163.423 270.535L163.915 270.628ZM163.191 275.101L163.686 275.173L163.686 275.173L163.191 275.101ZM157.201 273.496L157.666 273.681L157.201 273.496ZM158.852 269.241L158.382 269.07L158.382 269.07L158.852 269.241ZM157.971 272.33L158.317 272.691L157.971 272.33ZM163.113 273.726L163.594 273.589L163.113 273.726ZM164.868 262.873C165.209 261.06 162.614 260.349 161.984 262.082L161.044 261.741C162.093 258.852 166.42 260.037 165.851 263.058L164.868 262.873ZM163.423 270.535L164.868 262.873L165.851 263.058L164.406 270.72L163.423 270.535ZM163.076 271.363C163.244 271.124 163.365 270.845 163.423 270.535L164.406 270.72C164.321 271.172 164.143 271.583 163.895 271.937L163.076 271.363ZM162.696 275.029C162.76 274.592 162.729 274.202 162.632 273.863L163.594 273.589C163.731 274.071 163.769 274.603 163.686 275.173L162.696 275.029ZM159.423 277.183C160.939 277.59 162.47 276.582 162.696 275.029L163.686 275.173C163.373 277.319 161.258 278.711 159.164 278.149L159.423 277.183ZM157.666 273.681C157.085 275.139 157.907 276.777 159.423 277.183L159.164 278.149C157.07 277.588 155.935 275.326 156.737 273.311L157.666 273.681ZM158.317 272.691C158.058 272.938 157.832 273.264 157.666 273.681L156.737 273.311C156.953 272.768 157.258 272.32 157.626 271.968L158.317 272.691ZM159.322 269.412C159.213 269.711 159.176 270.016 159.199 270.31L158.203 270.39C158.168 269.956 158.223 269.507 158.382 269.07L159.322 269.412ZM161.984 262.082L159.322 269.412L158.382 269.07L161.044 261.741L161.984 262.082ZM157.626 271.968C158.003 271.608 158.246 270.933 158.203 270.39L159.199 270.31C159.266 271.13 158.928 272.108 158.317 272.691L157.626 271.968ZM163.895 271.937C163.583 272.382 163.451 273.088 163.594 273.589L162.632 273.863C162.401 273.051 162.604 272.037 163.076 271.363L163.895 271.937Z" fill="black" fill-opacity="0.68" mask="url(#path-23-inside-12_38_148)"/>
<mask id="path-25-inside-13_38_148" fill="white">
<path fill-rule="evenodd" clip-rule="evenodd" d="M121.792 254.69C122.631 252.379 126.093 253.327 125.637 255.743L124.193 263.406C124.121 263.786 123.971 264.131 123.763 264.428C123.371 264.987 123.204 265.847 123.391 266.504C123.508 266.915 123.542 267.375 123.469 267.879C123.199 269.728 121.377 270.928 119.571 270.444C117.766 269.961 116.788 268.01 117.479 266.274C117.67 265.793 117.936 265.407 118.249 265.108C118.743 264.636 119.034 263.809 118.979 263.128C118.949 262.764 118.996 262.387 119.13 262.019L121.792 254.69Z"/>
</mask>
<path fill-rule="evenodd" clip-rule="evenodd" d="M121.792 254.69C122.631 252.379 126.093 253.327 125.637 255.743L124.193 263.406C124.121 263.786 123.971 264.131 123.763 264.428C123.371 264.987 123.204 265.847 123.391 266.504C123.508 266.915 123.542 267.375 123.469 267.879C123.199 269.728 121.377 270.928 119.571 270.444C117.766 269.961 116.788 268.01 117.479 266.274C117.67 265.793 117.936 265.407 118.249 265.108C118.743 264.636 119.034 263.809 118.979 263.128C118.949 262.764 118.996 262.387 119.13 262.019L121.792 254.69Z" fill="#00A3FF"/>
<path d="M125.637 255.743L126.128 255.836L125.637 255.743ZM121.792 254.69L121.322 254.519L121.322 254.519L121.792 254.69ZM124.193 263.406L123.701 263.313L123.701 263.313L124.193 263.406ZM123.469 267.879L123.963 267.951L123.963 267.951L123.469 267.879ZM117.479 266.274L117.015 266.089L117.015 266.089L117.479 266.274ZM119.13 262.019L119.6 262.189L119.13 262.019ZM118.249 265.108L118.594 265.469L118.249 265.108ZM118.979 263.128L119.477 263.088L118.979 263.128ZM123.391 266.504L123.872 266.367L123.391 266.504ZM125.146 255.65C125.487 253.838 122.891 253.127 122.262 254.86L121.322 254.519C122.371 251.63 126.698 252.815 126.128 255.836L125.146 255.65ZM123.701 263.313L125.146 255.65L126.128 255.836L124.684 263.498L123.701 263.313ZM123.354 264.141C123.521 263.902 123.643 263.623 123.701 263.313L124.684 263.498C124.599 263.95 124.42 264.361 124.173 264.715L123.354 264.141ZM122.974 267.807C123.038 267.369 123.007 266.98 122.91 266.641L123.872 266.367C124.009 266.849 124.046 267.381 123.963 267.951L122.974 267.807ZM119.701 269.961C121.217 270.367 122.748 269.36 122.974 267.807L123.963 267.951C123.651 270.096 121.536 271.488 119.442 270.927L119.701 269.961ZM117.944 266.459C117.363 267.917 118.185 269.555 119.701 269.961L119.442 270.927C117.348 270.366 116.213 268.103 117.015 266.089L117.944 266.459ZM118.594 265.469C118.336 265.716 118.11 266.042 117.944 266.459L117.015 266.089C117.231 265.545 117.536 265.098 117.904 264.746L118.594 265.469ZM119.6 262.189C119.491 262.489 119.453 262.794 119.477 263.088L118.48 263.168C118.445 262.734 118.501 262.285 118.66 261.848L119.6 262.189ZM122.262 254.86L119.6 262.189L118.66 261.848L121.322 254.519L122.262 254.86ZM117.904 264.746C118.281 264.386 118.524 263.711 118.48 263.168L119.477 263.088C119.543 263.908 119.205 264.886 118.594 265.469L117.904 264.746ZM124.173 264.715C123.861 265.16 123.729 265.865 123.872 266.367L122.91 266.641C122.678 265.829 122.882 264.815 123.354 264.141L124.173 264.715Z" fill="black" fill-opacity="0.68" mask="url(#path-25-inside-13_38_148)"/>
<mask id="path-27-inside-14_38_148" fill="white">
<path fill-rule="evenodd" clip-rule="evenodd" d="M139.847 279.967C140.687 277.656 144.148 278.604 143.693 281.021L142.248 288.683C142.176 289.064 142.027 289.409 141.819 289.706C141.427 290.265 141.259 291.125 141.447 291.782C141.564 292.192 141.598 292.653 141.524 293.157C141.255 295.006 139.432 296.206 137.627 295.722C135.822 295.238 134.844 293.288 135.535 291.552C135.726 291.071 135.991 290.685 136.305 290.385C136.799 289.913 137.089 289.087 137.035 288.406C137.005 288.041 137.052 287.664 137.185 287.296L139.847 279.967Z"/>
</mask>
<path fill-rule="evenodd" clip-rule="evenodd" d="M139.847 279.967C140.687 277.656 144.148 278.604 143.693 281.021L142.248 288.683C142.176 289.064 142.027 289.409 141.819 289.706C141.427 290.265 141.259 291.125 141.447 291.782C141.564 292.192 141.598 292.653 141.524 293.157C141.255 295.006 139.432 296.206 137.627 295.722C135.822 295.238 134.844 293.288 135.535 291.552C135.726 291.071 135.991 290.685 136.305 290.385C136.799 289.913 137.089 289.087 137.035 288.406C137.005 288.041 137.052 287.664 137.185 287.296L139.847 279.967Z" fill="#00A3FF"/>
<path d="M143.693 281.021L144.184 281.113L143.693 281.021ZM139.847 279.967L140.317 280.138L140.317 280.138L139.847 279.967ZM142.248 288.683L141.757 288.591L141.757 288.591L142.248 288.683ZM141.524 293.157L142.019 293.229L142.019 293.229L141.524 293.157ZM135.535 291.552L135.999 291.737L135.999 291.737L135.535 291.552ZM137.185 287.296L137.655 287.467L137.185 287.296ZM143.201 280.928C143.543 279.116 140.947 278.405 140.317 280.138L139.378 279.797C140.427 276.908 144.753 278.093 144.184 281.113L143.201 280.928ZM141.757 288.591L143.201 280.928L144.184 281.113L142.74 288.776L141.757 288.591ZM141.409 289.419C141.577 289.179 141.698 288.9 141.757 288.591L142.74 288.776C142.654 289.228 142.476 289.639 142.228 289.992L141.409 289.419ZM141.03 293.085C141.093 292.647 141.062 292.258 140.966 291.919L141.927 291.645C142.065 292.127 142.102 292.659 142.019 293.229L141.03 293.085ZM137.757 295.239C139.272 295.645 140.803 294.638 141.03 293.085L142.019 293.229C141.706 295.374 139.592 296.766 137.498 296.205L137.757 295.239ZM135.999 291.737C135.419 293.195 136.241 294.833 137.757 295.239L137.498 296.205C135.404 295.644 134.268 293.381 135.07 291.367L135.999 291.737ZM136.65 290.747C136.391 290.994 136.165 291.319 135.999 291.737L135.07 291.367C135.287 290.823 135.591 290.375 135.959 290.024L136.65 290.747ZM137.655 287.467C137.547 287.766 137.509 288.071 137.533 288.366L136.536 288.446C136.501 288.012 136.557 287.562 136.715 287.126L137.655 287.467ZM140.317 280.138L137.655 287.467L136.715 287.126L139.378 279.797L140.317 280.138ZM135.959 290.024C136.337 289.664 136.58 288.988 136.536 288.446L137.533 288.366C137.599 289.186 137.261 290.163 136.65 290.747L135.959 290.024ZM142.228 289.992C141.916 290.438 141.784 291.143 141.927 291.645L140.966 291.919C140.734 291.106 140.937 290.092 141.409 289.419L142.228 289.992Z" fill="black" fill-opacity="0.68" mask="url(#path-27-inside-14_38_148)"/>
<ellipse cx="82.25" cy="134.611" rx="81.25" ry="75.8333" fill="#FDFCFC"/>
<ellipse cx="165.306" cy="134.611" rx="81.25" ry="75.8333" fill="#FDFCFC"/>
<ellipse cx="244.75" cy="134.611" rx="81.25" ry="75.8333" fill="#FDFCFC"/>
<ellipse cx="132.805" cy="76.8333" rx="81.25" ry="75.8333" fill="#FDFCFC"/>
<ellipse cx="212.25" cy="102.111" rx="81.25" ry="75.8333" fill="#FDFCFC"/>
<mask id="path-34-outside-15_38_148" maskUnits="userSpaceOnUse" x="0" y="0" width="327" height="212" fill="black">
<rect fill="white" width="327" height="212"/>
<path fill-rule="evenodd" clip-rule="evenodd" d="M52.7251 63.9399C59.284 28.1997 92.6414 1 132.805 1C157.746 1 180.062 11.4883 194.967 27.9971C200.536 26.8709 206.319 26.2778 212.25 26.2778C244.355 26.2778 272.111 43.6574 285.307 68.8863C309.63 81.9892 326 106.516 326 134.611C326 176.493 289.623 210.444 244.75 210.444C230.322 210.444 216.772 206.934 205.028 200.78C193.283 206.934 179.734 210.444 165.306 210.444C150.132 210.444 135.93 206.562 123.778 199.805C111.625 206.562 97.4234 210.444 82.25 210.444C37.3769 210.444 1 176.493 1 134.611C1 102.451 22.4497 74.9662 52.7251 63.9399Z"/>
</mask>
<path fill-rule="evenodd" clip-rule="evenodd" d="M52.7251 63.9399C59.284 28.1997 92.6414 1 132.805 1C157.746 1 180.062 11.4883 194.967 27.9971C200.536 26.8709 206.319 26.2778 212.25 26.2778C244.355 26.2778 272.111 43.6574 285.307 68.8863C309.63 81.9892 326 106.516 326 134.611C326 176.493 289.623 210.444 244.75 210.444C230.322 210.444 216.772 206.934 205.028 200.78C193.283 206.934 179.734 210.444 165.306 210.444C150.132 210.444 135.93 206.562 123.778 199.805C111.625 206.562 97.4234 210.444 82.25 210.444C37.3769 210.444 1 176.493 1 134.611C1 102.451 22.4497 74.9662 52.7251 63.9399Z" fill="#FDFCFC"/>
<path d="M52.7251 63.9399L53.0673 64.8795L53.6053 64.6836L53.7086 64.1204L52.7251 63.9399ZM194.967 27.9971L194.224 28.6672L194.606 29.0902L195.165 28.9773L194.967 27.9971ZM285.307 68.8863L284.421 69.3498L284.563 69.6214L284.833 69.7667L285.307 68.8863ZM205.028 200.78L205.492 199.894L205.028 199.651L204.564 199.894L205.028 200.78ZM123.778 199.805L124.264 198.931L123.778 198.66L123.292 198.931L123.778 199.805ZM132.805 0C92.1996 0 58.3947 27.5054 51.7415 63.7594L53.7086 64.1204C60.1732 28.894 93.0832 2 132.805 2V0ZM195.709 27.327C180.614 10.6076 158.028 0 132.805 0V2C157.464 2 179.51 12.3691 194.224 28.6672L195.709 27.327ZM212.25 25.2778C206.252 25.2778 200.403 25.8776 194.768 27.0169L195.165 28.9773C200.669 27.8642 206.386 27.2778 212.25 27.2778V25.2778ZM286.193 68.4229C272.819 42.8536 244.715 25.2778 212.25 25.2778V27.2778C243.995 27.2778 271.403 44.4612 284.421 69.3498L286.193 68.4229ZM284.833 69.7667C308.868 82.7143 325 106.922 325 134.611H327C327 106.109 310.393 81.2641 285.781 68.0059L284.833 69.7667ZM325 134.611C325 175.877 289.137 209.444 244.75 209.444V211.444C290.109 211.444 327 177.109 327 134.611H325ZM244.75 209.444C230.485 209.444 217.095 205.974 205.492 199.894L204.564 201.665C216.45 207.895 230.159 211.444 244.75 211.444V209.444ZM165.306 211.444C179.897 211.444 193.606 207.895 205.492 201.665L204.564 199.894C192.961 205.974 179.57 209.444 165.306 209.444V211.444ZM123.292 200.679C135.592 207.518 149.961 211.444 165.306 211.444V209.444C150.304 209.444 136.269 205.607 124.264 198.931L123.292 200.679ZM82.25 211.444C97.595 211.444 111.964 207.518 124.264 200.679L123.292 198.931C111.287 205.607 97.2517 209.444 82.25 209.444V211.444ZM0 134.611C0 177.109 36.8907 211.444 82.25 211.444V209.444C37.863 209.444 2 175.877 2 134.611H0ZM52.3829 63.0003C21.7591 74.1535 0 101.983 0 134.611H2C2 102.919 23.1402 75.779 53.0673 64.8795L52.3829 63.0003Z" fill="black" mask="url(#path-34-outside-15_38_148)"/>
<path d="M132.805 153.167C177.922 153.167 214.555 119.023 214.555 76.8333C214.555 34.6436 177.922 0.499957 132.805 0.499957C87.6892 0.499957 51.0554 34.6436 51.0554 76.8333C51.0554 119.023 87.6892 153.167 132.805 153.167Z" fill="#FDFCFC" stroke="url(#paint0_linear_38_148)"/>
<path d="M82.25 210.944C127.366 210.944 164 176.801 164 134.611C164 92.4214 127.366 58.2777 82.25 58.2777C37.1338 58.2777 0.5 92.4214 0.5 134.611C0.5 176.801 37.1338 210.944 82.25 210.944Z" fill="#FDFCFC" stroke="url(#paint1_linear_38_148)"/>
<path d="M165.306 210.944C210.422 210.944 247.056 176.801 247.056 134.611C247.056 92.4214 210.422 58.2777 165.306 58.2777C120.189 58.2777 83.5557 92.4214 83.5557 134.611C83.5557 176.801 120.189 210.944 165.306 210.944Z" fill="#FDFCFC" stroke="url(#paint2_linear_38_148)"/>
<ellipse cx="244.75" cy="134.611" rx="81.25" ry="75.8333" fill="#FDFCFC"/>
<path d="M244.75 210.944C289.866 210.944 326.5 176.801 326.5 134.611C326.5 92.4214 289.866 58.2777 244.75 58.2777C199.634 58.2777 163 92.4214 163 134.611C163 176.801 199.634 210.944 244.75 210.944Z" stroke="url(#paint3_linear_38_148)" stroke-opacity="0.88"/>
<defs>
<linearGradient id="paint0_linear_38_148" x1="33.4999" y1="19.0555" x2="233.917" y2="24.4722" gradientUnits="userSpaceOnUse">
<stop/>
<stop offset="1" stop-opacity="0"/>
</linearGradient>
<linearGradient id="paint1_linear_38_148" x1="1" y1="168.917" x2="145.444" y2="165.305" gradientUnits="userSpaceOnUse">
<stop stop-opacity="0.54"/>
<stop offset="0.884367" stop-opacity="0"/>
</linearGradient>
<linearGradient id="paint2_linear_38_148" x1="224.889" y1="210.444" x2="163.5" y2="94.8888" gradientUnits="userSpaceOnUse">
<stop stop-opacity="0.3"/>
<stop offset="1" stop-opacity="0"/>
</linearGradient>
<linearGradient id="paint3_linear_38_148" x1="326" y1="158.083" x2="321.663" y2="169.454" gradientUnits="userSpaceOnUse">
<stop stop-opacity="0.35"/>
<stop offset="1" stop-opacity="0"/>
</linearGradient>
</defs>
</svg>
