<svg width="323" height="299" viewBox="0 0 323 299" fill="none" xmlns="http://www.w3.org/2000/svg">
<ellipse cx="81.25" cy="132.967" rx="80.25" ry="74.9" fill="white"/>
<ellipse cx="163.283" cy="132.967" rx="80.25" ry="74.9" fill="white"/>
<ellipse cx="241.75" cy="132.967" rx="80.25" ry="74.9" fill="white"/>
<ellipse cx="131.183" cy="75.9" rx="80.25" ry="74.9" fill="white"/>
<ellipse cx="209.65" cy="100.867" rx="80.25" ry="74.9" fill="white"/>
<mask id="path-6-outside-1_38_48" maskUnits="userSpaceOnUse" x="0" y="0" width="323" height="209" fill="black">
<rect fill="white" width="323" height="209"/>
<path fill-rule="evenodd" clip-rule="evenodd" d="M52.0886 63.1653C58.5668 27.8649 91.5137 1 131.183 1C155.817 1 177.859 11.3592 192.579 27.6648C198.081 26.5525 203.792 25.9667 209.65 25.9667C241.36 25.9667 268.774 43.1324 281.808 68.0508C305.832 80.9924 322 105.217 322 132.967C322 174.333 286.071 207.867 241.75 207.867C227.5 207.867 214.117 204.4 202.517 198.321C190.917 204.4 177.534 207.867 163.283 207.867C148.297 207.867 134.27 204.033 122.267 197.358C110.264 204.033 96.2366 207.867 81.25 207.867C36.9291 207.867 1 174.333 1 132.967C1 101.202 22.1858 74.0558 52.0886 63.1653Z"/>
</mask>
<path fill-rule="evenodd" clip-rule="evenodd" d="M52.0886 63.1653C58.5668 27.8649 91.5137 1 131.183 1C155.817 1 177.859 11.3592 192.579 27.6648C198.081 26.5525 203.792 25.9667 209.65 25.9667C241.36 25.9667 268.774 43.1324 281.808 68.0508C305.832 80.9924 322 105.217 322 132.967C322 174.333 286.071 207.867 241.75 207.867C227.5 207.867 214.117 204.4 202.517 198.321C190.917 204.4 177.534 207.867 163.283 207.867C148.297 207.867 134.27 204.033 122.267 197.358C110.264 204.033 96.2366 207.867 81.25 207.867C36.9291 207.867 1 174.333 1 132.967C1 101.202 22.1858 74.0558 52.0886 63.1653Z" fill="white"/>
<path d="M52.0886 63.1653L52.4308 64.1049L52.9688 63.9089L53.0722 63.3458L52.0886 63.1653ZM192.579 27.6648L191.837 28.3349L192.219 28.7579L192.778 28.645L192.579 27.6648ZM281.808 68.0508L280.922 68.5143L281.064 68.7858L281.334 68.9312L281.808 68.0508ZM202.517 198.321L202.981 197.435L202.517 197.192L202.053 197.435L202.517 198.321ZM122.267 197.358L122.753 196.484L122.267 196.214L121.781 196.484L122.267 197.358ZM131.183 0C91.0718 0 57.6775 27.1706 51.105 62.9848L53.0722 63.3458C59.4561 28.5592 91.9555 2 131.183 2V0ZM193.322 26.9947C178.411 10.4785 156.099 0 131.183 0V2C155.535 2 177.306 12.24 191.837 28.3349L193.322 26.9947ZM209.65 24.9667C203.725 24.9667 197.947 25.5592 192.381 26.6846L192.778 28.645C198.214 27.5458 203.859 26.9667 209.65 26.9667V24.9667ZM282.694 67.5873C269.483 42.3286 241.72 24.9667 209.65 24.9667V26.9667C241 26.9667 268.066 43.9362 280.922 68.5143L282.694 67.5873ZM281.334 68.9312C305.069 81.7175 321 105.624 321 132.967H323C323 104.811 306.594 80.2673 282.282 67.1704L281.334 68.9312ZM321 132.967C321 173.717 285.585 206.867 241.75 206.867V208.867C286.557 208.867 323 174.949 323 132.967H321ZM241.75 206.867C227.663 206.867 214.439 203.44 202.981 197.435L202.053 199.206C213.794 205.36 227.336 208.867 241.75 208.867V206.867ZM163.283 208.867C177.697 208.867 191.239 205.36 202.981 199.206L202.053 197.435C190.594 203.44 177.371 206.867 163.283 206.867V208.867ZM121.781 198.232C133.931 204.988 148.125 208.867 163.283 208.867V206.867C148.468 206.867 134.608 203.077 122.753 196.484L121.781 198.232ZM81.25 208.867C96.4083 208.867 110.602 204.988 122.753 198.232L121.781 196.484C109.925 203.077 96.0649 206.867 81.25 206.867V208.867ZM0 132.967C0 174.949 36.443 208.867 81.25 208.867V206.867C37.4153 206.867 2 173.717 2 132.967H0ZM51.7464 62.2256C21.4952 73.2431 0 100.734 0 132.967H2C2 101.67 22.8763 74.8686 52.4308 64.1049L51.7464 62.2256Z" fill="black" mask="url(#path-6-outside-1_38_48)"/>
<path d="M131.183 151.3C175.747 151.3 211.933 117.574 211.933 75.9C211.933 34.2258 175.747 0.5 131.183 0.5C86.6194 0.5 50.4333 34.2258 50.4333 75.9C50.4333 117.574 86.6194 151.3 131.183 151.3Z" fill="white" stroke="url(#paint0_linear_38_48)"/>
<path d="M81.25 208.367C125.814 208.367 162 174.641 162 132.967C162 91.2925 125.814 57.5667 81.25 57.5667C36.6861 57.5667 0.5 91.2925 0.5 132.967C0.5 174.641 36.6861 208.367 81.25 208.367Z" fill="white" stroke="url(#paint1_linear_38_48)"/>
<path d="M163.283 208.367C207.847 208.367 244.033 174.641 244.033 132.967C244.033 91.2925 207.847 57.5667 163.283 57.5667C118.719 57.5667 82.5334 91.2925 82.5334 132.967C82.5334 174.641 118.719 208.367 163.283 208.367Z" fill="white" stroke="url(#paint2_linear_38_48)"/>
<ellipse cx="241.75" cy="132.967" rx="80.25" ry="74.9" fill="white"/>
<path d="M241.75 208.367C286.314 208.367 322.5 174.641 322.5 132.967C322.5 91.2925 286.314 57.5667 241.75 57.5667C197.186 57.5667 161 91.2925 161 132.967C161 174.641 197.186 208.367 241.75 208.367Z" stroke="url(#paint3_linear_38_48)" stroke-opacity="0.88"/>
<path d="M43.8 285.406C43.8 280.41 48.5984 276.816 53.3922 278.22L63.4133 281.155C64.2897 281.412 65.1872 281.589 66.0952 281.686L80.303 283.199C87.3434 283.949 94.4435 283.949 101.484 283.199L117.056 281.541L147.871 275.41L167.335 273.298C174.877 272.48 182.488 272.522 190.02 273.425L204.574 275.169C205.918 275.33 207.248 275.588 208.554 275.941L223.946 280.102C227.086 280.951 229.267 283.8 229.267 287.053V287.053C229.267 291.997 224.399 295.47 219.724 293.861L208.469 289.989C207.223 289.56 205.927 289.29 204.613 289.185L186.272 287.72C181.221 287.316 176.147 287.297 171.094 287.663L147.871 289.343L117.056 295.473L100.392 297.603C94.0741 298.41 87.6935 298.612 81.3373 298.206L67.5394 297.324C65.6725 297.205 63.8246 296.879 62.0293 296.354L49.183 292.591C45.9924 291.657 43.8 288.73 43.8 285.406V285.406Z" fill="white"/>
<path d="M147.835 288.844L147.804 288.846L147.773 288.852L116.976 294.979L100.328 297.107C94.0423 297.91 87.6936 298.111 81.3692 297.707L67.5713 296.825C65.7412 296.708 63.9297 296.389 62.1698 295.874L49.3235 292.111C46.346 291.239 44.3 288.508 44.3 285.406C44.3 280.744 48.7779 277.389 53.2516 278.7L63.2728 281.635C64.1777 281.9 65.1046 282.083 66.0423 282.183L80.25 283.696C87.3256 284.45 94.4613 284.45 101.537 283.696L117.109 282.038L117.132 282.035L117.154 282.031L147.947 275.905L167.389 273.795C174.893 272.981 182.466 273.023 189.96 273.921L204.514 275.665C205.834 275.823 207.141 276.077 208.424 276.424L223.815 280.585C226.737 281.375 228.767 284.026 228.767 287.053C228.767 291.653 224.237 294.885 219.886 293.388L208.632 289.516C207.346 289.073 206.009 288.795 204.653 288.686L186.311 287.221C181.236 286.816 176.136 286.797 171.058 287.164L147.835 288.844Z" stroke="black" stroke-opacity="0.53"/>
<path d="M49.15 258.655C49.15 253.66 53.9483 250.066 58.7421 251.47L68.7633 254.405C69.6396 254.662 70.5372 254.839 71.4452 254.936L85.653 256.449C92.6934 257.199 99.7935 257.199 106.834 256.449L122.406 254.791L153.221 248.66L172.685 246.548C180.227 245.73 187.838 245.772 195.37 246.675L209.924 248.419C211.268 248.58 212.598 248.838 213.904 249.191L229.296 253.352C232.436 254.201 234.617 257.05 234.617 260.303V260.303C234.617 265.247 229.749 268.72 225.074 267.111L213.819 263.239C212.573 262.81 211.277 262.54 209.963 262.435L191.622 260.97C186.571 260.566 181.497 260.547 176.444 260.913L153.221 262.593L122.406 268.723L105.742 270.853C99.424 271.66 93.0435 271.862 86.6873 271.456L72.8893 270.574C71.0225 270.455 69.1745 270.129 67.3793 269.604L54.533 265.841C51.3423 264.907 49.15 261.98 49.15 258.655V258.655Z" fill="white"/>
<path d="M153.185 262.094L153.154 262.096L153.123 262.102L122.326 268.229L105.678 270.357C99.3922 271.16 93.0436 271.361 86.7192 270.957L72.9212 270.075C71.0912 269.958 69.2797 269.639 67.5198 269.124L54.6735 265.361C51.6959 264.489 49.65 261.758 49.65 258.655C49.65 253.994 54.1279 250.639 58.6016 251.95L68.6228 254.885C69.5277 255.15 70.4546 255.333 71.3922 255.433L85.6 256.946C92.6756 257.7 99.8113 257.7 106.887 256.946L122.459 255.288L122.482 255.285L122.504 255.281L153.297 249.155L172.739 247.045C180.243 246.231 187.816 246.273 195.31 247.171L209.864 248.915C211.184 249.073 212.491 249.327 213.774 249.674L229.165 253.835C232.087 254.625 234.117 257.276 234.117 260.303C234.117 264.903 229.587 268.135 225.236 266.638L213.982 262.766C212.696 262.323 211.359 262.045 210.003 261.936L191.661 260.471C186.586 260.066 181.486 260.047 176.408 260.414L153.185 262.094Z" stroke="black" stroke-opacity="0.53"/>
<path d="M58.0667 231.905C58.0667 226.91 62.865 223.316 67.6588 224.72L77.68 227.655C78.5563 227.912 79.4539 228.089 80.3619 228.186L94.5696 229.699C101.61 230.449 108.71 230.449 115.751 229.699L131.323 228.041L162.137 221.91L181.602 219.798C189.144 218.98 196.754 219.022 204.287 219.925L218.841 221.669C220.184 221.83 221.515 222.088 222.821 222.441L238.212 226.602C241.352 227.451 243.533 230.3 243.533 233.553V233.553C243.533 238.497 238.665 241.97 233.99 240.361L222.736 236.489C221.489 236.06 220.194 235.79 218.88 235.685L200.538 234.22C195.488 233.816 190.414 233.797 185.361 234.163L162.137 235.843L131.323 241.973L114.659 244.103C108.341 244.91 101.96 245.112 95.604 244.706L81.806 243.824C79.9392 243.705 78.0912 243.379 76.296 242.854L63.4497 239.091C60.259 238.157 58.0667 235.23 58.0667 231.905V231.905Z" fill="white"/>
<path d="M162.101 235.344L162.07 235.346L162.04 235.352L131.243 241.479L114.595 243.607C108.309 244.41 101.96 244.611 95.6359 244.207L81.8379 243.325C80.0079 243.208 78.1964 242.889 76.4365 242.374L63.5902 238.611C60.6126 237.739 58.5667 235.008 58.5667 231.905C58.5667 227.244 63.0446 223.889 67.5183 225.2L77.5394 228.135C78.4444 228.4 79.3713 228.583 80.3089 228.683L94.5167 230.196C101.592 230.95 108.728 230.95 115.804 230.196L131.376 228.538L131.399 228.535L131.421 228.531L162.213 222.405L181.656 220.295C189.16 219.481 196.733 219.523 204.227 220.421L218.781 222.165C220.101 222.323 221.407 222.577 222.69 222.924L238.082 227.085C241.004 227.875 243.033 230.526 243.033 233.553C243.033 238.153 238.503 241.385 234.153 239.888L222.899 236.016C221.612 235.573 220.276 235.295 218.92 235.186L200.578 233.721C195.502 233.316 190.403 233.297 185.324 233.664L162.101 235.344Z" stroke="black" stroke-opacity="0.53"/>
<defs>
<linearGradient id="paint0_linear_38_48" x1="33.1" y1="18.8333" x2="231.05" y2="24.1833" gradientUnits="userSpaceOnUse">
<stop/>
<stop offset="1" stop-opacity="0"/>
</linearGradient>
<linearGradient id="paint1_linear_38_48" x1="1" y1="166.85" x2="143.667" y2="163.283" gradientUnits="userSpaceOnUse">
<stop stop-opacity="0.54"/>
<stop offset="0.884367" stop-opacity="0"/>
</linearGradient>
<linearGradient id="paint2_linear_38_48" x1="222.133" y1="207.867" x2="161.5" y2="93.7334" gradientUnits="userSpaceOnUse">
<stop stop-opacity="0.3"/>
<stop offset="1" stop-opacity="0"/>
</linearGradient>
<linearGradient id="paint3_linear_38_48" x1="322" y1="156.15" x2="317.752" y2="167.315" gradientUnits="userSpaceOnUse">
<stop stop-opacity="0.35"/>
<stop offset="1" stop-opacity="0"/>
</linearGradient>
</defs>
</svg>
