<svg width="337" height="380" viewBox="0 0 337 380" fill="none" xmlns="http://www.w3.org/2000/svg">
<mask id="path-1-outside-1_38_790" maskUnits="userSpaceOnUse" x="57.1399" y="182.389" width="64" height="143" fill="black">
<rect fill="white" x="57.1399" y="182.389" width="64" height="143"/>
<path fill-rule="evenodd" clip-rule="evenodd" d="M90.7891 183.389C90.3631 183.389 89.9839 183.659 89.8443 184.061L67.2874 249.078C67.062 249.728 67.5445 250.406 68.2322 250.406H84.3334L59.2023 322.899C58.8066 324.041 60.3983 324.775 61.0097 323.733L115.18 231.397C115.571 230.73 115.091 229.891 114.318 229.891L97.3905 229.891L119.462 184.829C119.787 184.164 119.303 183.389 118.563 183.389H90.7891Z"/>
</mask>
<path fill-rule="evenodd" clip-rule="evenodd" d="M90.7891 183.389C90.3631 183.389 89.9839 183.659 89.8443 184.061L67.2874 249.078C67.062 249.728 67.5445 250.406 68.2322 250.406H84.3334L59.2023 322.899C58.8066 324.041 60.3983 324.775 61.0097 323.733L115.18 231.397C115.571 230.73 115.091 229.891 114.318 229.891L97.3905 229.891L119.462 184.829C119.787 184.164 119.303 183.389 118.563 183.389H90.7891Z" fill="#FFF48C"/>
<path d="M89.8443 184.061L88.8995 183.733L88.8995 183.733L89.8443 184.061ZM67.2874 249.078L68.2322 249.406L68.2322 249.406L67.2874 249.078ZM84.3334 250.406L85.2782 250.733L85.7384 249.406H84.3334V250.406ZM59.2023 322.899L58.2575 322.572L58.2575 322.572L59.2023 322.899ZM61.0097 323.733L60.1471 323.227L60.1471 323.227L61.0097 323.733ZM115.18 231.397L114.318 230.891L114.318 230.891L115.18 231.397ZM114.318 229.891L114.318 230.891H114.318V229.891ZM97.3905 229.891L96.4924 229.451L95.7872 230.891L97.3905 230.891L97.3905 229.891ZM119.462 184.829L118.563 184.389L118.563 184.389L119.462 184.829ZM90.7891 184.389L90.7891 184.389V182.389C89.9372 182.389 89.1788 182.929 88.8995 183.733L90.7891 184.389ZM68.2322 249.406L90.7891 184.389L88.8995 183.733L66.3426 248.75L68.2322 249.406ZM68.2322 249.406L68.2322 249.406L66.3426 248.75C65.8918 250.05 66.8568 251.406 68.2322 251.406V249.406ZM84.3334 249.406H68.2322V251.406H84.3334V249.406ZM60.1471 323.227L85.2782 250.733L83.3885 250.078L58.2575 322.572L60.1471 323.227ZM60.1471 323.227C60.1395 323.24 60.1339 323.247 60.1317 323.249C60.1296 323.252 60.1298 323.251 60.1328 323.249C60.1358 323.246 60.1402 323.243 60.1456 323.241C60.151 323.238 60.1562 323.236 60.1607 323.235C60.1698 323.233 60.173 323.234 60.1692 323.233C60.165 323.233 60.1569 323.231 60.1471 323.227C60.1374 323.222 60.1308 323.217 60.1277 323.214C60.1249 323.212 60.1278 323.214 60.1319 323.222C60.1339 323.226 60.1359 323.231 60.1374 323.237C60.1389 323.243 60.1396 323.248 60.1398 323.252C60.14 323.256 60.1397 323.256 60.1401 323.253C60.1406 323.25 60.1422 323.241 60.1471 323.227L58.2575 322.572C57.466 324.855 60.6495 326.323 61.8722 324.239L60.1471 323.227ZM114.318 230.891L60.1471 323.227L61.8722 324.239L116.043 231.903L114.318 230.891ZM114.318 230.891L114.318 230.891L116.043 231.903C116.825 230.569 115.864 228.891 114.318 228.891V230.891ZM97.3905 230.891L114.318 230.891L114.318 228.891L97.3905 228.891L97.3905 230.891ZM118.563 184.389L96.4924 229.451L98.2885 230.33L120.36 185.269L118.563 184.389ZM118.563 184.389L118.563 184.389L120.36 185.269C121.01 183.94 120.043 182.389 118.563 182.389V184.389ZM90.7891 184.389H118.563V182.389H90.7891V184.389Z" fill="black" fill-opacity="0.76" mask="url(#path-1-outside-1_38_790)"/>
<mask id="path-3-outside-2_38_790" maskUnits="userSpaceOnUse" x="224.648" y="204.722" width="40" height="88" fill="black">
<rect fill="white" x="224.648" y="204.722" width="40" height="88"/>
<path fill-rule="evenodd" clip-rule="evenodd" d="M245.599 205.722C245.173 205.722 244.794 205.992 244.654 206.394L230.733 246.521C230.507 247.171 230.99 247.849 231.677 247.849H241.276L226.711 289.864C226.315 291.005 227.907 291.74 228.518 290.698L260.338 236.459C260.729 235.792 260.248 234.953 259.475 234.953L249.484 234.953L263.096 207.162C263.421 206.498 262.938 205.722 262.198 205.722H245.599Z"/>
</mask>
<path fill-rule="evenodd" clip-rule="evenodd" d="M245.599 205.722C245.173 205.722 244.794 205.992 244.654 206.394L230.733 246.521C230.507 247.171 230.99 247.849 231.677 247.849H241.276L226.711 289.864C226.315 291.005 227.907 291.74 228.518 290.698L260.338 236.459C260.729 235.792 260.248 234.953 259.475 234.953L249.484 234.953L263.096 207.162C263.421 206.498 262.938 205.722 262.198 205.722H245.599Z" fill="#FFF48C"/>
<path d="M244.654 206.394L245.599 206.722L245.599 206.722L244.654 206.394ZM230.733 246.521L231.677 246.849L231.677 246.849L230.733 246.521ZM241.276 247.849L242.221 248.176L242.681 246.849H241.276V247.849ZM226.711 289.864L225.766 289.536L226.711 289.864ZM228.518 290.698L229.38 291.204L229.38 291.204L228.518 290.698ZM260.338 236.459L261.2 236.965L261.2 236.965L260.338 236.459ZM259.475 234.953L259.475 235.953H259.475V234.953ZM249.484 234.953L248.586 234.513L247.881 235.953L249.484 235.953L249.484 234.953ZM263.096 207.162L262.198 206.722L262.198 206.722L263.096 207.162ZM245.599 206.722L245.599 206.722V204.722C244.747 204.722 243.988 205.262 243.709 206.067L245.599 206.722ZM231.677 246.849L245.599 206.722L243.709 206.067L229.788 246.193L231.677 246.849ZM231.677 246.849L231.677 246.849L229.788 246.193C229.337 247.493 230.302 248.849 231.677 248.849V246.849ZM241.276 246.849H231.677V248.849H241.276V246.849ZM227.655 290.191L242.221 248.176L240.331 247.521L225.766 289.536L227.655 290.191ZM227.655 290.192C227.648 290.205 227.642 290.211 227.64 290.214C227.638 290.216 227.638 290.216 227.641 290.213C227.644 290.211 227.648 290.208 227.654 290.206C227.659 290.203 227.665 290.201 227.669 290.2C227.678 290.198 227.681 290.199 227.678 290.198C227.673 290.198 227.665 290.196 227.655 290.192C227.646 290.187 227.639 290.182 227.636 290.179C227.633 290.176 227.636 290.178 227.64 290.187C227.642 290.191 227.644 290.196 227.646 290.202C227.647 290.208 227.648 290.213 227.648 290.217C227.648 290.22 227.648 290.221 227.648 290.218C227.649 290.214 227.65 290.206 227.655 290.191L225.766 289.536C224.974 291.819 228.158 293.288 229.38 291.204L227.655 290.192ZM259.475 235.953L227.655 290.192L229.38 291.204L261.2 236.965L259.475 235.953ZM259.475 235.953L259.475 235.953L261.2 236.965C261.983 235.632 261.021 233.953 259.475 233.953V235.953ZM249.484 235.953L259.475 235.953L259.475 233.953L249.484 233.953L249.484 235.953ZM262.198 206.722L248.586 234.513L250.382 235.393L263.994 207.602L262.198 206.722ZM262.198 206.722L262.198 206.722L263.994 207.602C264.645 206.273 263.677 204.722 262.198 204.722V206.722ZM245.599 206.722H262.198V204.722H245.599V206.722Z" fill="black" fill-opacity="0.76" mask="url(#path-3-outside-2_38_790)"/>
<mask id="path-5-outside-3_38_790" maskUnits="userSpaceOnUse" x="127.862" y="182.389" width="87" height="197" fill="black">
<rect fill="white" x="127.862" y="182.389" width="87" height="197"/>
<path fill-rule="evenodd" clip-rule="evenodd" d="M173.847 183.389C173.421 183.389 173.042 183.659 172.902 184.061L141.957 273.256C141.732 273.905 142.214 274.583 142.902 274.583H165.319L129.925 376.682C129.529 377.823 131.121 378.557 131.732 377.515L207.613 248.173C208.004 247.506 207.524 246.667 206.751 246.667L183.087 246.667L213.375 184.829C213.7 184.164 213.216 183.389 212.477 183.389H173.847Z"/>
</mask>
<path fill-rule="evenodd" clip-rule="evenodd" d="M173.847 183.389C173.421 183.389 173.042 183.659 172.902 184.061L141.957 273.256C141.732 273.905 142.214 274.583 142.902 274.583H165.319L129.925 376.682C129.529 377.823 131.121 378.557 131.732 377.515L207.613 248.173C208.004 247.506 207.524 246.667 206.751 246.667L183.087 246.667L213.375 184.829C213.7 184.164 213.216 183.389 212.477 183.389H173.847Z" fill="#FFF48C"/>
<path d="M172.902 184.061L171.958 183.733L171.958 183.733L172.902 184.061ZM141.957 273.256L142.902 273.583L142.902 273.583L141.957 273.256ZM165.319 274.583L166.264 274.911L166.724 273.583H165.319V274.583ZM129.925 376.682L128.98 376.354L128.98 376.354L129.925 376.682ZM131.732 377.515L132.595 378.021L132.595 378.021L131.732 377.515ZM207.613 248.173L206.751 247.667L206.751 247.667L207.613 248.173ZM206.751 246.667L206.751 247.667H206.751V246.667ZM183.087 246.667L182.189 246.227L181.483 247.667L183.087 247.667L183.087 246.667ZM213.375 184.829L212.477 184.389L212.477 184.389L213.375 184.829ZM173.847 184.389L173.847 184.389V182.389C172.995 182.389 172.237 182.929 171.958 183.733L173.847 184.389ZM142.902 273.583L173.847 184.389L171.958 183.733L141.013 272.928L142.902 273.583ZM142.902 273.583L142.902 273.583L141.013 272.928C140.562 274.227 141.527 275.583 142.902 275.583V273.583ZM165.319 273.583H142.902V275.583H165.319V273.583ZM130.87 377.009L166.264 274.911L164.374 274.256L128.98 376.354L130.87 377.009ZM130.87 377.009C130.862 377.022 130.856 377.029 130.854 377.032C130.852 377.034 130.852 377.033 130.855 377.031C130.858 377.029 130.863 377.026 130.868 377.023C130.873 377.021 130.879 377.019 130.883 377.018C130.892 377.015 130.895 377.016 130.892 377.016C130.887 377.016 130.879 377.014 130.87 377.009C130.86 377.005 130.853 377 130.85 376.997C130.847 376.994 130.85 376.996 130.854 377.004C130.856 377.009 130.858 377.014 130.86 377.02C130.861 377.025 130.862 377.031 130.862 377.034C130.862 377.038 130.862 377.039 130.863 377.036C130.863 377.032 130.865 377.024 130.87 377.009L128.98 376.354C128.188 378.637 131.372 380.105 132.595 378.021L130.87 377.009ZM206.751 247.667L130.87 377.009L132.595 378.021L208.476 248.679L206.751 247.667ZM206.751 247.667L206.751 247.667L208.476 248.679C209.258 247.345 208.296 245.667 206.751 245.667V247.667ZM183.087 247.667L206.751 247.667L206.751 245.667L183.087 245.667L183.087 247.667ZM212.477 184.389L182.189 246.227L183.985 247.107L214.273 185.269L212.477 184.389ZM212.477 184.389L212.477 184.389L214.273 185.269C214.924 183.94 213.956 182.389 212.477 182.389V184.389ZM173.847 184.389H212.477V182.389H173.847V184.389Z" fill="black" fill-opacity="0.76" mask="url(#path-5-outside-3_38_790)"/>
<ellipse cx="84.75" cy="138.722" rx="83.75" ry="78.1667" fill="white"/>
<ellipse cx="170.361" cy="138.722" rx="83.75" ry="78.1667" fill="white"/>
<ellipse cx="252.25" cy="138.722" rx="83.75" ry="78.1667" fill="white"/>
<ellipse cx="136.861" cy="79.1667" rx="83.75" ry="78.1667" fill="white"/>
<ellipse cx="218.75" cy="105.222" rx="83.75" ry="78.1667" fill="white"/>
<mask id="path-12-outside-4_38_790" maskUnits="userSpaceOnUse" x="0" y="0" width="337" height="218" fill="black">
<rect fill="white" width="337" height="218"/>
<path fill-rule="evenodd" clip-rule="evenodd" d="M54.3167 65.8765C61.0775 29.0366 95.4613 1 136.861 1C162.569 1 185.572 11.811 200.935 28.8278C206.676 27.6669 212.636 27.0556 218.75 27.0556C251.843 27.0556 280.453 44.9699 294.055 70.9751C319.126 84.4812 336 109.763 336 138.722C336 181.892 298.504 216.889 252.25 216.889C237.378 216.889 223.411 213.271 211.306 206.927C199.2 213.271 185.233 216.889 170.361 216.889C154.721 216.889 140.082 212.887 127.556 205.922C115.029 212.887 100.39 216.889 84.75 216.889C38.4962 216.889 1 181.892 1 138.722C1 105.572 23.1097 77.2421 54.3167 65.8765Z"/>
</mask>
<path fill-rule="evenodd" clip-rule="evenodd" d="M54.3167 65.8765C61.0775 29.0366 95.4613 1 136.861 1C162.569 1 185.572 11.811 200.935 28.8278C206.676 27.6669 212.636 27.0556 218.75 27.0556C251.843 27.0556 280.453 44.9699 294.055 70.9751C319.126 84.4812 336 109.763 336 138.722C336 181.892 298.504 216.889 252.25 216.889C237.378 216.889 223.411 213.271 211.306 206.927C199.2 213.271 185.233 216.889 170.361 216.889C154.721 216.889 140.082 212.887 127.556 205.922C115.029 212.887 100.39 216.889 84.75 216.889C38.4962 216.889 1 181.892 1 138.722C1 105.572 23.1097 77.2421 54.3167 65.8765Z" fill="white"/>
<path d="M54.3167 65.8765L54.6589 66.8161L55.197 66.6202L55.3003 66.057L54.3167 65.8765ZM200.935 28.8278L200.193 29.4979L200.574 29.9209L201.133 29.8079L200.935 28.8278ZM294.055 70.9751L293.169 71.4386L293.311 71.7101L293.581 71.8555L294.055 70.9751ZM211.306 206.927L211.77 206.041L211.306 205.798L210.841 206.041L211.306 206.927ZM127.556 205.922L128.042 205.048L127.556 204.777L127.07 205.048L127.556 205.922ZM136.861 0C95.0194 0 60.1882 28.3423 53.3332 65.696L55.3003 66.057C61.9667 29.7309 95.9031 2 136.861 2V0ZM201.677 28.1576C186.124 10.9303 162.851 0 136.861 0V2C162.287 2 185.02 12.6918 200.193 29.4979L201.677 28.1576ZM218.75 26.0556C212.57 26.0556 206.543 26.6736 200.737 27.8476L201.133 29.8079C206.809 28.6602 212.703 28.0556 218.75 28.0556V26.0556ZM294.941 70.5116C281.161 44.1661 252.203 26.0556 218.75 26.0556V28.0556C251.483 28.0556 279.745 45.7737 293.169 71.4386L294.941 70.5116ZM293.581 71.8555C318.364 85.2063 335 110.169 335 138.722H337C337 109.356 319.889 83.7561 294.529 70.0947L293.581 71.8555ZM335 138.722C335 181.276 298.018 215.889 252.25 215.889V217.889C298.99 217.889 337 182.509 337 138.722H335ZM252.25 215.889C237.541 215.889 223.734 212.311 211.77 206.041L210.841 207.812C223.089 214.231 237.215 217.889 252.25 217.889V215.889ZM170.361 217.889C185.396 217.889 199.522 214.231 211.77 207.812L210.841 206.041C198.877 212.311 185.07 215.889 170.361 215.889V217.889ZM127.07 206.796C139.743 213.843 154.549 217.889 170.361 217.889V215.889C154.893 215.889 140.421 211.932 128.042 205.048L127.07 206.796ZM84.75 217.889C100.562 217.889 115.368 213.843 128.042 206.796L127.07 205.048C114.69 211.932 100.219 215.889 84.75 215.889V217.889ZM0 138.722C0 182.509 38.01 217.889 84.75 217.889V215.889C38.9823 215.889 2 181.276 2 138.722H0ZM53.9745 64.9369C22.4192 76.4293 0 105.104 0 138.722H2C2 106.04 23.8003 78.0548 54.6589 66.8161L53.9745 64.9369Z" fill="black" mask="url(#path-12-outside-4_38_790)"/>
<path d="M136.861 157.833C183.358 157.833 221.111 122.645 221.111 79.1667C221.111 35.6883 183.358 0.5 136.861 0.5C90.3641 0.5 52.6111 35.6883 52.6111 79.1667C52.6111 122.645 90.3641 157.833 136.861 157.833Z" fill="white" stroke="url(#paint0_linear_38_790)"/>
<path d="M84.75 217.389C131.247 217.389 169 182.201 169 138.722C169 95.2439 131.247 60.0555 84.75 60.0555C38.2531 60.0555 0.5 95.2439 0.5 138.722C0.5 182.201 38.2531 217.389 84.75 217.389Z" fill="white" stroke="url(#paint1_linear_38_790)"/>
<path d="M170.361 217.389C216.858 217.389 254.611 182.201 254.611 138.722C254.611 95.2439 216.858 60.0555 170.361 60.0555C123.864 60.0555 86.1111 95.2439 86.1111 138.722C86.1111 182.201 123.864 217.389 170.361 217.389Z" fill="white" stroke="url(#paint2_linear_38_790)"/>
<ellipse cx="252.25" cy="138.722" rx="83.75" ry="78.1667" fill="white"/>
<path d="M252.25 217.389C298.747 217.389 336.5 182.201 336.5 138.722C336.5 95.2439 298.747 60.0555 252.25 60.0555C205.753 60.0555 168 95.2439 168 138.722C168 182.201 205.753 217.389 252.25 217.389Z" stroke="url(#paint3_linear_38_790)" stroke-opacity="0.88"/>
<defs>
<linearGradient id="paint0_linear_38_790" x1="34.5" y1="19.6111" x2="241.083" y2="25.1944" gradientUnits="userSpaceOnUse">
<stop/>
<stop offset="1" stop-opacity="0"/>
</linearGradient>
<linearGradient id="paint1_linear_38_790" x1="1" y1="174.083" x2="149.889" y2="170.361" gradientUnits="userSpaceOnUse">
<stop stop-opacity="0.54"/>
<stop offset="0.884367" stop-opacity="0"/>
</linearGradient>
<linearGradient id="paint2_linear_38_790" x1="231.778" y1="216.889" x2="168.5" y2="97.7778" gradientUnits="userSpaceOnUse">
<stop stop-opacity="0.3"/>
<stop offset="1" stop-opacity="0"/>
</linearGradient>
<linearGradient id="paint3_linear_38_790" x1="336" y1="162.917" x2="331.52" y2="174.656" gradientUnits="userSpaceOnUse">
<stop stop-opacity="0.35"/>
<stop offset="1" stop-opacity="0"/>
</linearGradient>
</defs>
</svg>
